<svg aria-hidden="true" style="width:0;height:0;position:absolute;overflow:hidden" xmlns="http://www.w3.org/2000/svg"><defs><symbol id="icon-close" viewBox="0 0 32 32"><path d="M32 3.223 28.777 0 16 12.777 3.223 0 0 3.223 12.777 16 0 28.777 3.223 32 16 19.223 28.777 32 32 28.777 19.223 16 32 3.223z"/></symbol><symbol id="icon-menu-icon" viewBox="0 0 32 32"><path d="M6.4 11.734V9.6h19.2v2.134H6.4zm0 5.332h19.2v-2.133H6.4v2.133zm0 5.334h19.2v-2.134H6.4V22.4z"/></symbol><symbol id="icon-logo" viewBox="0 0 124 32"><path d="M29.633 28.571h-5.507L23.374 32h-6.161l5.906-22.857h7.615L36.639 32h-6.291l-.715-3.429zm-.968-4.402-1.753-8.226-1.827 8.226h3.579zM54.286 9.143V32h-5.362l-5.119-12v12h-5.727V9.143h5.368l5.119 12.212V9.143h5.721zm16.719 4.451h-4.438V32h-6.25V13.594H55.9V9.143h15.105v4.451zm12.598 14.977h-5.512L77.339 32h-6.156l5.906-22.857h7.623L90.617 32h-6.299l-.715-3.429zm-.965-4.414-1.755-8.214-1.824 8.226 3.579-.011zm18.575-7.183V14.02c0-.534-.287-.783-.896-.783H99.03c-.609 0-.896.249-.896.784v13.102c0 .534.287.783.896.783h1.287c.609 0 .896-.249.896-.784v-3.808h-1.789V19.36h8.042v8.226c0 2.668-1.436 4.414-5.259 4.414h-5.084c-3.829 0-5.262-1.746-5.262-4.415V13.557c0-2.669 1.436-4.415 5.262-4.415h5.084c3.828 0 5.259 1.746 5.259 4.415v3.429l-6.253-.012zm22.869 10.575V32h-14.103V9.143h13.787v4.451h-7.523v4.663h6.477v4.452h-6.477v4.839h7.839z"/><path d="M12.063 0 7.657 24.417l-1.339-7.846H0L4.041 32h7.267l6.5-26.286h106.273L12.063 0z"/></symbol><symbol id="icon-antartica" viewBox="0 0 121 32"><path d="M19.368 26.889c-.151.06-.326.097-.509.1h-.001l-1.931.06h-1.661a16.99 16.99 0 0 1-4.711 3.66l-.093.044a8.767 8.767 0 0 1-4.175.917h.012a8.557 8.557 0 0 1-2.661-.497l.06.019a6.235 6.235 0 0 1-2.079-1.201l.007.006a4.868 4.868 0 0 1-1.278-1.712l-.012-.031A4.158 4.158 0 0 1 0 26.604c0-.191.013-.378.037-.562l-.002.022a5.646 5.646 0 0 1 1.141-3.082l-.01.014a4.89 4.89 0 0 1 1.969-1.462l.033-.012a5.203 5.203 0 0 1 2.249-.318l-.018-.001a7.283 7.283 0 0 1 1.751.319c.355.148.654.407.85.737.159.259.226.565.19.867a.997.997 0 0 1-.417.645l-.003.002a.934.934 0 0 1-.895-.002l.005.002a2.326 2.326 0 0 0-1.677-.115l.017-.004a2.656 2.656 0 0 0-1.198.822l-.004.004c-.307.395-.51.861-.59 1.354a2.734 2.734 0 0 0 .116 1.503l-.006-.019c.192.496.544.917 1.001 1.194a3.55 3.55 0 0 0 2.001.478 6.868 6.868 0 0 0 4.237-1.836l-.004.004c-.579 0-.94-.179-1.081-.438a.88.88 0 0 1 .002-.871l-.002.004c.208-.357.49-.663.831-.897a2.47 2.47 0 0 1 1.271-.458h1.79a53.156 53.156 0 0 0 4.067-5.179l.116-.178c.761-1.042 2.162-3.116 3.538-5.208l.714-1.156c1.411-2.16 2.702-4.292 4.003-6.383a75.447 75.447 0 0 1 3.982-5.81l-.139.192a1.888 1.888 0 0 1 1.149-.725l.012-.002a1.914 1.914 0 0 1 1.214.114l-.012-.005c.341.164.598.459.708.817l.002.009a1.532 1.532 0 0 1-.272 1.307l.003-.004c-1.051 1.623-2.082 3.406-3.112 5.358s-2.001 3.924-2.852 5.906c-.85 1.981-1.681 3.904-2.321 5.746-.517 1.313-1.029 2.949-1.435 4.626l-.056.274a11.914 11.914 0 0 0-.4 3.453v-.017c.07.876.39 1.305 1.001 1.305.273-.01.545-.064.801-.16a7.67 7.67 0 0 0 1.043-.448l-.043.02a8.946 8.946 0 0 0 1.001-.647c.329-.233.637-.493.92-.777l1.291-1.305c.375-.402.73-.825 1.06-1.264a.9.9 0 0 1 .75-.429h.001c.311-.023.623.039.9.18.261.119.473.322.6.578a.69.69 0 0 1-.14.776l-1.242 1.485a27.855 27.855 0 0 1-2.001 2.131c-.436.414-.899.818-1.378 1.202l-.043.033c-.4.32-.832.597-1.291.826a5.258 5.258 0 0 1-1.296.452l-.035.006a8.039 8.039 0 0 1-1.514.139h-.06.003a3.01 3.01 0 0 1-2.756-1.323l-.007-.011a6.01 6.01 0 0 1-.724-2.879c0-.224.012-.445.036-.663l-.002.027zm.32-2.52a30.076 30.076 0 0 1 2.079-6.04l-.078.185a69.625 69.625 0 0 1-2.296 3.435l.155-.229a62.827 62.827 0 0 1-2.109 2.84l.107-.142c.431 0 .83-.049 1.201-.049h.94zm12.748-6.175a.998.998 0 0 1 .777-.527h.004a2.727 2.727 0 0 1 1.19.003l-.018-.003c.356.075.683.252.941.509a.762.762 0 0 1 .138.92l.002-.004-.271.547.181-.138a8.197 8.197 0 0 1 2.16-1.444l.051-.021a3.096 3.096 0 0 1 1.592-.277l-.012-.001c.424.053.816.25 1.111.558.311.304.566.663.751 1.055.129.302.204.653.204 1.021s-.075.719-.211 1.038l.007-.017a16.821 16.821 0 0 1-1.215 2.622l.044-.083c-.389.777-.742 1.4-1.121 2.005l.059-.102c-.185.276-.55.881-.906 1.492l-.194.361a1.331 1.331 0 0 0-.25.661v.005c0 .11.091.139.231.11a2.17 2.17 0 0 0 .48-.199 4.93 4.93 0 0 0 .501-.349 18.437 18.437 0 0 0 1.997-1.777l.004-.005a20.074 20.074 0 0 0 1.559-1.751l.032-.042a.928.928 0 0 1 .779-.458h.001c.301-.024.603.038.87.179.252.127.452.326.577.57l.003.007a.736.736 0 0 1-.091.778l.001-.002c-.16.179-.36.448-.62.797s-.56.727-.9 1.126c-.341.398-.711.806-1.131 1.234s-.83.827-1.261 1.195a8.443 8.443 0 0 1-2.18 1.483l-.051.022a4.098 4.098 0 0 1-1.751.387h-.021c-.47 0-.901-.161-1.243-.431l.004.003a2.902 2.902 0 0 1-.783-.978l-.008-.017a2.7 2.7 0 0 1-.105-2.011l-.006.019c.291-.898.67-1.765 1.131-2.589.12-.24.27-.528.46-.867s.37-.677.571-.996c.199-.318.38-.687.55-.995.143-.276.303-.541.48-.797.19-.338.259-.557.23-.667s-.13-.139-.29-.11c-.22.047-.414.116-.595.206l.015-.007a8.44 8.44 0 0 0-.635.37l.034-.02a26 26 0 0 0-1.511 1.116c-.502.393-.979.816-1.431 1.264-.31.727-.621 1.464-.941 2.201l-.9 2.061c-.28.637-.51 1.185-.711 1.643s-.35.777-.44.996a1.49 1.49 0 0 1-.991.814l-.01.002a2.152 2.152 0 0 1-1.327-.005l.015.004a1.627 1.627 0 0 1-.936-.768l-.004-.008a1.51 1.51 0 0 1 .094-1.451l-.004.006c.27-.607.65-1.414 1.121-2.4s1.001-1.992 1.481-3.117l1.471-3.187c.42-1.165.83-2.041 1.171-2.779v.01zm17.522-1.144-3.823 6.672c-.408.763-.74 1.332-1.087 1.892l.086-.149c-.261.42-.525.916-.757 1.431l-.033.083a7.14 7.14 0 0 0-.398 1.112l-.012.053c-.08.319-.04.538.12.657a.617.617 0 0 0 .665.119l-.004.002c.329-.094.64-.242.92-.439.32-.209.65-.458 1.001-.727.35-.27.64-.548.92-.828l1.291-1.304c.375-.402.73-.825 1.061-1.264a.902.902 0 0 1 .749-.429h.001c.311-.023.623.039.901.18.26.119.472.322.6.578a.693.693 0 0 1-.14.777c-.31.398-.72.896-1.241 1.514s-1.181 1.305-2.001 2.102c-.436.414-.899.818-1.378 1.202l-.043.033c-.4.32-.832.597-1.29.826a5.251 5.251 0 0 1-1.297.452l-.035.006a7.91 7.91 0 0 1-1.52.139c-1.571 0-2.482-.637-2.742-1.903s.24-2.987 1.501-5.059c.151-.279.381-.687.691-1.235s.66-1.174 1.081-1.882l1.31-2.24c.46-.797.9-1.574 1.331-2.341-.259.032-.52.048-.781.05h-.83c-.64 0-1.061-.13-1.241-.389a.857.857 0 0 1-.048-.9l-.002.005c.194-.372.479-.687.83-.917a2.6 2.6 0 0 1 1.324-.457h2.338l1.001-1.654c.231-.41.603-.718 1.048-.862l.013-.004a2.008 2.008 0 0 1 1.214.004l-.014-.004c.336.098.623.318.801.617a.989.989 0 0 1-.062.999l.002-.004-.46.777H52.8a6.423 6.423 0 0 0 1.023-.002l-.023.001c.461 0 .731.14.83.399a1.093 1.093 0 0 1-.102.872l.003-.005a2.77 2.77 0 0 1-.731.917 1.687 1.687 0 0 1-1.111.438l-2.732.09zm14.551 7.319a.999.999 0 0 1 .799-.428h.001c.311-.022.623.041.9.179.257.125.467.327.601.578a.699.699 0 0 1-.141.777c-.161.18-.361.449-.621.797s-.571.727-.92 1.124l-1.081 1.226c-.391.421-.804.82-1.24 1.195a8.554 8.554 0 0 1-2.16 1.482l-.051.022a3.703 3.703 0 0 1-1.624.369l-.081-.001h.004a2.085 2.085 0 0 1-1.245-.462l.004.003a4.215 4.215 0 0 1-.861-.978l-.01-.017-1.591.995a5.028 5.028 0 0 1-2.566.507l.015.001-.087.001a3.85 3.85 0 0 1-2.002-.558l.017.01a3.26 3.26 0 0 1-1.283-1.542l-.008-.022a4.866 4.866 0 0 1-.322-1.758c0-.226.015-.449.045-.668l-.003.026a8.095 8.095 0 0 1 1.061-3.085l-.021.038a11.86 11.86 0 0 1 2.092-2.858l-.001.001a14.956 14.956 0 0 1 2.405-1.958l.057-.035a10.167 10.167 0 0 1 2.348-1.124l.073-.021a6.675 6.675 0 0 1 1.99-.368h.011c.341-.003.679.05 1.001.159.279.104.547.233.801.389.252.153.484.337.69.547.2-.368.521-.649.909-.793l.012-.004c.4-.169.838-.234 1.271-.19.338.029.654.186.88.439.19.248.17.577-.069.995l-.921 1.813c-.37.717-.751 1.454-1.15 2.201l-1.131 2.102c-.259.484-.543.957-.851 1.413a1.122 1.122 0 0 0-.209.71v-.002c0 .139.18.199.389.189a1.84 1.84 0 0 0 .741-.259c.307-.17.586-.385.83-.637.521-.547.941-.995 1.261-1.304.381-.378.73-.788 1.041-1.225v.009zm-6.765 1.275a9.394 9.394 0 0 0 1.121-1.743c.265-.528.482-1.078.65-1.643a3.9 3.9 0 0 0 .16-1.345 1.098 1.098 0 0 0-.418-.844l-.002-.002a1.165 1.165 0 0 0-.949-.159l.008-.002c-.47.109-.885.291-1.254.536l.014-.009c-.519.337-.97.698-1.384 1.098l.002-.002a15.5 15.5 0 0 0-1.401 1.564 12.529 12.529 0 0 0-1.117 1.734l-.033.068a7.8 7.8 0 0 0-.656 1.566l-.015.057c-.13.432-.176.885-.139 1.334.023.343.189.644.438.846l.002.002a1.077 1.077 0 0 0 .907.177l-.007.002c.477-.095.9-.268 1.277-.507l-.015.009a7.953 7.953 0 0 0 1.402-1.106l-.001.001c.506-.494.969-1.028 1.386-1.598l.025-.036zm6.765-1.284a24.755 24.755 0 0 0 1.944-2.539l.057-.091c.701-1.056 1.35-1.992 1.931-2.909a4.852 4.852 0 0 1-.842-1.638l-.009-.035a6.974 6.974 0 0 1-.32-1.985v-.007a5.957 5.957 0 0 1 .262-1.945l-.011.042a2.925 2.925 0 0 1 .993-1.429l.007-.005a3.32 3.32 0 0 1 1.92-.806l.012-.001c.033-.002.071-.002.11-.002.547 0 1.051.181 1.457.485l-.006-.005c.429.374.743.87.887 1.434l.004.02a3.76 3.76 0 0 1 .116 1.916l.004-.024a5.237 5.237 0 0 1-.474 1.405l.014-.03a40.837 40.837 0 0 1-.871 1.702c.409.09.832.09 1.241 0a2.2 2.2 0 0 1 1.24.061c.311.114.581.315.781.577.183.225.282.507.28.797v.026a.992.992 0 0 1-.281.693c-.12.119-.37.398-.731.816s-.79.946-1.271 1.533c-.48.588-1 1.235-1.45 1.903a21.47 21.47 0 0 0-1.204 1.818l-.057.103a9.062 9.062 0 0 0-.78 1.633c-.17.469-.15.787.061.937a1.28 1.28 0 0 0 1.436.066l-.006.003a8.253 8.253 0 0 0 1.931-1.124 18.465 18.465 0 0 0 2.005-1.697l-.003.003a18.558 18.558 0 0 0 1.535-1.643l.025-.031a1.16 1.16 0 0 1 .808-.388h.003c.299-.016.597.039.871.159.249.118.453.314.579.558a.7.7 0 0 1-.14.776 20.562 20.562 0 0 1-2.001 2.261 16.792 16.792 0 0 1-2.742 2.302l-.06.038a10.863 10.863 0 0 1-3.074 1.464l-.078.02a3.865 3.865 0 0 1-3.021-.278l.021.01a2.253 2.253 0 0 1-1.331-1.875l-.001-.008a5.627 5.627 0 0 1 .475-2.803l-.014.036a13.223 13.223 0 0 1 1.725-3.02l-.024.032a13.937 13.937 0 0 1 2.37-2.551l.022-.018a1.48 1.48 0 0 0 .39-.429c0-.08-.3-.239-.941-.488a77.036 77.036 0 0 1-2.397 3.539l.166-.243a88.666 88.666 0 0 1-1.45 1.992 1.128 1.128 0 0 1-.848.478h-.003a1.346 1.346 0 0 1-.855-.213l.005.003a1.287 1.287 0 0 1-.528-.609l-.003-.008a.734.734 0 0 1 .141-.767l-.001.001zm5.893-11.036h-.02a.673.673 0 0 0-.558.297l-.002.002a1.822 1.822 0 0 0-.271.777c-.05.33-.05.666 0 .996.06.371.185.728.37 1.055.18-.368.35-.737.501-1.105.141-.32.251-.654.329-.995a1.589 1.589 0 0 0 0-.757.379.379 0 0 0-.35-.269H70.4zm13.749 3.716-3.823 6.683c-.489.895-.82 1.465-1.161 2.028l.16-.286c-.29.489-.55.995-.78 1.514a6.608 6.608 0 0 0-.411 1.165c-.08.319 0 .538.11.657a.641.641 0 0 0 .676.118l-.004.002c.329-.094.64-.242.92-.439.32-.209.65-.458 1.001-.727.35-.27.64-.548.921-.828.434-.424.851-.849 1.26-1.283l.02-.022a13.43 13.43 0 0 0 1.021-1.264.927.927 0 0 1 .799-.458h.002c.311-.022.623.041.901.179.256.125.467.327.6.578a.699.699 0 0 1-.141.777 50.606 50.606 0 0 1-1.302 1.586l.061-.073c-.52.618-1.181 1.305-2.001 2.102-.438.418-.904.822-1.389 1.204l-.041.031a7.57 7.57 0 0 1-1.281.827 5.313 5.313 0 0 1-1.305.452l-.035.006a7.857 7.857 0 0 1-1.522.138c-1.56 0-2.471-.637-2.731-1.902s.24-2.987 1.491-5.059c.16-.279.39-.687.69-1.234l1.081-1.883c.42-.697.85-1.444 1.311-2.24.46-.797.91-1.574 1.341-2.341a6.36 6.36 0 0 1-.781.05h-.83c-.65 0-1.06-.13-1.241-.388a.836.836 0 0 1 .002-.899l-.002.003c.19-.374.477-.69.83-.917a2.61 2.61 0 0 1 1.324-.458h2.338l1.001-1.653a1.903 1.903 0 0 1 1.011-.836 2.014 2.014 0 0 1 1.216.004l-.014-.004c.332.104.617.323.8.617a.993.993 0 0 1-.071.999l.002-.003-.461.777h1.29a6.423 6.423 0 0 0 1.023-.002l-.023.001c.461 0 .731.14.821.399a1.078 1.078 0 0 1-.093.872l.003-.005a2.917 2.917 0 0 1-.726.913l-.005.004a1.678 1.678 0 0 1-1.099.408l-.044-.001h.002l-2.711.11zm7.646 7.321a.895.895 0 0 1 .749-.429h.001c.311-.023.623.039.901.18.26.119.472.322.6.578a.693.693 0 0 1-.14.777c-.311.398-.711.896-1.221 1.514a25.737 25.737 0 0 1-1.988 2.089l-.014.013c-.436.414-.899.818-1.378 1.202l-.043.033c-.4.32-.832.597-1.29.826a5.258 5.258 0 0 1-1.296.452l-.035.006a7.927 7.927 0 0 1-1.521.139c-1.571 0-2.482-.637-2.742-1.903s.24-2.987 1.501-5.059c.27-.458.56-.995.87-1.533s.621-1.125.941-1.674l.92-1.553c.291-.488.551-.906.761-1.245.236-.4.606-.701 1.047-.842l.013-.004c.381-.12.79-.12 1.171 0 .333.108.618.326.81.617.08.158.114.336.097.512s-.087.344-.197.484c-.33.587-.72 1.264-1.15 2.041l-1.101 2.141a32.731 32.731 0 0 1-1.088 1.894l.087-.151c-.262.42-.526.917-.757 1.431l-.033.082c-.15.324-.291.712-.399 1.112l-.012.053c-.08.319-.04.538.121.657a.622.622 0 0 0 .664.119l-.004.002c.355-.093.693-.24 1.001-.439.346-.225.68-.468 1.001-.727.33-.279.64-.548.92-.828l1.241-1.304c.352-.405.682-.827.991-1.264zm1.881-10.208c-.178.299-.38.557-.61.787a8.35 8.35 0 0 1-.578.537l-.012.01a3.92 3.92 0 0 1-1.224.492l-.027.005a2.514 2.514 0 0 1-1.096.048l.015.002a.755.755 0 0 1-.588-.453l-.002-.005c-.11-.239 0-.578.25-.995.125-.242.261-.479.41-.707.19-.289.35-.558.511-.807.222-.347.577-.592.992-.665l.009-.001a2.513 2.513 0 0 1 1.218.074l-.018-.005c.343.111.635.34.821.648a.987.987 0 0 1-.072 1.039l.002-.003zm-1.511 9.34a12.794 12.794 0 0 1 2.004-2.681l-.002.002a12.458 12.458 0 0 1 2.423-1.861l.058-.032a7.069 7.069 0 0 1 2.541-.912l.04-.005a5.035 5.035 0 0 1 2.447.241l-.035-.011c.576.172 1.01.641 1.129 1.225l.002.01a3.47 3.47 0 0 1-.269 1.785l.009-.022a6.604 6.604 0 0 1-1.011 1.807l.01-.014a9.517 9.517 0 0 1-1.239 1.294l-.012.01a1.429 1.429 0 0 1-.961.369l-.042-.001h.002a1.637 1.637 0 0 1-.904-.351l.003.003a1.57 1.57 0 0 1-.497-.696l-.003-.011a.592.592 0 0 1 .179-.687l.001-.001.781-.777c.284-.28.547-.579.79-.897.172-.213.296-.461.36-.727 0-.199-.099-.299-.41-.299a2.173 2.173 0 0 0-1.069.344l.009-.005a6.32 6.32 0 0 0-1.239.994l-.002.002c-.46.442-.883.913-1.269 1.415l-.022.03a13.688 13.688 0 0 0-1.191 1.782 3.643 3.643 0 0 0-.58 2.211v-.01c.056.606.359 1.131.807 1.481l.005.003a2.645 2.645 0 0 0 1.774.377l-.014.002a5.814 5.814 0 0 0 2.593-.95l-.021.013c.397-.239.781-.497 1.15-.777.4-.309.781-.628 1.151-.996s.71-.667 1.001-.995c.278-.283.539-.582.78-.897a.92.92 0 0 1 .739-.428h.002c.291-.019.585.035.85.16.254.115.46.316.58.567a.769.769 0 0 1-.101.808l.001-.001c-.225.325-.469.638-.73.936-.311.349-.661.727-1.061 1.125s-.82.787-1.261 1.185c-.409.37-.852.732-1.313 1.073l-.047.033a8.227 8.227 0 0 1-2.683 1.448l-.059.016a9.13 9.13 0 0 1-2.642.388h-.004a6.019 6.019 0 0 1-2.248-.433l.041.014a3.28 3.28 0 0 1-1.417-.991l-.004-.005a3.743 3.743 0 0 1-.756-1.558l-.005-.025a5.68 5.68 0 0 1-.129-1.723l-.001.019a8.29 8.29 0 0 1 .32-1.782 7.447 7.447 0 0 1 .671-1.614zm25.857.868a.999.999 0 0 1 .8-.429h.001c.311-.023.623.04.9.18.26.119.472.322.6.578a.696.696 0 0 1-.14.776c-.15.179-.36.448-.62.797s-.57.727-.92 1.125c-.35.398-.731.807-1.131 1.235-.391.421-.805.82-1.24 1.195a8.59 8.59 0 0 1-2.141 1.482l-.051.022a3.705 3.705 0 0 1-1.625.369l-.08-.001h.004a2.085 2.085 0 0 1-1.245-.462l.004.003a4.215 4.215 0 0 1-.861-.978l-.01-.017-1.591.995a5.028 5.028 0 0 1-2.567.506l.015.001-.087.001a3.85 3.85 0 0 1-2.002-.558l.017.01a3.296 3.296 0 0 1-1.283-1.542l-.008-.022a5.002 5.002 0 0 1-.268-2.426l-.003.026a7.917 7.917 0 0 1 1.021-3.086l-.02.038a11.893 11.893 0 0 1 2.102-2.858 14.162 14.162 0 0 1 2.406-1.959l.055-.034a9.99 9.99 0 0 1 2.34-1.125l.072-.02a6.675 6.675 0 0 1 1.99-.368h.011c.34-.005.678.049 1.001.159.281.105.553.235.81.389.287.156.555.343.801.557.195-.372.523-.656.92-.796a2.48 2.48 0 0 1 1.221-.189l-.01-.001c.339.027.656.184.88.439.201.249.17.578-.07.995s-.55 1.096-.92 1.813c-.37.718-.751 1.454-1.151 2.201s-.771 1.444-1.13 2.102c-.291.567-.574 1.04-.882 1.493l.031-.049c-.18.338-.25.567-.2.707s.17.199.39.189c.259-.032.509-.121.731-.259.307-.17.586-.385.83-.637.521-.548.941-.996 1.261-1.305a8.672 8.672 0 0 0 1.04-1.264zm-6.764 1.284a9.674 9.674 0 0 0 1.803-3.337l.018-.069c.13-.432.183-.884.16-1.334a1.137 1.137 0 0 0-.409-.845l-.002-.001a1.178 1.178 0 0 0-1.009-.157l.008-.002a3.869 3.869 0 0 0-1.24.528c-.519.337-.97.698-1.384 1.098l.002-.002c-.49.483-.948.993-1.375 1.529l-.027.035c-.398.525-.78 1.117-1.115 1.739l-.036.073a7.917 7.917 0 0 0-.656 1.566l-.015.057a3.487 3.487 0 0 0-.129 1.349l-.001-.014c.021.342.183.642.428.845l.002.002a1.097 1.097 0 0 0 .909.178l-.008.002a3.719 3.719 0 0 0 1.276-.507l-.015.009a8.408 8.408 0 0 0 1.412-1.107l-.002.002c.499-.495.959-1.029 1.375-1.596l.026-.037z"/></symbol><symbol id="icon-artzo" viewBox="0 0 130 32"><path d="M89.71 23.05a9.544 9.544 0 0 0 3.818-.743 22.748 22.748 0 0 0 3.493-1.94l-.08.051 5.343 6.998a11.67 11.67 0 0 1-2.775 1.911l-.068.03c-.943.462-2.048.869-3.198 1.161l-.121.026a23.36 23.36 0 0 1-3.571.621l-.102.008a41.68 41.68 0 0 1-3.89.176h-.001a40.845 40.845 0 0 1-4.221-.221l.175.015a39.152 39.152 0 0 1-4.017-.589l.251.042a29.452 29.452 0 0 1-3.482-.874l.214.059a16.946 16.946 0 0 1-2.65-1.077l.097.045 9.638-19.304h-7.189V.495h22.067L88.91 23.05h.799zm29.299-10.518a5.095 5.095 0 0 0-1.242-1.752l-.004-.003a5.899 5.899 0 0 0-1.838-1.173l-.04-.014c-.669-.287-1.448-.454-2.267-.454s-1.597.167-2.305.468l.038-.015a5.754 5.754 0 0 0-3.098 2.907l-.015.035c-.302.629-.478 1.368-.478 2.147s.176 1.518.491 2.178l-.013-.031a5.747 5.747 0 0 0 3.074 2.928l.038.014c.669.287 1.448.454 2.267.454s1.597-.167 2.305-.469l-.038.015a5.937 5.937 0 0 0 1.881-1.19l-.003.003a5.103 5.103 0 0 0 1.233-1.721l.013-.033c.288-.632.456-1.37.456-2.147s-.168-1.516-.469-2.181l.013.033zm8.818 7.979a15.192 15.192 0 0 1-3.315 4.691l-.005.005a15.352 15.352 0 0 1-4.845 3.122l-.103.037c-1.795.72-3.876 1.137-6.054 1.137s-4.259-.418-6.167-1.177l.113.04c-3.684-1.487-6.586-4.265-8.199-7.761l-.039-.094c-.773-1.691-1.223-3.668-1.223-5.75s.45-4.059 1.259-5.838l-.036.089a15.085 15.085 0 0 1 3.315-4.681l.006-.006a16.172 16.172 0 0 1 4.81-3.118l.107-.04c1.792-.738 3.873-1.166 6.054-1.166s4.262.428 6.163 1.206l-.109-.039a16.132 16.132 0 0 1 4.947 3.166l-.009-.008a14.875 14.875 0 0 1 3.282 4.594l.038.093c.774 1.691 1.225 3.668 1.225 5.75s-.451 4.059-1.261 5.838l.036-.088h.011zM68.193 9.446v19.613h-9.389V9.446h-5.789V.494H73.93v8.95h-5.737zm-26.009.143a2.164 2.164 0 0 0-1.548-.65l-.052.001h.003-1.453v4.376h1.497c.608 0 1.158-.249 1.554-.65.408-.391.662-.94.663-1.548v-.001c0-.608-.254-1.158-.662-1.547l-.001-.001v.021zm6.494 9.436 6.536 9.981H45.13c-1.459-2.064-2.594-3.613-3.403-4.645a22.888 22.888 0 0 0-1.752-2.074l.009.009c-.362-.35-.581-.464-.643-.35a.693.693 0 0 0-.104.366v6.694H29.9V.495h11.433a9.384 9.384 0 0 1 3.994.899 11.124 11.124 0 0 1 3.352 2.333 10.687 10.687 0 0 1 2.39 3.431l.027.069c.525 1.27.789 2.632.778 4.005a10.895 10.895 0 0 1-.846 4.201l.027-.072a11.421 11.421 0 0 1-2.379 3.668l.003-.003zm-34.299-7.453-1.597 6.11h3.112l-1.514-6.111zm4.845 17.434-.903-3.272h-7.947l-.893 3.272H-.001L9.233.495h10.24l9.233 28.511h-9.481z"/></symbol><symbol id="icon-captain" viewBox="0 0 109 32"><path d="M4.888 31.04c-1.81 0-3.066-.368-3.786-1.115A5.167 5.167 0 0 1 .023 26.23l-.002.021V3.822A3.641 3.641 0 0 1 1.071.981a3.635 3.635 0 0 1 2.606-.97h-.006 8.203l1.08 5.818H6.979c-.37 0-.555.194-.555.602v18.23c0 .407.185.601.555.601h5.976l-1.12 5.818-6.948-.038zm16.204-3.878-.565 3.879H14.25L19.875.01h6.657l5.606 31.03H25.89l-.565-3.88h-4.233zm.68-4.926h2.92l-1.469-10.968-1.45 10.968zM46.114.01a3.537 3.537 0 0 1 2.774 1.028c.642.764.972 1.74.924 2.735V18.67c0 .571-.071 1.125-.204 1.654l.01-.047c-.126.488-.37.937-.71 1.309a3.476 3.476 0 0 1-1.349.866l-.024.007c-.692.231-1.42.34-2.15.32H40.06v8.262h-6.19V.01h12.243zM40.06 5.45v12.19h3.094c.253 0 .419-.05.487-.146a.803.803 0 0 0 .106-.498V17 6.043c0-.398-.185-.592-.555-.592h-3.133zM64.672.01 66.2 5.828h-4.146v25.213H55.7V5.828h-4.165L53.159.01h11.513zm6.667 27.152-.555 3.879h-6.277L70.093.01h6.667l5.625 31.03h-6.239l-.554-3.88h-4.253zm.7-4.849h2.92l-1.47-11.045-1.45 11.045zM84.127.01h6.228v31.03h-6.228V.01zm8.817 0h5.927l3.182 12.451V.011h6.404v31.03h-6.404l-3.348-12.965V31.04h-5.76V.01z"/></symbol><symbol id="icon-choc" viewBox="0 0 125 32"><path d="M28.675 25.78a18.006 18.006 0 0 1-5.858 4.423l-.109.046c-2.134 1.011-4.631 1.619-7.265 1.66h-.015C6.161 31.909 0 25.999 0 16.299c0-10 7.558-16 13.288-16a8.101 8.101 0 0 1 3.782.713l-.051-.021a8.146 8.146 0 0 1 2.992 2.292l.012.015L21.028.869h6.865V13.17h-7.789c-.131-2.819-1.528-5.469-4.633-5.469s-5.196 3.869-5.196 8.6c0 4.31 2.231 8.18 6.381 8.18 3.669 0 6.553-3.83 6.945-4.26l5.076 5.56zM44.596.83v5.74h-2.714v6.56h8.302V6.57h-2.573V.83h14.202v5.74h-2.512v18.91h2.513v5.74H47.611v-5.74h2.573v-6.57h-8.302v6.57h2.714v5.74H30.423v-5.74h2.413V6.57h-2.411V.83h14.172zm18.966 15C63.562 6.48 69.864 0 78.909 0c10.715 0 15.7 6.39 15.7 16.17S89.091 32 79.211 32c-9.137 0-15.65-5.26-15.65-16.13v-.04zm20.102.3c0-5.26-1.437-9.469-4.804-9.469-2.674 0-4.503 3.78-4.503 9.171 0 5.699 2.01 9.299 4.845 9.299s4.472-3.56 4.472-8.96l-.009-.04zm40.968 9.65a18.006 18.006 0 0 1-5.858 4.423l-.109.046c-2.134 1.011-4.631 1.619-7.265 1.66h-.015c-9.267 0-15.428-5.91-15.428-15.61 0-10 7.559-16 13.288-16a8.093 8.093 0 0 1 3.781.713l-.051-.021a8.146 8.146 0 0 1 2.992 2.292l.012.015 1.005-2.429h6.865V13.17h-7.83c-.131-2.819-1.528-5.469-4.633-5.469s-5.197 3.869-5.197 8.6c0 4.31 2.232 8.18 6.382 8.18 3.669 0 6.553-3.83 6.946-4.26l5.116 5.56z"/></symbol><symbol id="icon-cupcakes" viewBox="0 0 120 32"><path d="M31.875 4.067c.282.311.362.551.252.731s-.352.16-.714 0a2.695 2.695 0 0 0-1.118-.31h-.034c-.348 0-.667-.129-.91-.342l.002.001a7.274 7.274 0 0 0-2.513-1.624l-.05-.017a10.329 10.329 0 0 0-3.073-.678l-.032-.002a13.295 13.295 0 0 0-3.274.161l.079-.011c-.981.157-1.937.439-2.844.84a15.432 15.432 0 0 0-3.047 1.875l.032-.025a31.793 31.793 0 0 0-3.339 2.872l.003-.003a37.89 37.89 0 0 0-3.2 3.489l-.056.071a34.165 34.165 0 0 0-2.686 3.899l-.088.16a23.675 23.675 0 0 0-1.954 4.032l-.055.168a13.037 13.037 0 0 0-.783 4.079l-.001.022c-.022.338.074.673.27.95.185.232.427.411.704.52a3.3 3.3 0 0 0 .944.19c.305.015.61.015.915 0a12.615 12.615 0 0 0 3.102-.719l-.088.028a23.56 23.56 0 0 0 3.098-1.333l-.134.063a31.671 31.671 0 0 0 2.9-1.666l-.126.077a41.067 41.067 0 0 0 2.538-1.698l-.127.088c.724-.52 1.367-1 1.92-1.389s.954-.701 1.235-.88c.396-.29.858-.523 1.355-.672l.032-.008a2.442 2.442 0 0 0 1.014-.365l-.01.006 1.287-.82c.301-.17.483-.22.532-.15s0 .23-.261.46a47.426 47.426 0 0 1-3.322 3.204l-.055.047c-1.176 1.019-2.371 1.999-3.587 3a28.079 28.079 0 0 1-2.186 1.552l-.114.069a28.2 28.2 0 0 1-2.665 1.541l-.169.078c-.813.416-1.808.842-2.834 1.205l-.181.056a8.842 8.842 0 0 1-2.844.509 6.308 6.308 0 0 1-2.644-.475l.042.015a4.442 4.442 0 0 1-1.732-1.302l-.007-.008a5.456 5.456 0 0 1-.994-1.85l-.01-.039a7.617 7.617 0 0 1-.271-2.197v.008a13.4 13.4 0 0 1 .895-4.412l-.031.091a24.518 24.518 0 0 1 2.211-4.596l-.061.105a32.423 32.423 0 0 1 3.151-4.332l-.035.041a35.194 35.194 0 0 1 3.663-3.673l.044-.038a25.804 25.804 0 0 1 3.718-2.663l.121-.066a12.978 12.978 0 0 1 3.566-1.54l.092-.021a21.588 21.588 0 0 1 4.273-.448c2.579 0 5.012.62 7.16 1.719l-.089-.041a11.771 11.771 0 0 1 3.19 2.384l.005.005zM20.481 19.119c-.189.17-.396.331-.613.477l-.02.013c-.09 0-.131 0-.12-.051.036-.136.091-.267.16-.39.079-.139.15-.283.211-.429.173-.41.316-.89.406-1.388l.006-.043c.034-.369.18-.717.421-1l.734-.86c.331-.39.723-.82 1.186-1.28.478-.47.982-.918 1.508-1.34l.039-.03a10.693 10.693 0 0 1 1.779-1.14.997.997 0 0 1 .81-.057l-.007-.002c.29.084.563.219.804.4a1.9 1.9 0 0 1 .532.61.514.514 0 0 1-.002.572l.001-.002a18.43 18.43 0 0 1-1.125 1.83 37.728 37.728 0 0 0-1.398 2.061l-.1.168a28.904 28.904 0 0 0-1.273 2.223l-.083.177a9.886 9.886 0 0 0-.834 2.25c.738-.424 1.376-.89 1.958-1.418l-.009.008c.684-.611 1.357-1.28 2.01-2s1.316-1.46 2.01-2.211l1.779-2.08a.574.574 0 0 1 .667-.218l-.004-.001c.278.077.531.226.733.429.214.221.376.488.472.78a.998.998 0 0 1-.002.806l.003-.006a17.188 17.188 0 0 0-1.386 3.454l-.03.126a22.713 22.713 0 0 0 2.513-1.698l-.051.038a58.466 58.466 0 0 1 1.675-1.267l.204-.142c.141-.097.292-.173.453-.23l.502-.151c.244-.074.447-.152.643-.242l-.03.013c.234-.1.516-.24.844-.419.433-.231.664-.301.684-.231s-.11.27-.422.57c-.563.56-1.156 1.16-1.799 1.79a66.411 66.411 0 0 1-1.898 1.803l-.052.047c-.608.56-1.263 1.11-1.942 1.63l-.068.05c-.53.445-1.122.853-1.752 1.201l-.057.029a.709.709 0 0 1-.618.059l.005.002a2.3 2.3 0 0 1-.671-.306l.008.005a2.025 2.025 0 0 1-.539-.494l-.004-.005a.924.924 0 0 1-.21-.549v-.002a5.252 5.252 0 0 1 .023-1.247l-.003.028a43.376 43.376 0 0 1-2.042 1.966l-.038.034a18.8 18.8 0 0 1-2.349 1.693l-.083.047a1.648 1.648 0 0 1-.904.15 5.074 5.074 0 0 1-1.221-.24l.036.01a3.307 3.307 0 0 1-1.011-.555l.006.005a1.191 1.191 0 0 1-.433-.919v-.022.001a3.464 3.464 0 0 1 .178-1.314l-.007.024c.152-.486.329-.963.533-1.43.221-.5.462-1 .733-1.47l.744-1.37c-.483.46-.955.909-1.417 1.37-.438.436-.889.86-1.353 1.271l-.033.029zm19.434-3.85c-.633.74-1.226 1.38-1.729 1.94-.32.408-.754.713-1.246.88a5.126 5.126 0 0 1-.632 0 1.4 1.4 0 0 0-.664.21 3.839 3.839 0 0 0-.849.554l.005-.004c-.226.192-.475.38-.735.552l-.029.018c-.181.12-.211.07-.101-.13.111-.2.523-.741 1.207-1.6.051-.023 1.098-1.325 2.139-2.63l1.055-1.37a42.827 42.827 0 0 0 2.558-3.594l.105-.176a.492.492 0 0 1 .537-.169l-.004-.001c.236.053.463.141.674.26.248.117.472.284.653.49.181.21.261.379.231.53a19.511 19.511 0 0 0-.588 2.259l-.024.141a5.853 5.853 0 0 1 2.572-.997l.03-.003a2.61 2.61 0 0 1 1.452.277l-.015-.007c.463.221.89.51 1.266.86.34.309.63.665.863 1.059l.012.021c.189.281.291.611.291.95a3.873 3.873 0 0 1-.85 2.237l.006-.008a7.545 7.545 0 0 1-1.81 1.642l-.029.018c.813-.261 1.6-.595 2.351-1 .633-.36 1.166-.68 1.608-1s.824-.55 1.135-.76c.256-.195.565-.335.901-.398l.013-.002c.126-.013.255-.013.381 0a.785.785 0 0 0 .326-.082l-.005.002c.154-.073.286-.16.405-.262l-.002.002.653-.54c.181-.17.291-.23.342-.17s.051.12 0 .17a15.338 15.338 0 0 1-2.013 2.553l.003-.003a18.325 18.325 0 0 1-2.568 2.232l-.055.037a17.337 17.337 0 0 1-2.855 1.656l-.109.045a10.26 10.26 0 0 1-3.085.829 1.9 1.9 0 0 1-.706-.073l.013.003a8.639 8.639 0 0 1-1.065-.33l.06.02a4.335 4.335 0 0 1-.91-.461l.016.01a1.676 1.676 0 0 1-.549-.533l-.004-.007-.16.42c-.301.84-.613 1.699-.915 2.57a44.515 44.515 0 0 1-1.129 2.958l.124-.329a24.87 24.87 0 0 1-1.293 2.658l.066-.128a13.152 13.152 0 0 1-1.562 2.268l.015-.018a.593.593 0 0 1-.556.169l.004.001a1.13 1.13 0 0 1-.632-.378l-.001-.002a2.35 2.35 0 0 1-.478-.844l-.005-.017a2.91 2.91 0 0 1-.116-.825c0-.139.01-.276.028-.41l-.002.016a20.353 20.353 0 0 1 1.771-6.025l-.053.124a65.307 65.307 0 0 1 3.277-6.367l-.172.318c.121-.23.261-.46.403-.691.132-.224.276-.44.432-.649l.322-.97zm6.772-.95a4.691 4.691 0 0 0-2.93 1.125l.006-.005a11.57 11.57 0 0 0-2.161 2.419c.099-.54-.026-.047-.148.448l-.214 1.022c-.12.47-.25 1-.402 1.46l.221-.109a9.727 9.727 0 0 0 1.776-1.02l-.028.019a13.638 13.638 0 0 0 1.853-1.495l-.004.004a8.146 8.146 0 0 0 1.456-1.812l.021-.038a3.734 3.734 0 0 0 .552-2.019zm7.577 6.59a8.59 8.59 0 0 0 2.772-.559l-.059.02a15.5 15.5 0 0 0 2.652-1.27l-.07.039a21.739 21.739 0 0 0 2.415-1.674l-.043.033c.754-.6 1.437-1.16 2.01-1.7a.614.614 0 0 1 .444-.19h.019-.001c.12 0 .101.179-.081.46a5.417 5.417 0 0 0-.624 1.482l-.008.038a1.99 1.99 0 0 1-.366.925l.004-.006a11.75 11.75 0 0 1-.821.888l-.003.002c-.371.362-.766.697-1.187 1-.442.34-.914.669-1.396 1a7.185 7.185 0 0 1-1.406.713l-.051.017a7.214 7.214 0 0 1-1.326.42l-.051.009a7.617 7.617 0 0 1-1.512.21h-.015a3.34 3.34 0 0 1-1.187-.269l.022.008a5.219 5.219 0 0 1-1.278-.738l.011.008a6.465 6.465 0 0 1-1.005-1 1.825 1.825 0 0 1-.471-.991l-.001-.01a10.132 10.132 0 0 1 .245-3.609l-.015.07a11.392 11.392 0 0 1 1.235-3 8.672 8.672 0 0 1 1.994-2.318l.016-.012a8.48 8.48 0 0 1 2.593-1.451l.06-.018a1.723 1.723 0 0 1 1.088.004l-.012-.004a4.91 4.91 0 0 1 1.165.55c.342.221.65.491.915.8.211.225.337.514.362.82-.007.367-.103.71-.267 1.011l.006-.012c-.2.404-.424.795-.674 1.171-.261.4-.563.819-.874 1.25l-.904 1.22c-.281.36-.483.48-.613.379-.131-.099-.11-.37 0-.8.101-.28.171-.499.211-.659.035-.131.056-.282.061-.437V14.708a.992.992 0 0 0-.063-.35l.002.007a2.974 2.974 0 0 1-.097-.379l-.003-.021a1.484 1.484 0 0 1 .063-.591l-.003.011c.071-.217.155-.431.251-.64.101-.23.201-.47.301-.73.104-.258.182-.526.232-.8a5.355 5.355 0 0 0-2.005 1.425l-.005.006a10.44 10.44 0 0 0-1.621 2.369l-.027.061a11.187 11.187 0 0 0-1.005 2.931 6.816 6.816 0 0 0 .009 2.945l-.009-.045zm11.254-7a19.318 19.318 0 0 1 2.028-1.734l.052-.037a4.808 4.808 0 0 1 1.614-.792l.034-.008a2.14 2.14 0 0 1 1.411.114l-.014-.005a4.3 4.3 0 0 1 1.332.997l.003.004.583-.87a.572.572 0 0 1 .627-.189l-.004-.001c.303.048.593.164.844.34.251.16.461.376.613.63a.507.507 0 0 1-.001.631l.001-.001c-.253.35-.482.718-.683 1.101a17.938 17.938 0 0 0-.955 1.875l-.049.125c-.322.749-.704 1.49-1.005 2.23a8.646 8.646 0 0 0-.591 1.729l-.012.061a.357.357 0 0 0 0 .193l-.001-.003v.23a12.829 12.829 0 0 0 1.497-1 46.138 46.138 0 0 0 1.743-1.311l-.106.08 1.517-1.2 1.085-.88c.157-.122.335-.23.526-.314l.016-.006c.147-.066.299-.122.452-.17l.503-.18c.216-.081.423-.189.613-.32.151-.099.261-.13.322-.089s0 .14-.091.32c-1.005 1.32-2.009 2.6-3.175 3.849-.312.33-.653.71-1.005 1.14-.382.426-.8.821-1.246 1.18a5.549 5.549 0 0 1-1.359.807l-.037.014a2.22 2.22 0 0 1-.834.159c-.237 0-.465-.036-.68-.104l.016.004a2.86 2.86 0 0 1-1.795-.995l-.004-.004a2.17 2.17 0 0 1-.188-1.656l-.004.015a24.652 24.652 0 0 1-1.557 2.035l.029-.035a5.917 5.917 0 0 1-1.462 1.316l-.024.014c-1.739 1-3.015.669-3.909-1.1a3.309 3.309 0 0 1-.301-1.39l-.001-.124c0-.648.118-1.269.335-1.842l-.012.036c.3-.867.67-1.618 1.12-2.311l-.025.041a14.59 14.59 0 0 1 2.202-2.602l.009-.008v.01zm.533 6.25a48.48 48.48 0 0 0 2.77-3.278l.084-.113a71.574 71.574 0 0 0 2.409-3.349l.173-.271a2.005 2.005 0 0 0-1.233.325l.008-.005c-.503.299-.983.633-1.437 1-.472.371-.904.73-1.297 1.09-.284.238-.54.487-.777.753l-.006.007c-.315.36-.65.81-1.005 1.35a20.372 20.372 0 0 0-1.051 1.6l-.054.099c-.32.522-.596 1.071-.824 1.64a1.53 1.53 0 0 0-.149 1.151l-.002-.011c.152.23.392.17.744-.17l1.648-1.82zm28.74-3.77a2.35 2.35 0 0 1 .422-.18l.402-.109.493-.17c.19-.08.432-.19.713-.34s.522-.28.573-.211c.051.071 0 .231-.312.51a32.787 32.787 0 0 1-1.837 2.068l.008-.009a30.708 30.708 0 0 1-2.175 2.023l-.046.038a20.722 20.722 0 0 1-2.18 1.631l-.081.049a5.065 5.065 0 0 1-1.917.814l-.033.005a4.478 4.478 0 0 1-2.441-.301l.029.011a3.031 3.031 0 0 1-1.561-1.199l-.007-.011a3.412 3.412 0 0 1-.432-1.543v-.006a10.49 10.49 0 0 1 0-1.79c.058-.504.403-.915.865-1.067l.009-.003c.389-.177.768-.375 1.136-.59.43-.259.84-.55 1.225-.871a8.47 8.47 0 0 0 1.055-1.129c.328-.351.579-.766.733-1.221a6.639 6.639 0 0 0-2.272 1.23l.011-.009a17.941 17.941 0 0 0-1.945 1.726l-.004.004a26.475 26.475 0 0 0-1.74 1.95l-.039.05a64.918 64.918 0 0 0-1.536 1.967l-.132.183a34.635 34.635 0 0 0-1.212 1.696l-.085.134a16.33 16.33 0 0 1-.723 1.042l.03-.042a1.148 1.148 0 0 1-.776.549l-.007.001a2.193 2.193 0 0 1-1.783-.483l.003.003a.451.451 0 0 1-.15-.573l-.001.003 3.597-6.47a25.925 25.925 0 0 1-2.12 1.815l-.061.045a21.9 21.9 0 0 1-2.305 1.543l-.106.057c-.312.2-.613.39-.925.55s-.542.29-.703.371c-.161.079-.252.079-.252 0 0-.081.141-.231.422-.51a13.9 13.9 0 0 0 1.398-1.581 5.02 5.02 0 0 0 .673-1.2 2.79 2.79 0 0 1 .928-1.234l.007-.005 2.009-1.811a63.158 63.158 0 0 0 2.449-2.426l.023-.024a24.463 24.463 0 0 0 2.447-3.091l.056-.089c.482-1 1.005-2 1.396-3.07s.835-2.08 1.246-3.08c.07-.18.221-.24.452-.19.269.067.515.206.713.4.253.226.47.488.643.78.205.291.294.648.251 1a4.38 4.38 0 0 1-.251 1.219 7.376 7.376 0 0 1-.512 1.2l.019-.04c-.183.383-.38.711-.605 1.017l.012-.018c-.201.27-.371.48-.503.631-.221.509-.422 1-.593 1.32s-.331.71-.512 1c-.181.29-.362.68-.533 1s-.402.78-.653 1.26a14.32 14.32 0 0 1 1.929-1 5.161 5.161 0 0 1 2.216-.34l-.015-.001c.276.015.544.093.784.23.338.163.629.36.887.592l-.003-.003c.264.237.485.519.653.83.16.286.206.621.131.941a5.251 5.251 0 0 1-.706 1.498l.012-.018a8.307 8.307 0 0 1-1.164 1.429l-.001.001c-.436.406-.92.772-1.438 1.088l-.039.022a8.618 8.618 0 0 1-1.567.84c-.055.399.038.804.261 1.14.231.38.412.691.542.92a6.125 6.125 0 0 0 1.926-.765l-.027.015a28.77 28.77 0 0 0 2.157-1.41l-.086.059a52.432 52.432 0 0 0 1.974-1.463l-.125.094a8.403 8.403 0 0 1 1.266-.888l.041-.022v.01zm6.39-.84c-.305.439-.642.856-1.005 1.251-.413.429-.853.834-1.316 1.21a11.32 11.32 0 0 1-1.338.972l-.048.028c-.389.261-.817.46-1.267.589 0 .281.02.563.061.84.026.247.112.484.251.691a.818.818 0 0 0 .807.45h-.003a2.708 2.708 0 0 0 1.005-.3 13.837 13.837 0 0 0 1.848-1.13 22.458 22.458 0 0 0 1.885-1.482l-.025.022a40.433 40.433 0 0 0 1.781-1.663l-.003.003a77.52 77.52 0 0 0 1.558-1.589l.03-.031c.201-.2.352-.269.442-.211.09.061.081.19 0 .371a15.56 15.56 0 0 0-.633 1.63c-.141.46-.261.84-.361 1.149a3.267 3.267 0 0 1-.442.851c-.278.419-.583.82-.915 1.2a12.84 12.84 0 0 1-1.287 1.3 7.364 7.364 0 0 1-1.546 1.06l-.042.019a5.207 5.207 0 0 1-1.804.548l-.025.002a4.127 4.127 0 0 1-2.038-.27l.028.01a3.657 3.657 0 0 1-2.009-1.6 4.834 4.834 0 0 1-.633-2.315v-.005a7.553 7.553 0 0 1 .397-2.632l-.016.053c.252-.825.589-1.624 1.005-2.381.213-.384.455-.751.723-1.1a12.4 12.4 0 0 1 1.005-1.18 8.53 8.53 0 0 1 1.106-1 2.445 2.445 0 0 1 1.095-.48c.467-.004.926.109 1.336.33.431.185.831.435 1.186.74.264.268.415.625.422 1a2.34 2.34 0 0 1-.177 1.085l.006-.015a6.652 6.652 0 0 1-.532 1l-.513.979zm-4.21 1.32a15.743 15.743 0 0 0 1.669-1.899l.029-.041a9.776 9.776 0 0 0 1.262-2.224l.024-.066a3.534 3.534 0 0 0-.709.645l-.005.006a8.111 8.111 0 0 0-.664.88c-.211.3-.402.6-.573.889s-.322.531-.422.711l-.613 1.1zm21.232-1c.413-.3.643-.429.694-.36s-.091.28-.422.66a63.47 63.47 0 0 1-1.957 2.262l.047-.053a40.24 40.24 0 0 1-1.997 2.068l-.012.012a22.011 22.011 0 0 1-1.958 1.691l-.052.039a8.187 8.187 0 0 1-1.954 1.121l-.055.02a2.9 2.9 0 0 1-1.016 1.326l-.009.006a2.88 2.88 0 0 1-1.594.538h-.004l-.138.002a4.225 4.225 0 0 1-1.598-.312l.028.01a4.606 4.606 0 0 1-1.569-1.001l.001.001a3.296 3.296 0 0 1-.373-.486l-.008-.014a2.278 2.278 0 0 1-.278-.624l-.004-.016a1.458 1.458 0 0 1-.06-.658l-.001.008a.802.802 0 0 1 .339-.538l.003-.002a.76.76 0 0 1 .481-.17h.684c.241 0 .472 0 .693.08l.513.09h1.005a5.62 5.62 0 0 0 .935-.07c.08-.381.121-.771.12-1.16V17.19c0-.7-.1-1.4-.171-2.11a37.264 37.264 0 0 1-2.878 2.781l-.046.039a84.51 84.51 0 0 1-2.675 2.222l-.179.138c-.362.28-.523.32-.503.131.061-.258.181-.498.352-.7.176-.232.328-.48.452-.741.126-.256.237-.52.332-.789l.241-.68c.061-.178.168-.337.312-.46.332-.33.884-1 1.668-1.86a25.812 25.812 0 0 0 2.434-3.57l.068-.13a.461.461 0 0 1 .496-.23l-.003-.001c.246.034.483.119.693.25.232.141.443.309.633.5.151.122.262.286.322.47.231 1.35.442 2.74.632 4.19.189 1.415.222 2.846.101 4.269a7.736 7.736 0 0 0 1.518-1.009l-.011.009c.522-.42 1.005-.851 1.528-1.28s1.005-.84 1.437-1.22a6.287 6.287 0 0 1 1.23-.823l.036-.017c.171-.079.423-.181.679-.274l.084-.027c.265-.088.514-.22.733-.39v-.01z"/></symbol><symbol id="icon-architecture" viewBox="0 0 32 32"><path d="M30.827 2.639C31.552 3.364 32 4.366 32 5.472s-.448 2.108-1.173 2.833L27.3 11.833l-7.134-7.131 3.529-3.529C24.421.448 25.422 0 26.529 0s2.109.448 2.834 1.173l1.464 1.466zM2.809 22.064 18.75 6.118l7.134 7.13L9.934 29.19c-.41.409-.92.718-1.489.888l-.025.006-6.506 1.859a1.414 1.414 0 0 1-1.472-.436l-.002-.002a1.373 1.373 0 0 1-.38-1.43l-.003.01 1.86-6.507a3.485 3.485 0 0 1 .891-1.514zm12.796-15.63L6.47 15.569 1 10.094C.456 9.551.12 8.801.12 7.972S.456 6.393 1 5.85L5.885.965c.543-.543 1.293-.88 2.122-.88s1.579.336 2.122.879L11.368 2.2c-.019.018-.044.038-.063.058L7.299 6.264a1 1 0 0 0 1.414 1.414l4.006-4.003c.019-.02-.013-.041.056-.063l2.828 2.822zm12.782 12.79a.56.56 0 0 0-.062.056l-4.005 4.004a1 1 0 0 0 1.414 1.414l4.005-4.005c.019-.075-.013-.044.056-.062l1.239 1.239c.543.543.878 1.293.878 2.121s-.336 1.578-.878 2.121l-4.887 4.886c-.543.543-1.293.878-2.121.878s-1.578-.336-2.121-.878l-5.475-5.469 9.135-9.134 2.821 2.828z"/></symbol><symbol id="icon-construction" viewBox="0 0 28 32"><path d="M14.118 20a8.051 8.051 0 0 0 5.328-2.013l-.009.008a7.945 7.945 0 0 0 2.644-4.955l.004-.04H6.152A7.951 7.951 0 0 0 8.8 17.994 8.045 8.045 0 0 0 14.118 20h.001zm-8.572-9H22.69a.51.51 0 0 0 .504-.5v-2a.498.498 0 0 0-.149-.352.51.51 0 0 0-.356-.147h-.505v-.002a6.925 6.925 0 0 0-1.189-3.892l.016.025a7.092 7.092 0 0 0-3.089-2.564l-.046-.017-1.742 3.45V.998A1 1 0 0 0 15.13.001h-2.024c-.277 0-.528.111-.711.292A.994.994 0 0 0 12.1 1v4.001l-1.739-3.454a7.11 7.11 0 0 0-3.119 2.559l-.016.025a6.907 6.907 0 0 0-1.176 3.87h-.504a.504.504 0 0 0-.505.5v1.944a.515.515 0 0 0 .297.507l.003.001c.064.03.133.046.203.048zm14.29 11H8.398a8.413 8.413 0 0 0-5.938 2.442l.001-.001A8.274 8.274 0 0 0 0 30.332c0 .442.177.866.492 1.178.305.302.725.488 1.188.488h24.875c.446 0 .873-.176 1.189-.488.304-.301.492-.718.492-1.179v-.002c0-1.15-.235-2.245-.659-3.241l.02.054a8.374 8.374 0 0 0-1.82-2.703l-.001-.001a8.411 8.411 0 0 0-2.67-1.786l-.055-.021a8.314 8.314 0 0 0-3.213-.634h-.002z"/></symbol><symbol id="icon-design" viewBox="0 0 32 32"><path d="M0 2a2 2 0 0 1 2-2h8a2 2 0 0 1 2 2v24a6 6 0 1 1-12 0V2zm8 2H4v4h4V4zM4 16h4v-4H4v4zm2 11.5a1.5 1.5 0 1 0-1.501-1.501v.004c0 .826.67 1.496 1.496 1.496h.004zm8-1.5V9.625l4.712-4.711c.362-.362.863-.586 1.416-.586s1.053.224 1.416.586l5.656 5.655c.362.362.586.863.586 1.416s-.224 1.053-.586 1.416L13.975 26.62c.019-.2.025-.413.025-.619zm9.425-6H30a2 2 0 0 1 2 2v8a2 2 0 0 1-2 2H11.425l12-12z"/></symbol><symbol id="icon-documentation" viewBox="0 0 24 32"><path d="M20 0H4a4 4 0 0 0-4 4v24a4 4 0 0 0 4 4h16a4 4 0 0 0 4-4V4a4 4 0 0 0-4-4zm-7 22H5a1 1 0 0 1 0-2h8a1 1 0 0 1 0 2zm6-6H5a1 1 0 0 1 0-2h14a1 1 0 0 1 0 2zm0-6H5a1 1 0 0 1 0-2h14a1 1 0 0 1 0 2z"/></symbol><symbol id="icon-energy" viewBox="0 0 24 32"><path d="M15.043 14h7.004c.83 0 1.535.536 1.787 1.281l.004.013c.102.226.161.49.161.768a1.9 1.9 0 0 1-.659 1.442l-.002.002-16.013 14a2.003 2.003 0 0 1-3.248-.958l-.003-.014a1.995 1.995 0 0 1 .097-1.333l-.005.013 4.81-11.213h-7.03a2.003 2.003 0 0 1-1.824-1.308l-.004-.014a1.998 1.998 0 0 1 .565-2.182l.002-.002 16.012-14a2.003 2.003 0 0 1 3.246.96l.003.014a2 2 0 0 1-.091 1.319l-4.812 11.213z"/></symbol><symbol id="icon-planing" viewBox="0 0 32 32"><path d="M22 6v.013c0 .907-.203 1.767-.566 2.536l.015-.036 3.3 5.7a11.942 11.942 0 0 1-5.441 3.329l-.084.021-3.225-5.562h-.056l-4.2 7.344c1.27.416 2.732.656 4.251.656h.037c4.412 0 8.342-2.063 10.878-5.277l.022-.029a2.016 2.016 0 0 1 3.115 2.559l.003-.004C26.719 21.375 21.666 23.993 16 24H15.978c-2.253 0-4.409-.415-6.396-1.173l.123.041-3.541 6.113a3.03 3.03 0 0 1-1.238 1.173l-.017.008-3.464 1.731a1 1 0 0 1-1.448-.894v-3.462a3.016 3.016 0 0 1 .412-1.521l-.008.014 3.75-6.475c-.8-.706-1.522-1.46-2.176-2.271l-.027-.035a2.017 2.017 0 0 1 3.118-2.559l.003.003a9.46 9.46 0 0 0 1.135 1.309l.003.003 4.34-7.494a5.913 5.913 0 0 1-.55-2.51 6 6 0 0 1 12-.003zm-6 2a2 2 0 1 0 0-4 2 2 0 1 0 0 4zm7.256 16.619a19.485 19.485 0 0 0 5.634-3.33l-.028.023 2.731 4.719c.266.457.406.977.406 1.506V31a1 1 0 0 1-1.456.89l.006.003-3.463-1.732a3.073 3.073 0 0 1-1.249-1.167l-.008-.014-2.574-4.362z"/></symbol></defs></svg>