<svg version="1.0" xmlns="http://www.w3.org/2000/svg" width="682.667" height="682.667" viewBox="0 0 512 512"><path d="M299.3 8.8c-1.8.3-2.3 1.2-2.8 5.7-.7 5-.9 5.4-3.8 6.1-2.8.6-3.5.2-6.7-3.7l-3.7-4.3-4.9 2.9c-2.7 1.5-5 2.9-5.2 3-.1.1.7 2.7 1.7 5.7 1.9 5.5 1.9 5.6-.1 7.6s-2.1 2-7.6.1c-3-1-5.6-1.8-5.7-1.7-.1.2-1.5 2.5-3 5.2l-2.8 4.8 4.1 3.5c4 3.3 5.2 6.3 3.4 8.9-.4.6-2.9 1.5-5.7 2l-5 .9-.3 6.1-.3 6.1 6 1.3c5.4 1.1 5.9 1.5 6.3 4.1.3 1.6.2 2.9-.1 2.9-.3.1-2.3 1.6-4.4 3.4l-3.8 3.4 2.6 4.8c1.4 2.6 2.7 4.9 2.9 5.2.2.2 2.9-.4 6-1.4 5.4-1.7 5.6-1.7 7.4.2 1.8 1.8 1.8 2 0 7.3-2 6-2.2 5.6 4.7 9.3l3.9 2.1 3.8-4.4c3.4-3.9 3.9-4.2 6.5-3.3 2.3.8 2.9 1.7 3.7 5.9.5 2.8 1.2 5.2 1.7 5.5.4.3 3.2.6 6.1.5h5.3l1.2-5.4c1.8-8.4 4.9-9.3 10.4-2.9l3.7 4.2 3.4-1.8c7.2-3.9 7.3-4 5.4-8.9-2-5.3-2-6.4 0-8.4 1.4-1.5 2-1.5 7 .1 3 .9 5.8 1.5 6.2 1.2.4-.2 1.8-2.6 3.1-5.2l2.4-4.7-4.2-3.4c-6.4-5.4-5.4-8.8 3-10.6l5.4-1.2v-5.8c0-5-.2-5.8-2-6.3-3.1-.8-5.8-1.2-7.7-1.3-1-.1-1.9-1.3-2.3-3.1-.6-2.6-.1-3.4 3.5-6.8l4.2-3.9-2.7-4.9c-1.5-2.7-2.8-5-2.9-5.1-.1-.1-2.6.7-5.6 1.7-5.4 1.8-5.5 1.8-7.6-.1l-2.2-2 2-5.5c1.1-3.1 1.8-5.7 1.6-5.8-.1-.2-2.4-1.5-5.1-3.1l-4.7-2.7-3.9 4.3c-3.6 4-4.1 4.3-6.7 3.4-2.5-.9-3-1.8-3.8-6.3-.5-2.8-1.4-5.2-2-5.3-5.1-.3-7.4-.4-9.3-.1zm6.6 7.9c.6 2.1 1.1 4.6 1.1 5.5 0 1 .8 1.8 1.8 1.8.9.1 3.5.7 5.6 1.5l3.9 1.4 3.7-4c2.4-2.7 4.2-3.8 5.2-3.4 1.5.6 1.5 1.1-.1 5.8l-1.8 5.2 4.2 4.3 4.3 4.3 4.6-1.6c3.9-1.3 5-1.4 6.3-.4 1.3 1.1 1 1.8-2.7 4.9l-4.3 3.6 1.4 5.5c1.5 6.2 1.8 6.5 7.5 7.4 4.1.6 6.4 2.8 4.3 4.1-.6.3-2.5.8-4.2 1.1-5.2.8-6.3 1.9-7.6 7.5l-1.2 5.3 3.9 3.5c3.1 2.7 3.8 4 3.1 5.2-.8 1.5-1.3 1.4-5.8-.2l-4.8-1.9-4.2 4c-4.6 4.4-4.7 4.9-2.6 10.8 1.3 3.8 1.3 4.2-.2 4.8-1.1.4-2.8-.7-5.3-3.3l-3.7-3.9-5.4 1.5c-5.3 1.6-5.4 1.7-6.4 6.4-.6 2.6-1.8 5.2-2.7 5.7-1.8 1-2.3.2-3.3-6.1-.7-4.2-.9-4.3-6.1-5.8-5.8-1.7-6.1-1.6-9.8 2.4-2.2 2.4-3.9 3.5-4.9 3.1-1.4-.5-1.4-1.1.1-5.7l1.6-5-4.3-4.4-4.3-4.4-5.4 1.8c-4.9 1.7-5.3 1.7-5.6.2-.2-1 1.3-3.2 3.6-5.3l3.9-3.5-1.6-4.6c-.8-2.6-1.3-4.9-1-5.2.9-.9-4.9-2.8-10.9-3.5-.3-.1-.5-.9-.4-1.9.2-1.2 1.7-2 5.2-2.6 2.7-.5 5-1 5.2-1.1.1-.1.9-2.8 1.7-6l1.5-5.7-4-3.7c-2.9-2.6-3.8-4-3.1-5 .7-1.1 1.7-1.1 6 .4l5 1.6 4.4-4.4c3.7-3.8 4.2-4.8 3.4-6.8-2.4-6.3-2.6-8-1-8.6 1.1-.4 2.8.7 5.2 3.5l3.6 4.1 5.5-1.7c5.1-1.6 5.5-2 6.3-5.7 1.3-6 1.5-6.5 3.1-6.5.9 0 1.9 1.6 2.5 3.7z"/><path d="M294.5 33.8c-16.1 5.5-24.3 23.4-17.8 38.9 6.2 14.8 24.8 22 39.1 15.2 17.7-8.6 22.3-31.3 9.3-46.2-7-7.9-20.4-11.3-30.6-7.9zM187.7 14.3c-1.5 1-1.6 1.5-.5 3 1.8 2.4 4.8 1.2 4.8-1.9 0-2.6-1.7-3.1-4.3-1.1zM197.1 16.3c-1.5 1.5-1.4 3.2.2 4.5 1.7 1.4 4.9-1 4.1-3.1-.8-2.1-2.9-2.8-4.3-1.4zM180.6 20.6c-1.3 3.5-.7 5.1 1.8 4.7 3.4-.7 3.9-2.9 1.1-4.7-2.1-1.4-2.4-1.4-2.9 0zM198.7 27c-.7 2.6 3.1 5 4.4 2.9.5-.8.9-2.2.9-3.2 0-2.5-4.6-2.3-5.3.3zM183 30.5c-1 1.2-1 1.8 0 3 2.4 2.9 5.8.7 4.4-3-.4-.8-1.2-1.5-1.9-1.5s-1.8.7-2.5 1.5zM192 34.5c0 2 .5 2.5 2.4 2.5 3 0 4.2-1.6 2.6-3.5-2.1-2.5-5-1.9-5 1zM106.6 35.5C100 37.8 97 42 97 49c0 10.3 10.9 17 20.3 12.5 4.5-2.2 6.9-6 7.5-11.6 1-10.2-8.5-17.7-18.2-14.4zM397.3 39.8c-.9.5-.9 1.2 0 2.8 1.6 2.9 5.8 1.6 5-1.5-.5-2.1-2.8-2.7-5-1.3zM407.5 42c-1.2 3.8 2 5.5 4.6 2.4 1.1-1.4 1-1.8-.6-3-2.5-1.9-3.2-1.8-4 .6zM388.5 45c-1 1.1-1.6 2.1-1.4 2.3.2.1 1.1.8 2 1.5 1.3 1 1.9.8 3.3-.6 1.5-1.8 1.5-2-.2-3.5-1.8-1.6-2-1.6-3.7.3zM415 48.5c-1.8 2.1-.4 5.4 2.1 4.8 2.7-.7 3.2-1.9 1.9-4.3-1.3-2.4-2.3-2.5-4-.5zM383.6 54.3c-.9 3.4-.8 3.7 1.9 3.7 1.6 0 2.5-.6 2.5-1.5 0-.8 0-1.8.1-2.2 0-.4-.8-1-1.9-1.4-1.5-.6-2.1-.3-2.6 1.4zM416 60.5c0 1.4.4 2.5.9 2.5s1.6.2 2.3.5c.9.4 1.4-.4 1.6-2.5.2-2.6-.1-3-2.3-3-2 0-2.5.5-2.5 2.5zM188.9 62.2c-.1.7-.1 1.6 0 2.1.1.4-1 1.3-2.4 1.9-2 .9-2.8.8-4.4-.6-2.6-2.4-5.4-1.1-4.6 2.2.8 3.4-2 6.5-4.6 5.1-3.7-1.9-5.6 2.2-2.2 4.6 1.4 1.1 1.5 1.7.5 3.9-.7 1.6-1.7 2.4-2.6 2-1.9-.7-2.9 1.1-2.1 3.7.4 1.2 1.2 1.8 2.1 1.5.9-.4 1.9.4 2.6 2 1 2.2.9 2.8-.6 3.9-1.2 1-1.6 2-1.1 3.5.5 1.7 1.2 2 3.2 1.5 3.6-.9 6.7 2 5.2 4.8-.8 1.5-.8 2.2.2 2.8 2 1.3 3 1.1 4.4-.8 1.1-1.5 1.7-1.5 3.9-.5 1.7.7 2.6 1.9 2.4 2.9-.2 1 .5 1.9 1.6 2.1 2 .4 3.8-1.6 3.2-3.4-.7-1.9 4.7-2.5 6.1-.7.7.9 1.9 1.2 3.2.8 2.2-.7 2.8-2.9 1-4-.7-.5-.4-1.4.8-2.7 1.3-1.4 2.5-1.8 4.6-1.4 3.5.7 4.7-1.6 2.3-4.3-2.3-2.6-1.2-6.8 1.7-6.7 1.6.1 2.2-.5 2.2-2.2 0-1.2-.2-2.1-.5-2-.3.1-1.5-.4-2.7-1.1-2.8-1.4-3-4.5-.4-6.3 1.7-1.2 1.7-1.6.5-3.3-1.2-1.6-1.8-1.7-3.2-.8-2.4 1.4-6.5-1.6-5.1-3.8 2.2-3.4-1-6.2-4.1-3.4-2 1.8-4.4 1.9-5.8.2-1-1.2-1.2-1.8-1.2-3.7 0-1.5-4-1.2-4.1.2zm8.2 10.2c7.2 3 10.9 12.9 7.5 20-6.8 14.3-28.6 9.4-28.6-6.4 0-10.8 11-17.8 21.1-13.6z"/><path d="M187 78.2c-3.3 1.8-5.1 5.6-4.4 9.3.8 4.1 3.3 6.5 7.7 7.2 3.1.5 4 .1 6.7-2.6 2.7-2.6 3.1-3.7 2.7-6.7-.3-2-1.3-4.5-2.4-5.5-2.4-2.5-7.2-3.2-10.3-1.7zM386.3 63c-2 .8-2.2 1.2-1.1 3.5 1.3 2.9 1.6 3 4.1 1.1 1.5-1.2 1.6-1.8.7-3.5-.6-1.2-1.2-2.1-1.3-2-.1 0-1.2.4-2.4.9zM412.1 67.3c-1.5 1.5-1.4 3.2.4 4.7 1.1 1 1.8.9 3-.3 2-2 1.9-3-.4-4.4-1.4-.9-2.1-.9-3 0zM392.5 71.2c-1.4 2.1-1.3 2.3.8 3.5 1.8 1 2.4.9 3.5-.4 1.6-2.2 1.5-2.6-.8-4-1.6-1.1-2.1-.9-3.5.9zM403.8 72.1c-1 .5-1.8 1.9-1.8 2.9 0 2.1 2.4 2.6 4.9 1.1 1-.7 1.1-1.3.2-3-.7-1.1-1.3-2.1-1.4-2.1-.1 0-1 .5-1.9 1.1zM127.5 77.5c-3 2.9-2.2 6.5 1.9 8 2.2.7 3 .5 4.8-1.3 1.8-1.8 2-2.6 1.3-4.8-1.5-4.1-5.1-4.9-8-1.9zM336.2 136.9l-44.3 44.4-15.9-15.8c-8.8-8.8-16.2-15.7-16.4-15.5-.3.3-8.1 8.1-17.4 17.3l-16.9 16.8-4.6-4.8c-14.9-15.5-53.6-53.3-54.6-53.3-.5 0-8.9-3.9-18.7-8.6-28.8-13.9-36.6-17.5-36.9-17.2-.1.2 3.6 8.2 8.2 17.8 4.7 9.6 10.9 22.5 13.8 28.7l5.4 11.2 19.8 20c10.9 10.9 21.1 21.5 22.6 23.5 1.6 2 3.2 3.6 3.7 3.6s3.1 2.2 5.8 4.9l4.9 4.9-6.1 6c-3.4 3.3-11.2 11.1-17.4 17.4L160 249.6l15.5 15.4c8.5 8.5 15.5 15.9 15.5 16.4 0 .5-19.8 20.7-44.1 44.9l-44 44 18.1 18.2 18.2 18.2 44.5-44.4 44.6-44.5 15.1 15.1c8.3 8.3 15.5 15.4 15.9 15.8.4.4 8.5-7.1 18-16.5l17.3-17.3 5 5.2c2.7 2.9 6.6 6.8 8.8 8.8 2.1 2 20.4 20.1 40.6 40.3 39.6 39.6 40 39.9 46.6 36.5 1.6-.8 7.1-5.8 12.2-11.1 8.1-8.4 9.2-9.9 9.2-13.1 0-2-.5-4.6-1.2-5.8-.6-1.2-17.1-18.2-36.7-37.8-19.6-19.5-37.1-37.4-39-39.7-1.8-2.3-3.7-4.2-4.2-4.2-.9 0-9.9-8.9-9.9-9.9 0-.3 7.7-8.2 17-17.6l17-17-15.5-15.5c-8.5-8.5-15.5-15.8-15.5-16.2 0-.5 19.2-20.1 42.8-43.6 23.5-23.6 43.2-43.5 43.9-44.3 1-1.3-1.9-4.6-17-19.5l-18.2-18-44.3 44.5zm-211.5-25.1c1 .7 1 1.2 0 2.6-1.2 1.7-1.4 1.6-2.5-.8-1.2-2.7-.1-3.5 2.5-1.8zm29.7 14.6c4.3 2 7.7 3.9 7.5 4.1-.2.2-5.1 5.2-10.8 10.9l-10.4 10.5-2.2-4.7c-1.2-2.6-4.6-9.6-7.4-15.6l-5.2-10.9 2.7-2.8 2.7-2.8 7.6 3.9c4.2 2.1 11.2 5.4 15.5 7.4zm221.4 239.3-11.6 11.6-4.6-4.9-4.6-4.8 11.6-11.7 11.6-11.6 4.6 4.9 4.6 4.9-11.6 11.6zm20.4-3.1 4.7 4.6-11.4 11.6-11.5 11.5-2.2-1.9c-1.2-1-3.4-3.2-4.9-4.9l-2.7-2.9 11.2-11.3c6.1-6.2 11.3-11.3 11.6-11.3.3 0 2.7 2.1 5.2 4.6zM454.5 106.9c-18.5 8.6-24.9 31.3-13.4 48.1 11.2 16.4 34 19.1 48.8 5.8 17.2-15.4 13-43.9-7.9-53.7-8.2-3.9-19.3-4-27.5-.2z"/><path d="M253.2 118.3c-3.4 3.4-6.2 6.6-6.2 7 0 1.1 11.9 12.7 13 12.7 1.2 0 13-11.5 13-12.7 0-.9-12.2-13.3-13.1-13.3-.2 0-3.3 2.8-6.7 6.3zm10.1 3.7 3.2 3-3.3 3.2-3.2 3.3-3.2-3.2-3.2-3.3 2.9-3c1.6-1.6 3-3 3.2-3 .2 0 1.8 1.3 3.6 3zM79 120c-3.3 3.1-4.7 6.9-2.9 8 1.4.9 3.9.2 3.9-1.1 0-1.8 4.1-4.9 6.5-4.9 1.3 0 3.4 1 4.5 2.2 2.8 3 2 6-3.1 11.5-2.9 3.2-3.9 5.1-3.9 7.6 0 2.9.3 3.4 2.3 3.3 1.6-.1 2.3-.8 2.5-2.7.2-1.6 2-4.2 4.3-6.3 2.1-2 3.9-4.2 4-4.9 0-.7.2-2.3.5-3.5.6-3.4-2.4-9-5.7-10.8-4.2-2.1-9.6-1.5-12.9 1.6zM39.2 129.2c-1.6 1.6-1.5 2.6.2 4.4 1.8 1.8 2.4 1.8 4.2-.1 1.7-1.6 1.2-3-1.5-4.4-1.2-.7-2.2-.6-2.9.1zM48.5 130c-1.8 1.9-1.8 2.2-.2 3.7 1.6 1.6 1.8 1.6 3.7-.3 2-2 2-2.1.2-3.7s-2-1.6-3.7.3zM245.7 135.8c-1.5 1.7-1.5 1.9.2 3.4 1.8 1.5 2.1 1.5 3.6-.2 1.6-1.7 1.6-2.1.2-3.5-1.9-1.9-2-1.9-4 .3zM270.2 135.6c-1.2 1.3-1.1 1.8.4 3.5 1.6 1.8 1.8 1.8 3.6.2 1.7-1.5 1.7-1.7.2-3.5-2-2.2-2.5-2.2-4.2-.2zM39.7 138.8c-2.2 2.4-2.1 3.8 0 4.6 1 .4 2.4-.1 3.6-1.3 1.8-1.8 1.9-2.1.4-3.5-2-2-2-2-4 .2zM48.2 138.2c-1.8 1.8-1.5 3.6 1 4.9 1.8 1 2.4.8 3.5-.7s1-2-.7-3.6c-2.3-2.1-2.3-2.1-3.8-.6zM238.7 142.8c-1.6 1.8-1.6 2 .1 3.5 1.8 1.6 2 1.6 3.5-.1 1.6-1.8 1.6-2-.1-3.5-1.8-1.6-2-1.6-3.5.1zM277.7 142.8c-1.6 1.8-1.6 2 .1 3.5 1.8 1.6 2 1.6 3.5-.1 1.6-1.8 1.6-2-.1-3.5-1.8-1.6-2-1.6-3.5.1zM231.7 149.8c-1.6 1.8-1.6 2 .1 3.5 1.8 1.6 2 1.6 3.5-.1 1.6-1.8 1.6-2-.1-3.5-1.8-1.6-2-1.6-3.5.1zM284.7 149.8c-1.6 1.8-1.6 2 .1 3.5 1.8 1.6 2 1.6 3.5-.1 1.6-1.8 1.6-2-.1-3.5-1.8-1.6-2-1.6-3.5.1zM84.1 152.9c-1.3 2.3 0 4.1 2.4 3.7 1.3-.2 2-1.1 2-2.6 0-2.8-3.1-3.6-4.4-1.1zM224.4 157.1c-1.8 2-1.8 2.1.1 3.5 2.4 1.8 2.8 1.8 4.2-.5 1-1.5.9-2.2-.6-3.5-1.6-1.5-1.9-1.5-3.7.5zM291.7 156.8c-1.6 1.8-1.6 2 .2 3.7 1.8 1.6 2.1 1.6 3.6.1 1.5-1.4 1.5-1.7-.3-3.6-1.8-2-1.9-2-3.5-.2zM15.3 163.7c-2.4.5-6.3 4.7-6.3 6.9 0 2 3.7 1.7 5.9-.5 2.4-2.4 6.1-1.7 6.1 1.1 0 1.1-1.3 3.6-3 5.5-3.8 4.3-4.1 8.3-.5 8.3 1.7 0 2.5-.5 2.5-1.8 0-.9 1.4-3 3-4.5 6.8-6.4 1.4-16.7-7.7-15zM217 164.6c-1.1 1.2-1 1.8.3 3.1 1.5 1.5 1.8 1.5 3.6-.1 1.7-1.6 1.8-2 .6-3.2-1.8-1.8-3-1.8-4.5.2zM298.6 164.7c-.4.9 0 2.3.9 3.2 1.3 1.4 1.7 1.4 3.2-.1 1.3-1.4 1.4-2 .3-3.2-1.6-2.1-3.6-2-4.4.1zM67.7 169.5c-4.6 1.6-6.4 3-8.3 6.7-1.4 2.6-1.9 2.9-4.7 2.2-5.1-1.2-8.9-.5-12.9 2.1-5.4 3.6-7.2 7.6-6.5 14.7.5 5.5.3 6-1.8 6.8-3 1.1-6.3 5.4-7.5 9.9-1.1 4.3 0 9.6 3 13.3 3.7 4.8 7.1 5.6 24.3 5.8 18.2.1 21.8 1 25.7 6.7 2.3 3.4 2.5 4.7 2.8 17.3l.3 13.6 3.2-.1 3.2-.1.5-13.4c.4-11.1.9-14.1 2.5-16.8 2.2-3.6 8.6-7.2 12.8-7.2 3.8 0 8.8-2.3 11.4-5.1 5.9-6.6 4.4-18.4-3-22.9-3-1.9-3.1-2.2-3.2-8.9 0-7.7-1.7-11.2-7.1-14.3-3-1.8-9.4-2.4-13-1.3-1.7.5-2.5-.1-4.2-2.9-3.5-5.8-10.8-8.4-17.5-6.1zM426.5 184c-2.7 2.8-2.9 2.9-5.8 1.4-3.7-2-10.6-2-14.3-.1-8.2 4.3-11.8 14.2-7.8 21.9 1.5 3 1.5 3.1-1.5 6.2-3.5 3.6-3.9 5.1-1.4 6 1.1.4 2.8-.4 4.9-2.5 2.9-2.8 3.5-3 5-1.8 1 .8 4.1 1.4 7.9 1.4 5.3 0 6.7-.4 9.9-2.9 6.3-4.8 8.6-13.9 5.2-20.3-1.4-2.7-1.3-2.9 1.6-6 1.9-1.9 2.8-3.8 2.5-4.7-.9-2.4-3-1.9-6.2 1.4zm-8.5 6c1.2.8 0 2.4-6.2 8.7-4.3 4.2-8 7.4-8.3 7.1-1.5-1.5-1.5-7 0-10.2 2.5-5.2 10.4-8.3 14.5-5.6zM15 192c0 2.2.4 2.7 2.3 2.6 1.7-.1 2.2-.7 2.2-2.6 0-1.9-.5-2.5-2.2-2.6-1.9-.1-2.3.4-2.3 2.6zM174.6 206.9c-1.6 1.7-1.6 2 0 3.5 1.5 1.6 1.8 1.6 3.5 0 1.8-1.6 1.8-1.8.3-3.6-2.1-2.2-1.7-2.2-3.8.1zM341.7 206.8c-1.6 1.8-1.6 2 .3 3.7 1.1 1 2.1 1.6 2.3 1.4.1-.2.8-1.1 1.5-2 1-1.3.8-1.9-.6-3.3-1.8-1.5-2-1.5-3.5.2zM501.3 206.7c-.7.3-1.3 2-1.3 3.8 0 1.9-.5 3.7-1.2 4.1-.7.4-9.6.8-19.8.9-20.2.1-22.1.5-23.9 5.5-2.4 7 2.2 11.1 12.8 11.1 6.1 0 7.3.3 8.6 2.2 2.1 3 .6 4-6.4 4.3-7.2.2-11.5 2.5-14 7.6-1.7 3.4-1.8 6.4-1.7 35.5.1 29.9.2 32 2.1 35.2 3.6 6.1 6.7 7 23.9 6.8 16.8-.2 18.9-.9 22.6-7 1.9-3 2-5.2 2-35.7 0-30.5-.1-32.7-2-35.7-2.7-4.4-7.3-6.6-14.5-6.7-4-.1-6-.5-6.1-1.4-.1-.6-.2-2.1-.3-3.2 0-1.2-1.3-3.2-2.7-4.5-2.4-2.2-3.6-2.5-10.5-2.5-6.5 0-8-.3-8.8-1.8-2.1-4-.3-4.4 20.2-4.5 19-.2 19.6-.3 22-2.5 3-2.9 4.2-10.8 1.7-11.5-.8-.2-2.1-.2-2.7 0zm-5.9 38.2c3.3 1.8 4.8 5.8 4.4 11.7l-.3 4.9h-19c-10.4.1-19.6-.1-20.2-.3-1.9-.6-.8-11.9 1.3-14.3 2.5-2.8 6-3.4 19.4-3.3 7.9 0 12.8.5 14.4 1.3zm4.1 22.2c.5.6.8 15.7.6 38.7-.1 6.9-.3 7.6-3.1 10.2-3 2.8-3.1 2.8-16.3 2.8-7.2-.1-14.3-.5-15.7-1-5.1-1.7-5.5-3.5-5.6-27.8-.1-12.4 0-22.7.1-23 .4-.7 39.2-.6 40 .1z"/><path d="M477 252.5c0 2 .5 2.5 2.4 2.5 2.5 0 3.6-1.5 2.9-3.8-.3-.6-1.6-1.2-2.9-1.2-1.9 0-2.4.5-2.4 2.5zM167 214.5c-1 1.2-1 1.8 0 3 1.6 1.9 2.5 1.9 4.5-.2 1.6-1.6 1.6-1.7-.1-3-2.3-1.7-2.9-1.6-4.4.2zM349.3 213.7c-1.8.7-1.6 2.8.3 4.3 1.2 1.1 1.8 1 3.1-.3s1.4-1.9.3-3.1c-1.3-1.7-1.7-1.8-3.7-.9zM160 221.6c-1.1 1.2-1 1.8.3 3.2 1.6 1.5 1.8 1.5 3.4 0 1.3-1.4 1.4-2 .3-3.2-.7-.9-1.6-1.6-2-1.6-.4 0-1.3.7-2 1.6zM356 221.6c-1.1 1.2-1 1.8.3 3.2 1.6 1.5 1.8 1.5 3.4 0 1.3-1.4 1.4-2 .3-3.2-.7-.9-1.6-1.6-2-1.6-.4 0-1.3.7-2 1.6zM153.1 228.4c-1.3 1.6-.4 4.6 1.4 4.6.7 0 1.8-.7 2.5-1.5 1-1.2 1-1.8 0-3-1.5-1.9-2.4-1.9-3.9-.1zM363 228.5c-.9 1.1-.9 1.8.3 3.5 1.4 2 1.4 2 3.2 0 1.5-1.6 1.5-2.2.5-3.5-1.6-1.9-2.4-1.9-4 0zM146.2 235.2c-1.6 1.6-1.5 3.3.1 4.7 2.1 1.7 5.5-2.3 3.7-4.4-1.5-1.8-2.2-1.9-3.8-.3zM370 235.5c-1 1.3-.9 1.9.5 3.5 1.7 1.9 1.9 1.9 3.5.3 1.6-1.6 1.6-2 .2-3.6-1.9-2.1-2.6-2.1-4.2-.2zM128.7 242.8l-6.7 6.7 6.7 6.8 6.6 6.8 3-2.8c1.7-1.5 4.8-4.6 6.9-6.7l3.9-3.9-2.3-2.6c-2.1-2.3-11-11.1-11.2-11.1-.1 0-3.2 3-6.9 6.8zm10.1 9.9-3.2 3.3-3.3-3.2-3.3-3.2 3.2-3.3 3.2-3.3 3.3 3.2 3.3 3.2-3.2 3.3zM377.7 242.6l-6.8 6.6 2.3 2.6c1.3 1.4 4.3 4.4 6.6 6.8 5.1 5 4.9 5 12.9-3.6l5.2-5.6-6.7-6.7-6.8-6.7-6.7 6.6zm10.1 10.1-3.2 3.3-3.3-3.2-3.3-3.2 3.2-3.3 3.2-3.3 3.3 3.2 3.3 3.2-3.2 3.3zM1.3 250.4c-1 1.1-.7 1.9 1 4 1.3 1.4 3 2.6 3.9 2.6 2.7 0 3.1-3.1.7-5.7-2.5-2.6-3.9-2.8-5.6-.9zM15.2 251.5c-2.2 2.2-2.3 2.6-.9 4.5l1.5 2.1 3.1-3c2.8-2.8 3-3.3 1.7-4.6-1.9-1.9-2.6-1.8-5.4 1zM370.5 260c-1.6 1.8-1.6 2 0 3.6 1.5 1.6 1.8 1.6 3.6-.2 1.9-1.9 1.9-2 0-3.6-1.8-1.5-2.1-1.5-3.6.2zM145.3 260.4c-.9 1.1-.8 1.8.8 3.2 1.8 1.6 2.1 1.6 3.6.1 1.3-1.3 1.4-1.9.3-3.1-1.5-1.9-3.1-2-4.7-.2zM3.4 263.4c-3.4 3.4-3.6 4.4-1.3 5.7 1.8.9 2.5.7 4.5-1.4 3.9-4.2.8-8.2-3.2-4.3zM14.5 263c-1.7 1.9-1.7 2.1.9 4.5 3.1 2.9 3.9 3 5.5 1.1 1-1.2.7-2.1-1.7-4.5-2.9-3.1-2.9-3.1-4.7-1.1zM363.4 267.1c-1.7 1.8-1.7 2.1-.1 3.6 1.6 1.6 1.8 1.6 3.7-.3 2-1.9 2-2 .1-3.6-1.8-1.5-2.1-1.5-3.7.3zM152.6 267.7c-.4.9 0 2.3.9 3.2 1.3 1.4 1.7 1.4 3.2-.1 1.3-1.4 1.4-2 .3-3.2-1.6-2.1-3.6-2-4.4.1zM160 274.6c-1.1 1.2-1 1.8.3 3.2 1.6 1.5 1.8 1.5 3.4 0 1.3-1.4 1.4-2 .3-3.2-.7-.9-1.6-1.6-2-1.6-.4 0-1.3.7-2 1.6zM356.2 274.2c-.7.7-1.2 1.7-1.2 2.4 0 1.9 3.2 2.6 4.8 1 1.3-1.2 1.3-1.8.2-3-1.5-1.9-2.2-2-3.8-.4zM167 281.6c-1.1 1.2-1.1 1.8.2 3 1.3 1.3 2 1.4 3.8.4 2.1-1.1 2.1-1.2.4-3.1-2.1-2.3-2.8-2.4-4.4-.3zM348.7 281.7c-1.3 1.5-1.3 2-.1 3 1.7 1.7 2.9 1.6 4.4-.2 1-1.2 1-1.8 0-3-1.6-1.9-2.3-1.9-4.3.2zM401.5 285.6c-6.7 2.3-10.5 7.7-10.5 14.9 0 3.5 2.1 8.7 4.4 11.1 4.2 4.2 12.4 5.6 17.5 3 2.7-1.5 2.8-1.4 11.1 6.9 7 7 8.6 8.2 10.2 7.4 1-.5 1.8-1.3 1.8-1.7 0-.4-3.7-4.5-8.1-9l-8.2-8.4 1.3-3.8c1.5-4.5.9-11.1-1.4-14.5-3.6-5.5-11.7-8.1-18.1-5.9zm12.1 7.8c2.6 2.6 3.4 4.2 3.4 7.1 0 5.2-5.3 10.5-10.4 10.5-5.2 0-9.7-4.3-10.3-9.8-.4-3.8-.1-4.6 3-7.7 4.8-4.8 9.5-4.9 14.3-.1zM174.5 288.6c-1.5 1.5-1.5 1.8.1 3.5 1.6 1.8 1.8 1.8 3.6.2 1.7-1.5 1.7-1.7.2-3.5-2.1-2.2-1.9-2.2-3.9-.2zM341.6 288.8c-1.5 1.8-1.5 2 .2 3.5 1.8 1.6 2 1.6 3.7-.3 1-1.1 1.6-2.1 1.4-2.3-.2-.1-1.1-.8-2-1.5-1.3-1-1.9-.8-3.3.6zM79.4 296.6c-5.9 2.1-11.9 7.6-14.9 13.8-8.5 17.3 3.7 38.1 23.1 39.2 15.6.9 28.9-11.6 28.7-27.1-.3-19.3-18.8-32.3-36.9-25.9zM20.6 302.1c-2.7 4 1.3 8.1 5.2 5.3 2.6-1.8 2.8-3.7.6-5.8-2.1-2.2-4-2-5.8.5zM217 331.5c-1 1.3-1 1.9.5 3.5s1.9 1.7 3.1.5c1.9-1.8 1.8-4.1-.2-4.9-2.1-.8-2-.8-3.4.9zM299.2 331.2c-1.6 1.6-1.5 2.6.2 4.3 1.2 1.2 1.6 1.1 3.1-.5s1.5-2.2.5-3.5c-1.5-1.8-2.2-1.9-3.8-.3zM224.5 338.6c-1.5 1.5-1.5 1.8.1 3.5 1.6 1.8 1.8 1.8 3.6.2 1.7-1.5 1.7-1.7.2-3.5-2.1-2.2-1.9-2.2-3.9-.2zM291.6 338.8c-1.5 1.8-1.5 2 .2 3.5 1.8 1.6 2 1.6 3.5 0 1.3-1.5 1.3-2.1.3-3.6-1.6-2.1-1.9-2.1-4 .1zM231.7 345.8c-1.6 1.8-1.6 2 .1 3.5 1.8 1.6 2 1.6 3.5-.1 1.6-1.8 1.6-2-.1-3.5-1.8-1.6-2-1.6-3.5.1zM284.7 345.8c-1.6 1.8-1.6 2 .1 3.5 1.8 1.6 2 1.6 3.5-.1 1.6-1.8 1.6-2-.1-3.5-1.8-1.6-2-1.6-3.5.1zM238.6 352.8c-1.5 1.8-1.5 2 .3 3.6 1.7 1.6 2 1.6 3.5 0 1.6-1.5 1.6-1.8 0-3.5-2.1-2.3-1.7-2.3-3.8-.1zM277.7 352.8c-2.2 2.4-2.1 2.9.2 4.1 1.4.8 2.2.6 3.4-.7 1.3-1.5 1.3-1.9-.3-3.5s-1.8-1.6-3.3.1zM245.8 359.9c-1.5 1.8-1.5 2.1.2 3.6 1.8 1.6 2 1.6 3.6 0 1.6-1.5 1.6-1.8-.2-3.6-1.9-1.9-2-1.9-3.6 0zM438 358.8c-1.5.2-1.6 2.1-1 33.7v3.1l13.1-.1c8.2 0 13.3.3 13.9 1 .5.6 4.1 8.7 8 18 3.9 9.3 7.4 17.3 7.8 17.7.4.4 2.3-3.4 4.1-8.5 1.9-5 3.6-9.4 3.8-9.6.2-.3 2.8 1.9 5.8 4.9 5.1 5 5.4 5.2 7.1 3.6 1.6-1.7 1.4-2-3.5-7-2.8-2.8-5.1-5.4-5.1-5.7 0-.3 4.3-2 9.5-3.9s9.5-3.6 9.5-3.9c0-.3-8-3.9-17.8-8-9.7-4.1-18.1-7.8-18.6-8.2-.6-.5-1-6.7-1-13.9 0-7.1-.2-13.1-.5-13.1-1.4-.3-33.7-.4-35.1-.1zm50.4 38.7 9.8 4.2-6.2 2.4c-6.7 2.6-6.9 2.8-10 10.3-1.1 2.7-2.3 4.7-2.6 4.4-.7-.7-9.4-21.9-9.4-22.9 0-.5.6-.6 1.4-.3.9.3 1.7-.3 2.1-1.6.8-2.5.9-2.4 14.9 3.5zM270.1 360.3c-.8 1-.7 1.9.4 3.3 1.3 1.8 1.5 1.8 3.1.2 1.8-1.8 1.3-4.8-.9-4.8-.8 0-2 .6-2.6 1.3zM253.5 366.8c-3.6 3.5-6.5 6.7-6.5 7.1 0 .9 12 13.1 12.8 13.1.4 0 3.6-2.9 7.2-6.5l6.4-6.5-2.5-2.7c-1.3-1.5-4.3-4.6-6.7-6.9l-4.2-4.1-6.5 6.5zm10 4.2 2.9 3-3.2 3.3-3.2 3.2-3.2-3.2-3.2-3.3 2.9-3c1.6-1.6 3.2-3 3.5-3 .3 0 1.9 1.4 3.5 3zM36.9 366.5c-3.9 2.1-5.3 6.9-3.3 11.1 1.5 3.1 3.8 4.5 7.9 4.9 1.9.2 6.3-2.4 7-4.2 1.8-4.1 1.6-7.1-.7-9.7-2.8-3.2-7.4-4.1-10.9-2.1zm7.5 6.1c.8 2-.3 4.1-2.4 4.7-3.6.9-5.6-4.3-2.3-6.1 2-1.2 3.9-.6 4.7 1.4zM74.7 387.9c-1.7.9-4.2 3.1-5.4 5-7.4 11.1 5.1 24.9 17.2 19.1 10.6-5.1 10.1-20.5-.8-24.4-5.1-1.8-6.9-1.7-11 .3zM318.3 387.9c-1 1.6-.7 2.3 1.5 4.4 2.3 2.2 3 2.4 4.5 1.3 2.3-1.7 2.2-2.1-1-5.1-3.3-3-3.5-3-5-.6zM333.8 387.1c-3 1.7-4.1 4.7-2.3 6.5 1.4 1.4 1.8 1.3 4.5-1.5 2.7-2.7 2.9-3.1 1.4-4.5-.8-.9-1.6-1.6-1.7-1.6-.1 0-1 .5-1.9 1.1zM319.6 401.1c-2.2 2.4-2.5 3.3-1.5 4.5 1.5 1.9 3.1 1.8 5-.4 2.7-3.2 2.9-3.9 1-5.6-1.6-1.5-1.9-1.4-4.5 1.5zM331.1 400.1c-1.1 1.8-.9 2.4 1 4.5 2.6 2.7 3.5 2.9 5.3 1.1 1.5-1.4.8-2.7-3-5.9-1.9-1.6-2-1.6-3.3.3zM274.1 404.4c-2.4 2.9 1.9 7 4.6 4.4 1.1-1.1 1-1.7-.3-3.6-1.8-2.6-2.7-2.7-4.3-.8zM283.5 405c-1.7 1.9-1.8 2.2-.2 3.7 1.5 1.6 1.8 1.5 3.6-.1 1.6-1.5 1.8-2.1.8-3.7-1.5-2.4-2-2.4-4.2.1zM188 411c0 2.2.4 2.7 1.8 2.5.9-.2 2-.4 2.5-.4.4-.1.7-1.2.7-2.5 0-1.8-.5-2.4-2.5-2.4-2.1 0-2.5.5-2.5 2.8zM198 410.8c0 2.3.4 2.9 1.8 2.7.9-.2 2.1-.4 2.5-.4.5-.1.7-1.1.5-2.4-.2-1.4-1.1-2.3-2.5-2.5-2-.3-2.3.1-2.3 2.6zM208.2 410.6c.4 4 4.2 3.9 5-.1.2-1.6-.3-2-2.4-2.1-2.3-.1-2.7.3-2.6 2.2zM274.4 414.1c-1.6 1.8-1.7 2.1-.1 3.6 1.5 1.6 1.8 1.5 3.6-.1 1.1-1 1.7-2.4 1.5-3.1-.9-2.3-3.1-2.5-5-.4zM283.1 413.4c-.9 1.1-1 2-.1 3.5 1.3 2.4 3.3 2.7 4.9.7 1-1.2.8-1.9-.8-3.5-2.5-2.5-2.5-2.5-4-.7zM366.3 418.1c-2.8 1-3.6 2.5-2.9 5.4.9 3.5 5.4 4.5 7.7 1.7 3-3.8-.3-8.8-4.8-7.1zM194.8 418.5c-.2.1-2.6.5-5.3.9-10.8 1.2-24.8 7.7-33.8 15.5-5.7 4.9-14.7 15.9-14.7 18 0 1.9 5.2 9 10.6 14.4 18.1 18.3 45.8 24.9 70.9 16.9 10-3.2 18.9-8.8 27.3-17.1 3.4-3.4 6.2-6.3 6.2-6.7 0-.3 1.1-2 2.5-3.8l2.5-3.3-4.1-5.9c-12.2-17.3-31.8-27.8-53.7-28.8-4.5-.2-8.2-.3-8.4-.1zm14.6 6c15.6 1.5 32.9 11.8 43.4 25.9l2.2 2.8-3.2 4.1c-13.1 16.5-30.4 25-50.8 25-19.9.1-37.2-7.8-49.7-22.7-2.4-2.7-4.3-5.5-4.3-6.2 0-2.2 7.9-11.3 13.8-15.9 6.2-4.9 14-8.9 21.6-11.2 5.3-1.6 16.2-3.2 18.6-2.7.8.1 4.6.5 8.4.9z"/><path d="M191.5 430.6c-8.8 3.2-15.4 13.5-15 23.3.7 17.8 18.8 28.6 34.8 20.7 9-4.4 13.8-12.6 13.3-22.8-.8-16.2-17.4-26.9-33.1-21.2zM315.3 423.1c-15.6 2.9-24.9 18.2-20.3 33.6.7 2.3 3.8 7.3 7 11.1 5.9 7.3 7.9 11.7 6.1 13.5-.6.6-1.1 1.9-1.1 2.9 0 1.4.8 1.8 4.3 1.9 2.3 0 7.9.1 12.4.2 7.1.2 8.3 0 8.7-1.6.2-.9-.1-2.3-.8-3-1.9-1.9-.2-6.8 4.2-11.8 6-7 7.8-10 9.2-15.6 4.2-18-11.6-34.6-29.7-31.2zM385.3 439.6c-3.6 1.8-5.6 5.8-4.9 9.9.5 2.7 1.9 4.5 11.5 14.1l4.4 4.4 7.8-8.1c7.1-7.2 7.9-8.5 7.9-11.9 0-7-7.1-11.7-13-8.7-2.1 1.1-3.1 1.1-5.5.1-3.9-1.7-4.4-1.7-8.2.2zM309.8 490c-1.4.4-2.3 1.3-2.3 2.5 0 1.9.9 2 12.1 2.3 9.6.2 12.3 0 12.7-1.1 1.2-3.1-1-4-10.6-4.1-5.3 0-10.6.1-11.9.4zM188 495.2c0 2.3.4 2.7 2.5 2.6 2-.2 2.5-.8 2.5-2.8 0-2-.5-2.5-2.5-2.5-2.1 0-2.5.5-2.5 2.7zM199.3 492.7c-.7.3-1.3 1.6-1.3 2.9 0 1.9.5 2.4 2.5 2.4s2.5-.5 2.5-2.4c0-2.5-1.5-3.6-3.7-2.9zM209.1 493c-2 1.2-.8 4.5 1.7 4.8 1.8.3 2.2-.1 2.2-2.1 0-2.7-1.9-4-3.9-2.7zM314.2 501c.3 2.3.6 2.5 5.6 2.3 3-.1 5.6-.3 5.8-.5.2-.2.1-1.4-.2-2.5-.5-1.9-1.2-2.2-6-2-5.2.2-5.5.3-5.2 2.7z"/></svg>