<svg aria-hidden="true" style="position: absolute; width: 0; height: 0; overflow: hidden;" version="1.1" xmlns="http://www.w3.org/2000/svg" xmlns:xlink="http://www.w3.org/1999/xlink">
<defs>
 <symbol id="icon-close" viewBox="0 0 32 32">
<path d="M32 3.223l-3.223-3.223-12.777 12.777-12.777-12.777-3.223 3.223 12.777 12.777-12.777 12.777 3.223 3.223 12.777-12.777 12.777 12.777 3.223-3.223-12.777-12.777 12.777-12.777z"></path>
</symbol>
 <symbol id="icon-menu-icon" viewBox="0 0 32 32">
<path d="M6.4 11.734v-2.134h19.2v2.134h-19.2zM6.4 17.066h19.2v-2.133h-19.2v2.133zM6.4 22.4h19.2v-2.134h-19.2v2.134z"></path>
</symbol>
<symbol id="icon-logo" viewBox="0 0 124 32">
<path  d="M29.633 28.571h-5.507l-0.752 3.429h-6.161l5.906-22.857h7.615l5.905 22.857h-6.291l-0.715-3.429zM28.665 24.169l-1.753-8.226-1.827 8.226h3.579zM54.286 9.143v22.857h-5.362l-5.119-12v12h-5.727v-22.857h5.368l5.119 12.212v-12.212h5.721zM71.005 13.594h-4.438v18.406h-6.25v-18.406h-4.417v-4.451h15.105v4.451zM83.603 28.571h-5.512l-0.752 3.429h-6.156l5.906-22.857h7.623l5.905 22.857h-6.299l-0.715-3.429zM82.638 24.157l-1.755-8.214-1.824 8.226 3.579-0.011zM101.213 16.974v-2.954c0-0.534-0.287-0.783-0.896-0.783h-1.287c-0.609 0-0.896 0.249-0.896 0.784v13.102c0 0.534 0.287 0.783 0.896 0.783h1.287c0.609 0 0.896-0.249 0.896-0.784v-3.808h-1.789v-3.954h8.042v8.226c0 2.668-1.436 4.414-5.259 4.414h-5.084c-3.829 0-5.262-1.746-5.262-4.415v-14.028c0-2.669 1.436-4.415 5.262-4.415h5.084c3.828 0 5.259 1.746 5.259 4.415v3.429l-6.253-0.012zM124.082 27.549v4.451h-14.103v-22.857h13.787v4.451h-7.523v4.663h6.477v4.452h-6.477v4.839h7.839z"></path>
<path  d="M12.063 0l-4.406 24.417-1.339-7.846h-6.318l4.041 15.429h7.267l6.5-26.286h106.273l-112.018-5.714z"></path>
</symbol>
<symbol id="icon-antartica" viewBox="0 0 121 32">
<path d="M19.368 26.889c-0.151 0.060-0.326 0.097-0.509 0.1l-0.001 0-1.931 0.060h-1.661c-1.346 1.489-2.935 2.728-4.711 3.66l-0.093 0.044c-1.149 0.58-2.503 0.92-3.938 0.92-0.079 0-0.158-0.001-0.237-0.003l0.012 0c-0.939-0.026-1.83-0.199-2.661-0.497l0.060 0.019c-0.799-0.278-1.488-0.684-2.079-1.201l0.007 0.006c-0.547-0.47-0.984-1.052-1.278-1.712l-0.012-0.031c-0.212-0.487-0.336-1.054-0.336-1.65 0-0.191 0.013-0.378 0.037-0.562l-0.002 0.022c0.072-1.164 0.486-2.22 1.141-3.082l-0.010 0.014c0.523-0.646 1.197-1.15 1.969-1.462l0.033-0.012c0.55-0.211 1.185-0.333 1.85-0.333 0.134 0 0.267 0.005 0.399 0.015l-0.018-0.001c0.595 0.035 1.183 0.141 1.751 0.319 0.355 0.148 0.654 0.407 0.85 0.737 0.159 0.259 0.226 0.565 0.19 0.867-0.050 0.271-0.203 0.498-0.417 0.645l-0.003 0.002c-0.129 0.071-0.282 0.113-0.445 0.113s-0.317-0.042-0.45-0.115l0.005 0.002c-0.289-0.138-0.628-0.219-0.986-0.219-0.24 0-0.472 0.036-0.691 0.104l0.017-0.004c-0.484 0.165-0.891 0.451-1.198 0.822l-0.004 0.004c-0.307 0.395-0.51 0.861-0.59 1.354-0.035 0.164-0.055 0.353-0.055 0.546 0 0.337 0.060 0.659 0.171 0.957l-0.006-0.019c0.192 0.496 0.544 0.917 1.001 1.194 0.605 0.354 1.302 0.519 2.001 0.478 1.647-0.113 3.117-0.79 4.237-1.836l-0.004 0.004c-0.579 0-0.94-0.179-1.081-0.438-0.072-0.124-0.115-0.274-0.115-0.433s0.043-0.309 0.117-0.438l-0.002 0.004c0.208-0.357 0.49-0.663 0.831-0.897 0.372-0.268 0.813-0.426 1.271-0.458h1.79c1.43-1.602 2.804-3.349 4.067-5.179l0.116-0.178c0.761-1.042 2.162-3.116 3.538-5.208l0.714-1.156c1.411-2.16 2.702-4.292 4.003-6.383 1.374-2.206 2.64-4.038 3.982-5.81l-0.139 0.192c0.278-0.371 0.683-0.634 1.149-0.725l0.012-0.002c0.131-0.032 0.281-0.050 0.435-0.050 0.277 0 0.54 0.058 0.779 0.164l-0.012-0.005c0.341 0.164 0.598 0.459 0.708 0.817l0.002 0.009c0.029 0.112 0.046 0.24 0.046 0.371 0 0.352-0.119 0.677-0.318 0.936l0.003-0.004c-1.051 1.623-2.082 3.406-3.112 5.358s-2.001 3.924-2.852 5.906c-0.85 1.981-1.681 3.904-2.321 5.746-0.517 1.313-1.029 2.949-1.435 4.626l-0.056 0.274c-0.257 0.935-0.405 2.008-0.405 3.116 0 0.113 0.002 0.225 0.005 0.337l-0-0.017c0.070 0.876 0.39 1.305 1.001 1.305 0.273-0.010 0.545-0.064 0.801-0.16 0.396-0.138 0.726-0.283 1.043-0.448l-0.043 0.020c0.348-0.193 0.681-0.409 1.001-0.647 0.329-0.233 0.637-0.493 0.92-0.777l1.291-1.305c0.375-0.402 0.73-0.825 1.060-1.264 0.158-0.255 0.434-0.423 0.75-0.429h0.001c0.311-0.023 0.623 0.039 0.9 0.18 0.261 0.119 0.473 0.322 0.6 0.578 0.039 0.084 0.062 0.183 0.062 0.287 0 0.191-0.077 0.364-0.202 0.489l0-0-1.242 1.485c-0.521 0.627-1.181 1.334-2.001 2.131-0.436 0.414-0.899 0.818-1.378 1.202l-0.043 0.033c-0.4 0.32-0.832 0.597-1.291 0.826-0.384 0.196-0.829 0.354-1.296 0.452l-0.035 0.006c-0.455 0.089-0.979 0.139-1.514 0.139-0.020 0-0.040-0-0.060-0l0.003 0c-0.076 0.007-0.164 0.011-0.253 0.011-1.043 0-1.962-0.529-2.503-1.334l-0.007-0.011c-0.456-0.833-0.724-1.825-0.724-2.879 0-0.224 0.012-0.445 0.036-0.663l-0.002 0.027zM19.688 24.369c0.523-2.237 1.21-4.19 2.079-6.040l-0.078 0.185c-0.859 1.364-1.565 2.409-2.296 3.435l0.155-0.229c-0.773 1.1-1.431 1.979-2.109 2.84l0.107-0.142c0.431 0 0.83-0.049 1.201-0.049h0.94zM32.436 18.194c0.155-0.29 0.441-0.492 0.777-0.527l0.004-0c0.176-0.040 0.378-0.064 0.586-0.064s0.41 0.023 0.604 0.067l-0.018-0.003c0.356 0.075 0.683 0.252 0.941 0.509 0.144 0.139 0.233 0.334 0.233 0.55 0 0.134-0.035 0.261-0.095 0.37l0.002-0.004-0.271 0.547 0.181-0.138c0.631-0.586 1.361-1.078 2.16-1.444l0.051-0.021c0.387-0.183 0.84-0.289 1.318-0.289 0.092 0 0.184 0.004 0.274 0.012l-0.012-0.001c0.424 0.053 0.816 0.25 1.111 0.558 0.311 0.304 0.566 0.663 0.751 1.055 0.129 0.302 0.204 0.653 0.204 1.021s-0.075 0.719-0.211 1.038l0.007-0.017c-0.363 0.988-0.758 1.825-1.215 2.622l0.044-0.083c-0.389 0.777-0.742 1.4-1.121 2.005l0.059-0.102c-0.185 0.276-0.55 0.881-0.906 1.492l-0.194 0.361c-0.136 0.186-0.227 0.414-0.25 0.661l-0 0.005c0 0.11 0.091 0.139 0.231 0.11 0.168-0.047 0.329-0.114 0.48-0.199 0.174-0.106 0.341-0.222 0.501-0.349 0.735-0.566 1.388-1.15 1.997-1.777l0.004-0.005c0.553-0.553 1.074-1.137 1.559-1.751l0.032-0.042c0.161-0.271 0.449-0.451 0.779-0.458l0.001-0c0.301-0.024 0.603 0.038 0.87 0.179 0.252 0.127 0.452 0.326 0.577 0.57l0.003 0.007c0.044 0.092 0.070 0.201 0.070 0.316 0 0.175-0.060 0.336-0.161 0.462l0.001-0.002c-0.16 0.179-0.36 0.448-0.62 0.797s-0.56 0.727-0.9 1.126c-0.341 0.398-0.711 0.806-1.131 1.234s-0.83 0.827-1.261 1.195c-0.637 0.599-1.374 1.103-2.18 1.483l-0.051 0.022c-0.513 0.244-1.116 0.387-1.751 0.387h-0c-0.006 0-0.014 0-0.021 0-0.47 0-0.901-0.161-1.243-0.431l0.004 0.003c-0.33-0.267-0.597-0.599-0.783-0.978l-0.008-0.017c-0.158-0.333-0.25-0.723-0.25-1.135 0-0.307 0.051-0.601 0.145-0.876l-0.006 0.019c0.291-0.898 0.67-1.765 1.131-2.589 0.12-0.24 0.27-0.528 0.46-0.867s0.37-0.677 0.571-0.996c0.199-0.318 0.38-0.687 0.55-0.995 0.143-0.276 0.303-0.541 0.48-0.797 0.19-0.338 0.259-0.557 0.23-0.667s-0.13-0.139-0.29-0.11c-0.22 0.047-0.414 0.116-0.595 0.206l0.015-0.007c-0.247 0.131-0.444 0.247-0.635 0.37l0.034-0.020c-0.49 0.338-1.001 0.707-1.511 1.116-0.502 0.393-0.979 0.816-1.431 1.264-0.31 0.727-0.621 1.464-0.941 2.201l-0.9 2.061c-0.28 0.637-0.51 1.185-0.711 1.643s-0.35 0.777-0.44 0.996c-0.193 0.407-0.554 0.707-0.991 0.814l-0.010 0.002c-0.196 0.064-0.421 0.101-0.656 0.101s-0.46-0.037-0.671-0.106l0.015 0.004c-0.409-0.131-0.739-0.408-0.936-0.768l-0.004-0.008c-0.090-0.187-0.142-0.408-0.142-0.64 0-0.298 0.087-0.576 0.236-0.811l-0.004 0.006c0.27-0.607 0.65-1.414 1.121-2.4s1.001-1.992 1.481-3.117l1.471-3.187c0.42-1.165 0.83-2.041 1.171-2.779v0.010zM49.958 17.050l-3.823 6.672c-0.408 0.763-0.74 1.332-1.087 1.892l0.086-0.149c-0.261 0.42-0.525 0.916-0.757 1.431l-0.033 0.083c-0.15 0.324-0.29 0.712-0.398 1.112l-0.012 0.053c-0.080 0.319-0.040 0.538 0.12 0.657 0.111 0.104 0.26 0.167 0.424 0.167 0.085 0 0.167-0.017 0.241-0.048l-0.004 0.002c0.329-0.094 0.64-0.242 0.92-0.439 0.32-0.209 0.65-0.458 1.001-0.727 0.35-0.27 0.64-0.548 0.92-0.828l1.291-1.304c0.375-0.402 0.73-0.825 1.061-1.264 0.158-0.254 0.434-0.423 0.749-0.429h0.001c0.311-0.023 0.623 0.039 0.901 0.18 0.26 0.119 0.472 0.322 0.6 0.578 0.039 0.084 0.062 0.183 0.062 0.287 0 0.191-0.077 0.364-0.202 0.49l0-0c-0.31 0.398-0.72 0.896-1.241 1.514s-1.181 1.305-2.001 2.102c-0.436 0.414-0.899 0.818-1.378 1.202l-0.043 0.033c-0.4 0.32-0.832 0.597-1.29 0.826-0.384 0.196-0.829 0.354-1.297 0.452l-0.035 0.006c-0.501 0.095-1.010 0.142-1.52 0.139-1.571 0-2.482-0.637-2.742-1.903s0.24-2.987 1.501-5.059c0.151-0.279 0.381-0.687 0.691-1.235s0.66-1.174 1.081-1.882l1.31-2.24c0.46-0.797 0.9-1.574 1.331-2.341-0.259 0.032-0.52 0.048-0.781 0.050h-0.83c-0.64 0-1.061-0.13-1.241-0.389-0.095-0.137-0.152-0.306-0.152-0.489 0-0.149 0.038-0.289 0.104-0.411l-0.002 0.005c0.194-0.372 0.479-0.687 0.83-0.917 0.374-0.26 0.831-0.427 1.324-0.457l0.007-0h2.331l1.001-1.654c0.231-0.41 0.603-0.718 1.048-0.862l0.013-0.004c0.179-0.058 0.386-0.092 0.6-0.092s0.421 0.034 0.614 0.096l-0.014-0.004c0.336 0.098 0.623 0.318 0.801 0.617 0.067 0.13 0.106 0.283 0.106 0.446 0 0.205-0.062 0.395-0.168 0.553l0.002-0.004-0.46 0.777h1.281c0.15 0.012 0.324 0.019 0.5 0.019s0.351-0.007 0.523-0.021l-0.023 0.001c0.461 0 0.731 0.14 0.83 0.399 0.030 0.095 0.048 0.205 0.048 0.319 0 0.202-0.055 0.39-0.15 0.553l0.003-0.005c-0.175 0.354-0.424 0.666-0.731 0.917-0.303 0.276-0.699 0.432-1.111 0.438l-2.732 0.090zM64.509 24.369c0.179-0.255 0.469-0.421 0.799-0.428l0.001-0c0.311-0.022 0.623 0.041 0.9 0.179 0.257 0.125 0.467 0.327 0.601 0.578 0.038 0.084 0.060 0.182 0.060 0.285 0 0.191-0.076 0.365-0.201 0.492l0-0c-0.161 0.18-0.361 0.449-0.621 0.797s-0.571 0.727-0.92 1.124l-1.081 1.226c-0.391 0.421-0.804 0.82-1.24 1.195-0.633 0.596-1.362 1.099-2.16 1.482l-0.051 0.022c-0.475 0.233-1.034 0.369-1.624 0.369-0.027 0-0.054-0-0.081-0.001l0.004 0c-0.473-0.016-0.903-0.186-1.245-0.462l0.004 0.003c-0.339-0.283-0.628-0.611-0.861-0.978l-0.010-0.017-1.591 0.995c-0.653 0.326-1.423 0.517-2.237 0.517-0.111 0-0.22-0.004-0.329-0.010l0.015 0.001c-0.026 0.001-0.056 0.001-0.087 0.001-0.733 0-1.418-0.204-2.002-0.558l0.017 0.010c-0.582-0.371-1.030-0.907-1.283-1.542l-0.008-0.022c-0.204-0.522-0.322-1.126-0.322-1.758 0-0.226 0.015-0.449 0.045-0.668l-0.003 0.026c0.152-1.141 0.519-2.171 1.061-3.085l-0.021 0.038c0.579-1.096 1.275-2.037 2.092-2.858l-0.001 0.001c0.73-0.733 1.536-1.389 2.405-1.958l0.057-0.035c0.697-0.455 1.498-0.843 2.348-1.124l0.073-0.021c0.593-0.211 1.278-0.344 1.99-0.368l0.011-0c0.341-0.003 0.679 0.050 1.001 0.159 0.279 0.104 0.547 0.233 0.801 0.389 0.252 0.153 0.484 0.337 0.69 0.547 0.2-0.368 0.521-0.649 0.909-0.793l0.012-0.004c0.4-0.169 0.838-0.234 1.271-0.19 0.338 0.029 0.654 0.186 0.88 0.439 0.19 0.248 0.17 0.577-0.069 0.995l-0.921 1.813c-0.37 0.717-0.751 1.454-1.15 2.201l-1.131 2.102c-0.259 0.484-0.543 0.957-0.851 1.413-0.132 0.183-0.21 0.411-0.21 0.658 0 0.018 0 0.035 0.001 0.052l-0-0.002c0 0.139 0.18 0.199 0.389 0.189 0.264-0.032 0.516-0.121 0.741-0.259 0.307-0.17 0.586-0.385 0.83-0.637 0.521-0.547 0.941-0.995 1.261-1.304 0.381-0.378 0.73-0.788 1.041-1.225v0.009zM57.744 25.644c0.437-0.538 0.813-1.123 1.121-1.743 0.265-0.528 0.482-1.078 0.65-1.643 0.131-0.436 0.186-0.891 0.16-1.345-0.006-0.343-0.168-0.646-0.418-0.844l-0.002-0.002c-0.183-0.123-0.408-0.197-0.65-0.197-0.103 0-0.203 0.013-0.299 0.038l0.008-0.002c-0.47 0.109-0.885 0.291-1.254 0.536l0.014-0.009c-0.519 0.337-0.97 0.698-1.384 1.098l0.002-0.002c-0.502 0.489-0.97 1.012-1.401 1.564-0.404 0.524-0.786 1.114-1.117 1.734l-0.033 0.068c-0.26 0.464-0.488 1.002-0.656 1.566l-0.015 0.057c-0.13 0.432-0.176 0.885-0.139 1.334 0.023 0.343 0.189 0.644 0.438 0.846l0.002 0.002c0.177 0.131 0.4 0.21 0.641 0.21 0.092 0 0.181-0.011 0.266-0.033l-0.007 0.002c0.477-0.095 0.9-0.268 1.277-0.507l-0.015 0.009c0.529-0.331 0.988-0.695 1.402-1.106l-0.001 0.001c0.506-0.494 0.969-1.028 1.386-1.598l0.025-0.036zM64.509 24.36c0.685-0.782 1.343-1.64 1.944-2.539l0.057-0.091c0.701-1.056 1.35-1.992 1.931-2.909-0.373-0.474-0.665-1.031-0.842-1.638l-0.009-0.035c-0.191-0.593-0.307-1.277-0.32-1.985l-0-0.007c-0.002-0.055-0.003-0.119-0.003-0.184 0-0.613 0.093-1.204 0.265-1.761l-0.011 0.042c0.187-0.585 0.536-1.074 0.993-1.429l0.007-0.005c0.519-0.452 1.186-0.748 1.92-0.806l0.012-0.001c0.033-0.002 0.071-0.002 0.11-0.002 0.547 0 1.051 0.181 1.457 0.485l-0.006-0.005c0.429 0.374 0.743 0.87 0.887 1.434l0.004 0.020c0.12 0.351 0.189 0.755 0.189 1.176 0 0.253-0.025 0.501-0.073 0.74l0.004-0.024c-0.098 0.517-0.258 0.978-0.474 1.405l0.014-0.030c-0.251 0.528-0.541 1.085-0.871 1.702 0.409 0.090 0.832 0.090 1.241 0 0.411-0.099 0.841-0.078 1.24 0.061 0.311 0.114 0.581 0.315 0.781 0.577 0.183 0.225 0.282 0.507 0.28 0.797 0 0.008 0 0.017 0 0.026 0 0.269-0.107 0.514-0.281 0.693l0-0c-0.12 0.119-0.37 0.398-0.731 0.816s-0.79 0.946-1.271 1.533c-0.48 0.588-1 1.235-1.45 1.903-0.403 0.543-0.82 1.17-1.204 1.818l-0.057 0.103c-0.314 0.517-0.575 1.064-0.78 1.633-0.17 0.469-0.15 0.787 0.061 0.937 0.211 0.159 0.478 0.254 0.767 0.254 0.245 0 0.474-0.069 0.669-0.188l-0.006 0.003c0.692-0.285 1.341-0.664 1.931-1.124 0.74-0.543 1.393-1.099 2.005-1.697l-0.003 0.003c0.549-0.521 1.059-1.067 1.535-1.643l0.025-0.031c0.201-0.225 0.487-0.372 0.808-0.388l0.003-0c0.299-0.016 0.597 0.039 0.871 0.159 0.249 0.118 0.453 0.314 0.579 0.558 0.038 0.084 0.060 0.182 0.060 0.285 0 0.191-0.076 0.364-0.2 0.491l0-0c-0.611 0.802-1.28 1.558-2.001 2.261-0.832 0.865-1.749 1.635-2.742 2.302l-0.060 0.038c-0.905 0.625-1.952 1.132-3.074 1.464l-0.078 0.020c-0.353 0.117-0.76 0.185-1.182 0.185-0.665 0-1.292-0.168-1.839-0.463l0.021 0.010c-0.372-0.166-0.692-0.428-0.925-0.759-0.225-0.315-0.373-0.7-0.406-1.116l-0.001-0.008c-0.013-0.145-0.021-0.314-0.021-0.484 0-0.826 0.177-1.612 0.496-2.319l-0.014 0.036c0.471-1.141 1.042-2.125 1.725-3.020l-0.024 0.032c0.702-0.971 1.489-1.815 2.37-2.551l0.022-0.018c0.157-0.116 0.29-0.262 0.39-0.429 0-0.080-0.3-0.239-0.941-0.488-0.903 1.409-1.638 2.483-2.397 3.539l0.166-0.243c-0.72 1.006-1.211 1.683-1.45 1.992-0.193 0.273-0.499 0.455-0.848 0.478l-0.003 0c-0.035 0.003-0.077 0.005-0.118 0.005-0.272 0-0.525-0.080-0.737-0.218l0.005 0.003c-0.238-0.143-0.423-0.356-0.528-0.609l-0.003-0.008c-0.033-0.080-0.052-0.173-0.052-0.27 0-0.191 0.073-0.366 0.193-0.497l-0.001 0.001zM70.402 13.324c-0.006-0-0.013-0-0.020-0-0.232 0-0.437 0.118-0.558 0.297l-0.002 0.002c-0.149 0.235-0.241 0.502-0.271 0.777-0.050 0.33-0.050 0.666 0 0.996 0.060 0.371 0.185 0.728 0.37 1.055 0.18-0.368 0.35-0.737 0.501-1.105 0.141-0.32 0.251-0.654 0.329-0.995 0.061-0.249 0.061-0.509 0-0.757-0.047-0.153-0.185-0.264-0.35-0.269h-0.001zM84.151 17.040l-3.823 6.683c-0.489 0.895-0.82 1.465-1.161 2.028l0.16-0.286c-0.29 0.489-0.55 0.995-0.78 1.514-0.173 0.375-0.311 0.765-0.411 1.165-0.080 0.319 0 0.538 0.11 0.657 0.114 0.103 0.265 0.166 0.432 0.166 0.086 0 0.168-0.017 0.244-0.048l-0.004 0.002c0.329-0.094 0.64-0.242 0.92-0.439 0.32-0.209 0.65-0.458 1.001-0.727 0.35-0.27 0.64-0.548 0.921-0.828 0.434-0.424 0.851-0.849 1.26-1.283l0.020-0.022c0.366-0.401 0.707-0.823 1.021-1.264 0.164-0.276 0.46-0.458 0.799-0.458 0.001 0 0.001 0 0.002 0h-0c0.311-0.022 0.623 0.041 0.901 0.179 0.256 0.125 0.467 0.327 0.6 0.578 0.038 0.084 0.060 0.182 0.060 0.285 0 0.191-0.076 0.365-0.201 0.492l0-0c-0.481 0.609-0.887 1.101-1.302 1.586l0.061-0.073c-0.52 0.618-1.181 1.305-2.001 2.102-0.438 0.418-0.904 0.822-1.389 1.204l-0.041 0.031c-0.398 0.318-0.827 0.595-1.281 0.827-0.386 0.196-0.835 0.354-1.305 0.452l-0.035 0.006c-0.502 0.095-1.012 0.142-1.522 0.138-1.56 0-2.471-0.637-2.731-1.902s0.24-2.987 1.491-5.059c0.16-0.279 0.39-0.687 0.69-1.234l1.081-1.883c0.42-0.697 0.85-1.444 1.311-2.24 0.46-0.797 0.91-1.574 1.341-2.341-0.259 0.033-0.519 0.049-0.781 0.050h-0.83c-0.65 0-1.060-0.13-1.241-0.388-0.081-0.127-0.129-0.282-0.129-0.448s0.048-0.321 0.131-0.451l-0.002 0.003c0.19-0.374 0.477-0.69 0.83-0.917 0.374-0.26 0.831-0.427 1.324-0.458l0.008-0h2.33l1.001-1.653c0.227-0.389 0.585-0.686 1.011-0.836 0.18-0.058 0.386-0.092 0.601-0.092s0.421 0.034 0.615 0.096l-0.014-0.004c0.332 0.104 0.617 0.323 0.8 0.617 0.064 0.128 0.102 0.279 0.102 0.438 0 0.208-0.064 0.401-0.173 0.561l0.002-0.003-0.461 0.777h1.29c0.15 0.012 0.324 0.019 0.5 0.019s0.351-0.007 0.523-0.021l-0.023 0.001c0.461 0 0.731 0.14 0.821 0.399 0.033 0.099 0.052 0.213 0.052 0.331 0 0.197-0.053 0.382-0.145 0.541l0.003-0.005c-0.185 0.361-0.431 0.666-0.726 0.913l-0.005 0.004c-0.293 0.253-0.678 0.408-1.099 0.408-0.015 0-0.029-0-0.044-0.001l0.002 0-2.711 0.11zM91.797 24.361c0.157-0.255 0.433-0.424 0.749-0.429h0.001c0.311-0.023 0.623 0.039 0.901 0.18 0.26 0.119 0.472 0.322 0.6 0.578 0.039 0.084 0.062 0.183 0.062 0.287 0 0.191-0.077 0.364-0.202 0.49l0-0c-0.311 0.398-0.711 0.896-1.221 1.514-0.644 0.756-1.298 1.441-1.988 2.089l-0.014 0.013c-0.436 0.414-0.899 0.818-1.378 1.202l-0.043 0.033c-0.4 0.32-0.832 0.597-1.29 0.826-0.384 0.196-0.829 0.354-1.296 0.452l-0.035 0.006c-0.502 0.095-1.011 0.142-1.521 0.139-1.571 0-2.482-0.637-2.742-1.903s0.24-2.987 1.501-5.059c0.27-0.458 0.56-0.995 0.87-1.533s0.621-1.125 0.941-1.674l0.92-1.553c0.291-0.488 0.551-0.906 0.761-1.245 0.236-0.4 0.606-0.701 1.047-0.842l0.013-0.004c0.381-0.12 0.79-0.12 1.171 0 0.333 0.108 0.618 0.326 0.81 0.617 0.080 0.158 0.114 0.336 0.097 0.512s-0.087 0.344-0.197 0.484c-0.33 0.587-0.72 1.264-1.15 2.041l-1.101 2.141c-0.409 0.765-0.741 1.334-1.088 1.894l0.087-0.151c-0.262 0.42-0.526 0.917-0.757 1.431l-0.033 0.082c-0.15 0.324-0.291 0.712-0.399 1.112l-0.012 0.053c-0.080 0.319-0.040 0.538 0.121 0.657 0.111 0.103 0.26 0.167 0.424 0.167 0.085 0 0.166-0.017 0.24-0.048l-0.004 0.002c0.355-0.093 0.693-0.24 1.001-0.439 0.346-0.225 0.68-0.468 1.001-0.727 0.33-0.279 0.64-0.548 0.92-0.828l1.241-1.304c0.352-0.405 0.682-0.827 0.991-1.264zM93.678 14.153c-0.178 0.299-0.38 0.557-0.61 0.787l-0 0c-0.185 0.189-0.378 0.368-0.578 0.537l-0.012 0.010c-0.36 0.223-0.778 0.395-1.224 0.492l-0.027 0.005c-0.197 0.054-0.423 0.086-0.656 0.086-0.15 0-0.297-0.013-0.44-0.038l0.015 0.002c-0.268-0.039-0.488-0.215-0.588-0.453l-0.002-0.005c-0.11-0.239 0-0.578 0.25-0.995 0.125-0.242 0.261-0.479 0.41-0.707 0.19-0.289 0.35-0.558 0.511-0.807 0.222-0.347 0.577-0.592 0.992-0.665l0.009-0.001c0.138-0.026 0.296-0.042 0.458-0.042 0.265 0 0.52 0.040 0.76 0.116l-0.018-0.005c0.343 0.111 0.635 0.34 0.821 0.648 0.072 0.134 0.114 0.293 0.114 0.461 0 0.216-0.069 0.415-0.186 0.578l0.002-0.003zM92.167 23.493c0.576-1.020 1.24-1.899 2.004-2.681l-0.002 0.002c0.725-0.714 1.539-1.341 2.423-1.861l0.058-0.032c0.743-0.446 1.613-0.768 2.541-0.912l0.040-0.005c0.223-0.035 0.481-0.055 0.743-0.055 0.598 0 1.172 0.105 1.704 0.296l-0.035-0.011c0.576 0.172 1.010 0.641 1.129 1.225l0.002 0.010c0.014 0.117 0.022 0.253 0.022 0.39 0 0.496-0.104 0.968-0.291 1.395l0.009-0.022c-0.256 0.686-0.594 1.279-1.011 1.807l0.010-0.014c-0.382 0.481-0.792 0.908-1.239 1.294l-0.012 0.010c-0.253 0.229-0.591 0.369-0.961 0.369-0.014 0-0.028-0-0.042-0.001l0.002 0c-0.344-0.025-0.653-0.152-0.904-0.351l0.003 0.003c-0.226-0.182-0.399-0.421-0.497-0.696l-0.003-0.011c-0.028-0.066-0.044-0.143-0.044-0.224 0-0.187 0.087-0.354 0.223-0.463l0.001-0.001 0.781-0.777c0.284-0.28 0.547-0.579 0.79-0.897 0.172-0.213 0.296-0.461 0.36-0.727 0-0.199-0.099-0.299-0.41-0.299-0.396 0.021-0.759 0.144-1.069 0.344l0.009-0.005c-0.471 0.291-0.878 0.62-1.239 0.994l-0.002 0.002c-0.46 0.442-0.883 0.913-1.269 1.415l-0.022 0.030c-0.444 0.562-0.841 1.159-1.191 1.782-0.368 0.563-0.586 1.253-0.586 1.993 0 0.073 0.002 0.146 0.006 0.218l-0-0.010c0.056 0.606 0.359 1.131 0.807 1.481l0.005 0.003c0.4 0.252 0.887 0.402 1.409 0.402 0.124 0 0.246-0.008 0.365-0.025l-0.014 0.002c0.969-0.112 1.843-0.446 2.593-0.95l-0.021 0.013c0.397-0.239 0.781-0.497 1.15-0.777 0.4-0.309 0.781-0.628 1.151-0.996s0.71-0.667 1.001-0.995c0.278-0.283 0.539-0.582 0.78-0.897 0.159-0.249 0.429-0.415 0.739-0.428l0.002-0c0.291-0.019 0.585 0.035 0.85 0.16 0.254 0.115 0.46 0.316 0.58 0.567 0.045 0.095 0.071 0.206 0.071 0.323 0 0.184-0.065 0.353-0.172 0.485l0.001-0.001c-0.225 0.325-0.469 0.638-0.73 0.936-0.311 0.349-0.661 0.727-1.061 1.125s-0.82 0.787-1.261 1.185c-0.409 0.37-0.852 0.732-1.313 1.073l-0.047 0.033c-0.776 0.631-1.689 1.131-2.683 1.448l-0.059 0.016c-0.857 0.258-1.747 0.389-2.642 0.388-0.001 0-0.003 0-0.004 0-0.795 0-1.553-0.154-2.248-0.433l0.041 0.014c-0.571-0.207-1.051-0.55-1.417-0.991l-0.004-0.005c-0.361-0.44-0.626-0.974-0.756-1.558l-0.005-0.025c-0.092-0.388-0.145-0.833-0.145-1.291 0-0.145 0.005-0.289 0.016-0.432l-0.001 0.019c0.041-0.604 0.149-1.202 0.32-1.782 0.159-0.562 0.385-1.104 0.671-1.614zM118.024 24.361c0.179-0.256 0.47-0.422 0.8-0.429l0.001-0c0.311-0.023 0.623 0.040 0.9 0.18 0.26 0.119 0.472 0.322 0.6 0.578 0.038 0.084 0.061 0.182 0.061 0.285 0 0.191-0.077 0.365-0.201 0.491l0-0c-0.15 0.179-0.36 0.448-0.62 0.797s-0.57 0.727-0.92 1.125c-0.35 0.398-0.731 0.807-1.131 1.235-0.391 0.421-0.805 0.82-1.24 1.195-0.628 0.594-1.35 1.097-2.141 1.482l-0.051 0.022c-0.475 0.233-1.034 0.369-1.625 0.369-0.027 0-0.054-0-0.080-0.001l0.004 0c-0.473-0.016-0.903-0.186-1.245-0.462l0.004 0.003c-0.339-0.283-0.628-0.611-0.861-0.978l-0.010-0.017-1.591 0.995c-0.653 0.326-1.423 0.517-2.237 0.517-0.111 0-0.221-0.004-0.33-0.011l0.015 0.001c-0.026 0.001-0.056 0.001-0.087 0.001-0.733 0-1.418-0.204-2.002-0.558l0.017 0.010c-0.58-0.373-1.028-0.908-1.283-1.542l-0.008-0.022c-0.199-0.517-0.315-1.115-0.315-1.74 0-0.233 0.016-0.462 0.047-0.686l-0.003 0.026c0.133-1.138 0.488-2.17 1.021-3.086l-0.020 0.038c0.582-1.096 1.282-2.037 2.102-2.858l-0 0c0.727-0.738 1.534-1.396 2.406-1.959l0.055-0.034c0.694-0.457 1.493-0.845 2.34-1.125l0.072-0.020c0.593-0.211 1.278-0.344 1.99-0.368l0.011-0c0.34-0.005 0.678 0.049 1.001 0.159 0.281 0.105 0.553 0.235 0.81 0.389 0.287 0.156 0.555 0.343 0.801 0.557 0.195-0.372 0.523-0.656 0.92-0.796 0.291-0.127 0.63-0.2 0.987-0.2 0.079 0 0.157 0.004 0.234 0.011l-0.010-0.001c0.339 0.027 0.656 0.184 0.88 0.439 0.201 0.249 0.17 0.578-0.070 0.995s-0.55 1.096-0.92 1.813c-0.37 0.718-0.751 1.454-1.151 2.201s-0.771 1.444-1.13 2.102c-0.291 0.567-0.574 1.040-0.882 1.493l0.031-0.049c-0.18 0.338-0.25 0.567-0.2 0.707s0.17 0.199 0.39 0.189c0.259-0.032 0.509-0.121 0.731-0.259 0.307-0.17 0.586-0.385 0.83-0.637 0.521-0.548 0.941-0.996 1.261-1.305 0.387-0.388 0.734-0.812 1.040-1.264zM111.26 25.645c0.798-0.959 1.421-2.095 1.803-3.337l0.018-0.069c0.13-0.432 0.183-0.884 0.16-1.334-0.009-0.34-0.166-0.642-0.409-0.845l-0.002-0.001c-0.187-0.129-0.419-0.206-0.669-0.206-0.118 0-0.232 0.017-0.34 0.049l0.008-0.002c-0.441 0.102-0.861 0.281-1.24 0.528-0.519 0.337-0.97 0.698-1.384 1.098l0.002-0.002c-0.49 0.483-0.948 0.993-1.375 1.529l-0.027 0.035c-0.398 0.525-0.78 1.117-1.115 1.739l-0.036 0.073c-0.259 0.464-0.487 1.002-0.656 1.566l-0.015 0.057c-0.092 0.301-0.145 0.648-0.145 1.006 0 0.116 0.005 0.23 0.016 0.343l-0.001-0.014c0.021 0.342 0.183 0.642 0.428 0.845l0.002 0.002c0.18 0.131 0.404 0.209 0.648 0.209 0.090 0 0.177-0.011 0.261-0.031l-0.008 0.002c0.476-0.095 0.899-0.268 1.276-0.507l-0.015 0.009c0.532-0.334 0.993-0.699 1.412-1.107l-0.002 0.002c0.499-0.495 0.959-1.029 1.375-1.596l0.026-0.037z"></path>
</symbol>
<symbol id="icon-artzo" viewBox="0 0 130 32">
<path d="M89.71 23.050c1.31 0.017 2.611-0.236 3.818-0.743 1.316-0.593 2.436-1.223 3.493-1.94l-0.080 0.051 5.343 6.998c-0.818 0.759-1.754 1.408-2.775 1.911l-0.068 0.030c-0.943 0.462-2.048 0.869-3.198 1.161l-0.121 0.026c-1.042 0.274-2.292 0.496-3.571 0.621l-0.102 0.008c-1.165 0.112-2.52 0.176-3.89 0.176h-0.001c-1.427-0.001-2.834-0.076-4.221-0.221l0.175 0.015c-1.467-0.142-2.753-0.335-4.017-0.589l0.251 0.042c-1.312-0.251-2.41-0.533-3.482-0.874l0.214 0.059c-0.997-0.315-1.842-0.665-2.65-1.077l0.097 0.045 9.638-19.304h-7.189v-8.95h22.067l-10.531 22.555h0.799zM119.009 12.532c-0.299-0.69-0.72-1.275-1.242-1.752l-0.004-0.003c-0.528-0.496-1.151-0.897-1.838-1.173l-0.040-0.014c-0.669-0.287-1.448-0.454-2.267-0.454s-1.597 0.167-2.305 0.468l0.038-0.015c-1.389 0.554-2.485 1.595-3.098 2.907l-0.015 0.035c-0.302 0.629-0.478 1.368-0.478 2.147s0.176 1.518 0.491 2.178l-0.013-0.031c0.627 1.347 1.723 2.388 3.074 2.928l0.038 0.014c0.669 0.287 1.448 0.454 2.267 0.454s1.597-0.167 2.305-0.469l-0.038 0.015c0.727-0.29 1.35-0.692 1.881-1.19l-0.003 0.003c0.525-0.48 0.946-1.065 1.233-1.721l0.013-0.033c0.288-0.632 0.456-1.37 0.456-2.147s-0.168-1.516-0.469-2.181l0.013 0.033zM127.827 20.511c-0.837 1.829-1.954 3.386-3.315 4.691l-0.005 0.005c-1.387 1.322-3.030 2.39-4.845 3.122l-0.103 0.037c-1.795 0.72-3.876 1.137-6.054 1.137s-4.259-0.418-6.167-1.177l0.113 0.040c-3.684-1.487-6.586-4.265-8.199-7.761l-0.039-0.094c-0.773-1.691-1.223-3.668-1.223-5.75s0.45-4.059 1.259-5.838l-0.036 0.089c0.835-1.826 1.953-3.38 3.315-4.681l0.006-0.006c1.388-1.302 3.017-2.367 4.81-3.118l0.107-0.040c1.792-0.738 3.873-1.166 6.054-1.166s4.262 0.428 6.163 1.206l-0.109-0.039c1.909 0.786 3.546 1.852 4.947 3.166l-0.009-0.008c1.371 1.304 2.489 2.859 3.282 4.594l0.038 0.093c0.774 1.691 1.225 3.668 1.225 5.75s-0.451 4.059-1.261 5.838l0.036-0.088h0.011zM68.193 9.446v19.613h-9.389v-19.613h-5.789v-8.952h20.915v8.95h-5.737zM42.184 9.589c-0.394-0.401-0.942-0.65-1.548-0.65-0.017 0-0.035 0-0.052 0.001l0.003-0h-1.453v4.376h1.453c0.013 0 0.028 0 0.044 0 0.608 0 1.158-0.249 1.554-0.65l0-0c0.408-0.391 0.662-0.94 0.663-1.548v-0c0-0 0-0.001 0-0.001 0-0.608-0.254-1.158-0.662-1.547l-0.001-0.001v0.021zM48.678 19.025l6.536 9.981h-10.084c-1.459-2.064-2.594-3.613-3.403-4.645-0.573-0.763-1.144-1.436-1.752-2.074l0.009 0.009c-0.362-0.35-0.581-0.464-0.643-0.35-0.065 0.104-0.104 0.231-0.104 0.366 0 0.002 0 0.003 0 0.005v-0 6.689h-9.337v-28.511h11.433c1.381 0.002 2.745 0.309 3.994 0.899 1.252 0.564 2.389 1.356 3.352 2.333 1.009 0.971 1.825 2.134 2.39 3.431l0.027 0.069c0.525 1.27 0.789 2.632 0.778 4.005-0.003 1.49-0.304 2.908-0.846 4.201l0.027-0.072c-0.58 1.422-1.383 2.639-2.379 3.668l0.003-0.003zM14.379 11.572l-1.597 6.11h3.112l-1.514-6.111zM19.224 29.006l-0.903-3.272h-7.947l-0.893 3.272h-9.482l9.234-28.511h10.24l9.233 28.511h-9.481z"></path>
</symbol>
<symbol id="icon-captain" viewBox="0 0 109 32">
<path d="M4.888 31.040c-1.81 0-3.066-0.368-3.786-1.115-0.687-0.873-1.102-1.989-1.102-3.201 0-0.167 0.008-0.332 0.023-0.494l-0.002 0.021v-22.429c-0.006-0.080-0.010-0.174-0.010-0.268 0-1.004 0.405-1.913 1.060-2.573l-0 0c0.649-0.602 1.521-0.972 2.479-0.972 0.043 0 0.085 0.001 0.127 0.002l-0.006-0h8.203l1.080 5.818h-5.975c-0.37 0-0.555 0.194-0.555 0.602v18.23c0 0.407 0.185 0.601 0.555 0.601h5.976l-1.12 5.818-6.948-0.038zM21.092 27.162l-0.565 3.879h-6.277l5.625-31.031h6.657l5.606 31.030h-6.248l-0.565-3.88h-4.233zM21.772 22.236h2.92l-1.469-10.968-1.45 10.968zM46.114 0.010c0.080-0.006 0.173-0.010 0.267-0.010 0.979 0 1.865 0.397 2.507 1.038v0c0.642 0.764 0.972 1.74 0.924 2.735v14.855c0 0.012 0 0.027 0 0.042 0 0.571-0.071 1.125-0.204 1.654l0.010-0.047c-0.126 0.488-0.37 0.937-0.71 1.309-0.373 0.386-0.833 0.685-1.349 0.866l-0.024 0.007c-0.692 0.231-1.42 0.34-2.15 0.32h-5.325v8.262h-6.19v-31.031h12.243zM40.060 5.45v12.19h3.094c0.253 0 0.419-0.050 0.487-0.146 0.070-0.118 0.111-0.259 0.111-0.41 0-0.030-0.002-0.059-0.005-0.088l0 0.004v-10.957c0-0.398-0.185-0.592-0.555-0.592h-3.133zM64.672 0.010l1.528 5.818h-4.146v25.213h-6.354v-25.213h-4.165l1.624-5.818h11.513zM71.339 27.162l-0.555 3.879h-6.277l5.586-31.031h6.667l5.625 31.030h-6.239l-0.554-3.88h-4.253zM72.039 22.313h2.92l-1.47-11.045-1.45 11.045zM84.127 0.010h6.228v31.030h-6.228v-31.030zM92.944 0.010h5.927l3.182 12.451v-12.45h6.404v31.030h-6.404l-3.348-12.965v12.964h-5.76v-31.030z"></path>
</symbol>
<symbol id="icon-choc" viewBox="0 0 125 32">
<path d="M28.675 25.78c-1.632 1.86-3.618 3.367-5.858 4.423l-0.109 0.046c-2.134 1.011-4.631 1.619-7.265 1.66l-0.015 0c-9.267 0-15.428-5.91-15.428-15.61 0-10 7.558-16 13.288-16 0.127-0.007 0.275-0.011 0.424-0.011 1.197 0 2.334 0.259 3.358 0.724l-0.051-0.021c1.2 0.542 2.206 1.325 2.992 2.292l0.012 0.015 1.005-2.429h6.865v12.301h-7.789c-0.131-2.819-1.528-5.469-4.633-5.469s-5.196 3.869-5.196 8.6c0 4.31 2.231 8.18 6.381 8.18 3.669 0 6.553-3.83 6.945-4.26l5.076 5.56zM44.596 0.83v5.74h-2.714v6.56h8.302v-6.56h-2.573v-5.74h14.202v5.74h-2.512v18.91h2.513v5.74h-14.203v-5.74h2.573v-6.57h-8.302v6.57h2.714v5.74h-14.173v-5.74h2.413v-18.91h-2.411v-5.74h14.172zM63.562 15.83c0-9.35 6.302-15.83 15.347-15.83 10.715 0 15.7 6.39 15.7 16.17s-5.518 15.83-15.398 15.83c-9.137 0-15.65-5.26-15.65-16.13v-0.040zM83.664 16.13c0-5.26-1.437-9.469-4.804-9.469-2.674 0-4.503 3.78-4.503 9.171 0 5.699 2.010 9.299 4.845 9.299s4.472-3.56 4.472-8.96l-0.009-0.040zM124.632 25.78c-1.632 1.86-3.618 3.367-5.858 4.423l-0.109 0.046c-2.134 1.011-4.631 1.619-7.265 1.66l-0.015 0c-9.267 0-15.428-5.91-15.428-15.61 0-10 7.559-16 13.288-16 0.127-0.007 0.275-0.011 0.424-0.011 1.197 0 2.334 0.259 3.357 0.724l-0.051-0.021c1.2 0.542 2.206 1.325 2.992 2.292l0.012 0.015 1.005-2.429h6.865v12.301h-7.83c-0.131-2.819-1.528-5.469-4.633-5.469s-5.197 3.869-5.197 8.6c0 4.31 2.232 8.18 6.382 8.18 3.669 0 6.553-3.83 6.946-4.26l5.116 5.56z"></path>
</symbol>
<symbol id="icon-cupcakes" viewBox="0 0 120 32">
<path d="M31.875 4.067c0.282 0.311 0.362 0.551 0.252 0.731s-0.352 0.16-0.714 0c-0.326-0.175-0.71-0.287-1.118-0.31l-0.007-0c-0.008 0-0.017 0-0.027 0-0.348 0-0.667-0.129-0.91-0.342l0.002 0.001c-0.709-0.702-1.563-1.26-2.513-1.624l-0.050-0.017c-0.913-0.361-1.97-0.604-3.073-0.678l-0.032-0.002c-0.295-0.023-0.638-0.037-0.984-0.037-0.781 0-1.546 0.068-2.29 0.198l0.079-0.011c-0.981 0.157-1.937 0.439-2.844 0.84-1.15 0.541-2.14 1.158-3.047 1.875l0.032-0.025c-1.231 0.922-2.319 1.863-3.339 2.872l0.003-0.003c-1.145 1.102-2.21 2.264-3.2 3.489l-0.056 0.071c-0.948 1.185-1.864 2.511-2.686 3.899l-0.088 0.16c-0.735 1.197-1.411 2.582-1.954 4.032l-0.055 0.168c-0.452 1.214-0.735 2.617-0.783 4.079l-0.001 0.022c-0.022 0.338 0.074 0.673 0.27 0.95 0.185 0.232 0.427 0.411 0.704 0.52 0.303 0.109 0.621 0.173 0.944 0.19 0.305 0.015 0.61 0.015 0.915 0 1.116-0.117 2.137-0.361 3.102-0.719l-0.088 0.028c1.177-0.415 2.156-0.844 3.098-1.333l-0.134 0.063c1.114-0.569 2.022-1.097 2.9-1.666l-0.126 0.077c0.985-0.611 1.771-1.142 2.538-1.698l-0.127 0.088c0.724-0.52 1.367-1 1.92-1.389s0.954-0.701 1.235-0.88c0.396-0.29 0.858-0.523 1.355-0.672l0.032-0.008c0.378-0.048 0.718-0.176 1.014-0.365l-0.010 0.006 1.287-0.82c0.301-0.17 0.483-0.22 0.532-0.15s0 0.23-0.261 0.46c-1.070 1.136-2.171 2.198-3.322 3.204l-0.055 0.047c-1.176 1.019-2.371 1.999-3.587 3-0.66 0.521-1.411 1.054-2.186 1.552l-0.114 0.069c-0.78 0.515-1.708 1.053-2.665 1.541l-0.169 0.078c-0.813 0.416-1.808 0.842-2.834 1.205l-0.181 0.056c-0.914 0.324-1.875 0.497-2.844 0.509-0.067 0.003-0.146 0.004-0.224 0.004-0.857 0-1.674-0.17-2.42-0.479l0.042 0.015c-0.698-0.297-1.282-0.744-1.732-1.302l-0.007-0.008c-0.438-0.533-0.782-1.163-0.994-1.85l-0.010-0.039c-0.173-0.613-0.273-1.316-0.273-2.043 0-0.051 0.001-0.103 0.002-0.154l-0 0.008c0.052-1.566 0.365-3.043 0.895-4.412l-0.031 0.091c0.627-1.725 1.352-3.206 2.211-4.596l-0.061 0.105c0.992-1.621 2.020-3.022 3.151-4.332l-0.035 0.041c1.156-1.341 2.368-2.554 3.663-3.673l0.044-0.038c1.131-0.975 2.386-1.877 3.718-2.663l0.121-0.066c1.052-0.662 2.27-1.197 3.566-1.54l0.092-0.021c1.24-0.257 2.501-0.404 3.768-0.44 0.151-0.005 0.327-0.008 0.505-0.008 2.579 0 5.012 0.62 7.16 1.719l-0.089-0.041c1.236 0.637 2.292 1.435 3.19 2.384l0.005 0.005zM20.481 19.119c-0.189 0.17-0.396 0.331-0.613 0.477l-0.020 0.013c-0.090 0-0.131 0-0.12-0.051 0.036-0.136 0.091-0.267 0.16-0.39 0.079-0.139 0.15-0.283 0.211-0.429 0.173-0.41 0.316-0.89 0.406-1.388l0.006-0.043c0.034-0.369 0.18-0.717 0.421-1l0.734-0.86c0.331-0.39 0.723-0.82 1.186-1.28 0.478-0.47 0.982-0.918 1.508-1.34l0.039-0.030c0.554-0.438 1.149-0.819 1.779-1.14 0.136-0.073 0.298-0.116 0.47-0.116 0.119 0 0.234 0.021 0.34 0.059l-0.007-0.002c0.29 0.084 0.563 0.219 0.804 0.4 0.219 0.163 0.401 0.371 0.532 0.61 0.054 0.080 0.085 0.179 0.085 0.285s-0.032 0.205-0.087 0.287l0.001-0.002c-0.339 0.632-0.715 1.242-1.125 1.83-0.434 0.591-0.927 1.318-1.398 2.061l-0.1 0.168c-0.405 0.632-0.856 1.418-1.273 2.223l-0.083 0.177c-0.369 0.714-0.648 1.469-0.834 2.25 0.738-0.424 1.376-0.89 1.958-1.418l-0.009 0.008c0.684-0.611 1.357-1.28 2.010-2s1.316-1.46 2.010-2.211l1.779-2.080c0.104-0.152 0.278-0.251 0.474-0.251 0.068 0 0.133 0.012 0.193 0.033l-0.004-0.001c0.278 0.077 0.531 0.226 0.733 0.429 0.214 0.221 0.376 0.488 0.472 0.78 0.053 0.118 0.084 0.255 0.084 0.4s-0.031 0.282-0.086 0.406l0.003-0.006c-0.552 1.022-1.035 2.21-1.386 3.454l-0.030 0.126c0.944-0.554 1.748-1.102 2.513-1.698l-0.051 0.038c0.444-0.352 1.056-0.814 1.675-1.267l0.204-0.142c0.141-0.097 0.292-0.173 0.453-0.23l0.502-0.151c0.244-0.074 0.447-0.152 0.643-0.242l-0.030 0.013c0.234-0.1 0.516-0.24 0.844-0.419 0.433-0.231 0.664-0.301 0.684-0.231s-0.11 0.27-0.422 0.57c-0.563 0.56-1.156 1.16-1.799 1.79-0.616 0.609-1.251 1.212-1.898 1.803l-0.052 0.047c-0.608 0.56-1.263 1.11-1.942 1.63l-0.068 0.050c-0.53 0.445-1.122 0.853-1.752 1.201l-0.057 0.029c-0.106 0.065-0.234 0.103-0.37 0.103-0.087 0-0.17-0.015-0.248-0.044l0.005 0.002c-0.252-0.070-0.472-0.173-0.671-0.306l0.008 0.005c-0.213-0.135-0.394-0.301-0.539-0.494l-0.004-0.005c-0.123-0.149-0.201-0.34-0.21-0.549l-0-0.002c-0.016-0.157-0.026-0.338-0.026-0.522 0-0.246 0.017-0.488 0.049-0.725l-0.003 0.028c-0.665 0.683-1.343 1.336-2.042 1.966l-0.038 0.034c-0.717 0.608-1.512 1.182-2.349 1.693l-0.083 0.047c-0.281 0.135-0.595 0.186-0.904 0.15-0.434-0.032-0.838-0.114-1.221-0.24l0.036 0.010c-0.385-0.133-0.719-0.319-1.011-0.555l0.006 0.005c-0.265-0.22-0.433-0.55-0.433-0.919 0-0.007 0-0.015 0-0.022l-0 0.001c-0.004-0.059-0.006-0.129-0.006-0.198 0-0.39 0.065-0.766 0.184-1.116l-0.007 0.024c0.152-0.486 0.329-0.963 0.533-1.43 0.221-0.5 0.462-1 0.733-1.47l0.744-1.37c-0.483 0.46-0.955 0.909-1.417 1.37-0.438 0.436-0.889 0.86-1.353 1.271l-0.033 0.029zM39.915 15.269c-0.633 0.74-1.226 1.38-1.729 1.94-0.32 0.408-0.754 0.713-1.246 0.88-0.211 0.013-0.421 0.013-0.632 0-0.236 0.013-0.463 0.085-0.664 0.21-0.322 0.155-0.599 0.339-0.849 0.554l0.005-0.004c-0.226 0.192-0.475 0.38-0.735 0.552l-0.029 0.018c-0.181 0.12-0.211 0.070-0.101-0.13 0.111-0.2 0.523-0.741 1.207-1.6 0.051-0.023 1.098-1.325 2.139-2.63l1.055-1.37c0.868-1.090 1.745-2.32 2.558-3.594l0.105-0.176c0.091-0.117 0.232-0.191 0.39-0.191 0.051 0 0.1 0.008 0.147 0.022l-0.004-0.001c0.236 0.053 0.463 0.141 0.674 0.26 0.248 0.117 0.472 0.284 0.653 0.49 0.181 0.21 0.261 0.379 0.231 0.53-0.211 0.631-0.423 1.436-0.588 2.259l-0.024 0.141c0.735-0.514 1.617-0.869 2.572-0.997l0.030-0.003c0.076-0.008 0.164-0.012 0.253-0.012 0.432 0 0.84 0.104 1.199 0.289l-0.015-0.007c0.463 0.221 0.89 0.51 1.266 0.86 0.34 0.309 0.63 0.665 0.863 1.059l0.012 0.021c0.189 0.281 0.291 0.611 0.291 0.95-0.044 0.851-0.355 1.621-0.85 2.237l0.006-0.008c-0.518 0.65-1.126 1.2-1.81 1.642l-0.029 0.018c0.813-0.261 1.6-0.595 2.351-1 0.633-0.36 1.166-0.68 1.608-1s0.824-0.55 1.135-0.76c0.256-0.195 0.565-0.335 0.901-0.398l0.013-0.002c0.126-0.013 0.255-0.013 0.381 0 0.118-0.004 0.228-0.033 0.326-0.082l-0.005 0.002c0.154-0.073 0.286-0.16 0.405-0.262l-0.002 0.002 0.653-0.54c0.181-0.17 0.291-0.23 0.342-0.17s0.051 0.12 0 0.17c-0.608 0.96-1.271 1.795-2.013 2.553l0.003-0.003c-0.789 0.825-1.646 1.571-2.568 2.232l-0.055 0.037c-0.856 0.616-1.829 1.184-2.855 1.656l-0.109 0.045c-0.979 0.435-2.019 0.716-3.085 0.829-0.048 0.004-0.103 0.007-0.159 0.007-0.19 0-0.374-0.028-0.547-0.080l0.013 0.003c-0.404-0.099-0.739-0.205-1.065-0.33l0.060 0.020c-0.342-0.127-0.637-0.279-0.91-0.461l0.016 0.010c-0.226-0.137-0.412-0.318-0.549-0.533l-0.004-0.007-0.16 0.42c-0.301 0.84-0.613 1.699-0.915 2.57-0.426 1.231-0.766 2.101-1.129 2.958l0.124-0.329c-0.429 1.022-0.84 1.854-1.293 2.658l0.066-0.128c-0.469 0.854-0.981 1.591-1.562 2.268l0.015-0.018c-0.108 0.113-0.261 0.183-0.429 0.183-0.044 0-0.086-0.005-0.127-0.014l0.004 0.001c-0.256-0.055-0.474-0.19-0.632-0.378l-0.001-0.002c-0.212-0.24-0.378-0.528-0.478-0.844l-0.005-0.017c-0.074-0.247-0.116-0.531-0.116-0.825 0-0.139 0.010-0.276 0.028-0.41l-0.002 0.016c0.298-2.196 0.901-4.186 1.771-6.025l-0.053 0.124c1.111-2.459 2.148-4.444 3.277-6.367l-0.172 0.318c0.121-0.23 0.261-0.46 0.403-0.691 0.132-0.224 0.276-0.44 0.432-0.649l0.322-0.97zM46.687 14.319c-1.121 0.031-2.139 0.449-2.93 1.125l0.006-0.005c-0.831 0.701-1.558 1.516-2.161 2.419 0.099-0.54-0.026-0.047-0.148 0.448l-0.214 1.022c-0.12 0.47-0.25 1-0.402 1.46l0.221-0.109c0.669-0.299 1.243-0.633 1.776-1.020l-0.028 0.019c0.691-0.467 1.295-0.957 1.853-1.495l-0.004 0.004c0.571-0.533 1.060-1.142 1.456-1.812l0.021-0.038c0.373-0.606 0.564-1.308 0.552-2.019zM54.264 20.909c0.983-0.035 1.911-0.23 2.772-0.559l-0.059 0.020c0.997-0.371 1.848-0.785 2.652-1.27l-0.070 0.039c0.905-0.544 1.679-1.086 2.415-1.674l-0.043 0.033c0.754-0.6 1.437-1.16 2.010-1.7 0.112-0.117 0.27-0.19 0.444-0.19 0.006 0 0.013 0 0.019 0l-0.001-0c0.12 0 0.101 0.179-0.081 0.46-0.269 0.437-0.486 0.944-0.624 1.482l-0.008 0.038c-0.045 0.349-0.174 0.662-0.366 0.925l0.004-0.006c-0.269 0.322-0.538 0.612-0.821 0.888l-0.003 0.002c-0.371 0.362-0.766 0.697-1.187 1-0.442 0.34-0.914 0.669-1.396 1-0.419 0.276-0.899 0.522-1.406 0.713l-0.051 0.017c-0.389 0.169-0.849 0.317-1.326 0.42l-0.051 0.009c-0.451 0.113-0.974 0.188-1.512 0.21l-0.015 0c-0.425-0.018-0.823-0.112-1.187-0.269l0.022 0.008c-0.484-0.197-0.902-0.442-1.278-0.738l0.011 0.008c-0.371-0.295-0.707-0.631-1.005-1-0.248-0.267-0.418-0.61-0.471-0.991l-0.001-0.010c-0.040-0.337-0.063-0.728-0.063-1.123 0-0.858 0.107-1.691 0.308-2.486l-0.015 0.070c0.266-1.053 0.682-2.063 1.235-3 0.541-0.91 1.211-1.682 1.994-2.318l0.016-0.012c0.754-0.619 1.634-1.118 2.593-1.451l0.060-0.018c0.161-0.054 0.345-0.085 0.538-0.085s0.377 0.031 0.55 0.089l-0.012-0.004c0.411 0.131 0.803 0.317 1.165 0.55 0.342 0.221 0.65 0.491 0.915 0.8 0.211 0.225 0.337 0.514 0.362 0.82-0.007 0.367-0.103 0.71-0.267 1.011l0.006-0.012c-0.2 0.404-0.424 0.795-0.674 1.171-0.261 0.4-0.563 0.819-0.874 1.25l-0.904 1.22c-0.281 0.36-0.483 0.48-0.613 0.379-0.131-0.099-0.11-0.37 0-0.8 0.101-0.28 0.171-0.499 0.211-0.659 0.035-0.131 0.056-0.282 0.061-0.437l0-0.003c0-0.005 0-0.011 0-0.018 0-0.123-0.022-0.241-0.063-0.35l0.002 0.007c-0.036-0.107-0.071-0.242-0.097-0.379l-0.003-0.021c-0.004-0.042-0.007-0.090-0.007-0.139 0-0.158 0.025-0.309 0.070-0.452l-0.003 0.011c0.071-0.217 0.155-0.431 0.251-0.64 0.101-0.23 0.201-0.47 0.301-0.73 0.104-0.258 0.182-0.526 0.232-0.8-0.797 0.328-1.47 0.815-2.005 1.425l-0.005 0.006c-0.639 0.701-1.188 1.501-1.621 2.369l-0.027 0.061c-0.469 0.926-0.808 1.912-1.005 2.931-0.099 0.436-0.156 0.936-0.156 1.45s0.057 1.014 0.165 1.495l-0.009-0.045zM65.518 13.909c0.633-0.622 1.311-1.202 2.028-1.734l0.052-0.037c0.468-0.353 1.018-0.628 1.614-0.792l0.034-0.008c0.162-0.044 0.349-0.070 0.541-0.070 0.31 0 0.604 0.066 0.87 0.184l-0.014-0.005c0.523 0.254 0.966 0.59 1.332 0.997l0.003 0.004 0.583-0.87c0.106-0.133 0.268-0.217 0.449-0.217 0.062 0 0.122 0.010 0.178 0.028l-0.004-0.001c0.303 0.048 0.593 0.164 0.844 0.34 0.251 0.16 0.461 0.376 0.613 0.63 0.068 0.086 0.109 0.196 0.109 0.315s-0.041 0.229-0.11 0.316l0.001-0.001c-0.253 0.35-0.482 0.718-0.683 1.101-0.321 0.541-0.657 1.198-0.955 1.875l-0.049 0.125c-0.322 0.749-0.704 1.49-1.005 2.23-0.241 0.51-0.448 1.107-0.591 1.729l-0.012 0.061c-0.008 0.029-0.013 0.061-0.013 0.095s0.005 0.067 0.013 0.098l-0.001-0.003v0.23c0.522-0.298 1.022-0.632 1.497-1 0.686-0.493 1.219-0.897 1.743-1.311l-0.106 0.080 1.517-1.2 1.085-0.88c0.157-0.122 0.335-0.23 0.526-0.314l0.016-0.006c0.147-0.066 0.299-0.122 0.452-0.17l0.503-0.18c0.216-0.081 0.423-0.189 0.613-0.32 0.151-0.099 0.261-0.13 0.322-0.089s0 0.14-0.091 0.32c-1.005 1.32-2.009 2.6-3.175 3.849-0.312 0.33-0.653 0.71-1.005 1.14-0.382 0.426-0.8 0.821-1.246 1.18-0.402 0.325-0.862 0.601-1.359 0.807l-0.037 0.014c-0.247 0.101-0.534 0.159-0.834 0.159-0.237 0-0.465-0.036-0.68-0.104l0.016 0.004c-0.727-0.104-1.354-0.469-1.795-0.995l-0.004-0.004c-0.172-0.302-0.274-0.664-0.274-1.050 0-0.21 0.030-0.413 0.086-0.606l-0.004 0.015c-0.523 0.758-1.024 1.41-1.557 2.035l0.029-0.035c-0.417 0.523-0.908 0.965-1.462 1.316l-0.024 0.014c-1.739 1-3.015 0.669-3.909-1.1-0.19-0.408-0.301-0.886-0.301-1.39 0-0 0-0 0-0v0c-0.001-0.037-0.001-0.081-0.001-0.124 0-0.648 0.118-1.269 0.335-1.842l-0.012 0.036c0.3-0.867 0.67-1.618 1.12-2.311l-0.025 0.041c0.656-0.984 1.385-1.84 2.202-2.602l0.009-0.008v0.010zM66.051 20.159c0.951-1.028 1.886-2.133 2.77-3.278l0.084-0.113c0.743-0.966 1.593-2.146 2.409-3.349l0.173-0.271c-0.038-0.003-0.083-0.004-0.129-0.004-0.408 0-0.787 0.121-1.104 0.329l0.008-0.005c-0.503 0.299-0.983 0.633-1.437 1-0.472 0.371-0.904 0.73-1.297 1.090-0.284 0.238-0.54 0.487-0.777 0.753l-0.006 0.007c-0.315 0.36-0.65 0.81-1.005 1.35-0.347 0.474-0.712 1.029-1.051 1.6l-0.054 0.099c-0.32 0.522-0.596 1.071-0.824 1.64-0.125 0.218-0.199 0.48-0.199 0.759 0 0.135 0.017 0.267 0.050 0.392l-0.002-0.011c0.152 0.23 0.392 0.17 0.744-0.17l1.648-1.82zM94.791 16.389c0.134-0.073 0.275-0.134 0.422-0.18l0.402-0.109 0.493-0.17c0.19-0.080 0.432-0.19 0.713-0.34s0.522-0.28 0.573-0.211c0.051 0.071 0 0.231-0.312 0.51-0.615 0.752-1.213 1.423-1.837 2.068l0.008-0.009c-0.696 0.713-1.42 1.386-2.175 2.023l-0.046 0.038c-0.67 0.575-1.407 1.128-2.18 1.631l-0.081 0.049c-0.554 0.388-1.209 0.674-1.917 0.814l-0.033 0.005c-0.207 0.034-0.446 0.053-0.69 0.053-0.621 0-1.213-0.126-1.751-0.354l0.029 0.011c-0.657-0.224-1.197-0.648-1.561-1.199l-0.007-0.011c-0.253-0.447-0.41-0.978-0.432-1.543l-0-0.006c-0.051-0.596-0.051-1.195 0-1.79 0.058-0.504 0.403-0.915 0.865-1.067l0.009-0.003c0.389-0.177 0.768-0.375 1.136-0.59 0.43-0.259 0.84-0.55 1.225-0.871 0.386-0.344 0.739-0.722 1.055-1.129 0.328-0.351 0.579-0.766 0.733-1.221-0.87 0.274-1.623 0.691-2.272 1.23l0.011-0.009c-0.716 0.55-1.352 1.117-1.945 1.726l-0.004 0.004c-0.609 0.618-1.191 1.27-1.74 1.95l-0.039 0.050c-0.455 0.557-1.002 1.257-1.536 1.967l-0.132 0.183c-0.376 0.491-0.803 1.087-1.212 1.696l-0.085 0.134c-0.256 0.399-0.484 0.725-0.723 1.042l0.030-0.042c-0.167 0.284-0.447 0.487-0.776 0.549l-0.007 0.001c-0.111 0.020-0.239 0.031-0.369 0.031-0.538 0-1.031-0.193-1.414-0.514l0.003 0.003c-0.119-0.082-0.197-0.218-0.197-0.372 0-0.072 0.017-0.14 0.047-0.201l-0.001 0.003 3.597-6.47c-0.666 0.636-1.377 1.245-2.12 1.815l-0.061 0.045c-0.697 0.536-1.484 1.065-2.305 1.543l-0.106 0.057c-0.312 0.2-0.613 0.39-0.925 0.55s-0.542 0.29-0.703 0.371c-0.161 0.079-0.252 0.079-0.252 0 0-0.081 0.141-0.231 0.422-0.51 0.505-0.491 0.973-1.019 1.398-1.581 0.278-0.367 0.505-0.771 0.673-1.2 0.195-0.505 0.517-0.925 0.928-1.234l0.007-0.005 2.009-1.811c0.86-0.807 1.665-1.606 2.449-2.426l0.023-0.024c0.887-0.951 1.711-1.989 2.447-3.091l0.056-0.089c0.482-1 1.005-2 1.396-3.070s0.835-2.080 1.246-3.080c0.070-0.18 0.221-0.24 0.452-0.19 0.269 0.067 0.515 0.206 0.713 0.4 0.253 0.226 0.47 0.488 0.643 0.78 0.205 0.291 0.294 0.648 0.251 1-0.025 0.416-0.11 0.827-0.251 1.219-0.149 0.451-0.316 0.835-0.512 1.2l0.019-0.040c-0.183 0.383-0.38 0.711-0.605 1.017l0.012-0.018c-0.201 0.27-0.371 0.48-0.503 0.631-0.221 0.509-0.422 1-0.593 1.32s-0.331 0.71-0.512 1c-0.181 0.29-0.362 0.68-0.533 1s-0.402 0.78-0.653 1.26c0.616-0.381 1.261-0.716 1.929-1 0.559-0.221 1.206-0.35 1.884-0.35 0.111 0 0.222 0.003 0.332 0.010l-0.015-0.001c0.276 0.015 0.544 0.093 0.784 0.23 0.338 0.163 0.629 0.36 0.887 0.592l-0.003-0.003c0.264 0.237 0.485 0.519 0.653 0.83 0.16 0.286 0.206 0.621 0.131 0.941-0.166 0.563-0.403 1.055-0.706 1.498l0.012-0.018c-0.349 0.539-0.734 1.007-1.164 1.429l-0.001 0.001c-0.436 0.406-0.92 0.772-1.438 1.088l-0.039 0.022c-0.492 0.333-1.017 0.615-1.567 0.84-0.055 0.399 0.038 0.804 0.261 1.14 0.231 0.38 0.412 0.691 0.542 0.92 0.717-0.155 1.353-0.414 1.926-0.765l-0.027 0.015c0.826-0.492 1.502-0.938 2.157-1.41l-0.086 0.059c0.78-0.552 1.381-1.002 1.974-1.463l-0.125 0.094c0.384-0.327 0.812-0.628 1.266-0.888l0.041-0.022v0.010zM101.181 15.549c-0.305 0.439-0.642 0.856-1.005 1.251-0.413 0.429-0.853 0.834-1.316 1.21-0.409 0.347-0.862 0.676-1.338 0.972l-0.048 0.028c-0.389 0.261-0.817 0.46-1.267 0.589 0 0.281 0.020 0.563 0.061 0.84 0.026 0.247 0.112 0.484 0.251 0.691 0.137 0.271 0.413 0.453 0.731 0.453 0.026 0 0.051-0.001 0.076-0.003l-0.003 0c0.351-0.034 0.693-0.135 1.005-0.3 0.645-0.328 1.263-0.706 1.848-1.13 0.699-0.494 1.305-0.973 1.885-1.482l-0.025 0.022c0.639-0.563 1.218-1.104 1.781-1.663l-0.003 0.003c0.531-0.526 1.048-1.054 1.558-1.589l0.030-0.031c0.201-0.2 0.352-0.269 0.442-0.211 0.090 0.061 0.081 0.19 0 0.371-0.241 0.531-0.453 1.075-0.633 1.63-0.141 0.46-0.261 0.84-0.361 1.149-0.104 0.303-0.253 0.589-0.442 0.851-0.278 0.419-0.583 0.82-0.915 1.2-0.397 0.463-0.827 0.897-1.287 1.3-0.461 0.412-0.982 0.771-1.546 1.060l-0.042 0.019c-0.531 0.278-1.149 0.472-1.804 0.548l-0.025 0.002c-0.147 0.018-0.317 0.029-0.49 0.029-0.547 0-1.070-0.106-1.548-0.299l0.028 0.010c-0.842-0.274-1.556-0.842-2.009-1.6-0.384-0.667-0.617-1.465-0.633-2.315l-0-0.005c-0.002-0.060-0.003-0.13-0.003-0.2 0-0.851 0.141-1.669 0.4-2.432l-0.016 0.053c0.252-0.825 0.589-1.624 1.005-2.381 0.213-0.384 0.455-0.751 0.723-1.1 0.31-0.413 0.645-0.808 1.005-1.18 0.339-0.365 0.708-0.699 1.106-1 0.319-0.248 0.696-0.413 1.095-0.48 0.467-0.004 0.926 0.109 1.336 0.33 0.431 0.185 0.831 0.435 1.186 0.74 0.264 0.268 0.415 0.625 0.422 1 0.004 0.052 0.006 0.113 0.006 0.174 0 0.323-0.065 0.631-0.183 0.911l0.006-0.015c-0.148 0.348-0.327 0.682-0.532 1l-0.513 0.979zM96.971 16.869c0.608-0.589 1.165-1.223 1.669-1.899l0.029-0.041c0.502-0.661 0.934-1.416 1.262-2.224l0.024-0.066c-0.272 0.188-0.507 0.403-0.709 0.645l-0.005 0.006c-0.241 0.278-0.463 0.572-0.664 0.88-0.211 0.3-0.402 0.6-0.573 0.889s-0.322 0.531-0.422 0.711l-0.613 1.1zM118.203 15.869c0.413-0.3 0.643-0.429 0.694-0.36s-0.091 0.28-0.422 0.66c-0.693 0.838-1.317 1.557-1.957 2.262l0.047-0.053c-0.663 0.736-1.318 1.414-1.997 2.068l-0.012 0.012c-0.615 0.598-1.27 1.164-1.958 1.691l-0.052 0.039c-0.579 0.45-1.242 0.834-1.954 1.121l-0.055 0.020c-0.21 0.548-0.564 1.001-1.016 1.326l-0.009 0.006c-0.445 0.321-0.997 0.519-1.594 0.538l-0.004 0c-0.041 0.001-0.090 0.002-0.138 0.002-0.565 0-1.105-0.111-1.598-0.312l0.028 0.010c-0.61-0.236-1.132-0.575-1.569-1.001l0.001 0.001c-0.138-0.148-0.263-0.312-0.373-0.486l-0.008-0.014c-0.119-0.184-0.215-0.397-0.278-0.624l-0.004-0.016c-0.046-0.137-0.073-0.295-0.073-0.459 0-0.067 0.004-0.134 0.013-0.199l-0.001 0.008c0.036-0.226 0.162-0.417 0.339-0.538l0.003-0.002c0.13-0.106 0.298-0.17 0.481-0.17 0 0 0 0 0 0h0.684c0.241 0 0.472 0 0.693 0.080l0.513 0.090h1.005c0.313 0.003 0.627-0.021 0.935-0.070 0.080-0.381 0.121-0.771 0.12-1.16v-3.149c0-0.7-0.1-1.4-0.171-2.11-0.923 0.992-1.877 1.913-2.878 2.781l-0.046 0.039c-0.802 0.697-1.731 1.469-2.675 2.222l-0.179 0.138c-0.362 0.28-0.523 0.32-0.503 0.131 0.061-0.258 0.181-0.498 0.352-0.7 0.176-0.232 0.328-0.48 0.452-0.741 0.126-0.256 0.237-0.52 0.332-0.789l0.241-0.68c0.061-0.178 0.168-0.337 0.312-0.46 0.332-0.33 0.884-1 1.668-1.86 0.883-1.083 1.711-2.293 2.434-3.57l0.068-0.13c0.080-0.144 0.231-0.239 0.405-0.239 0.031 0 0.061 0.003 0.091 0.009l-0.003-0.001c0.246 0.034 0.483 0.119 0.693 0.25 0.232 0.141 0.443 0.309 0.633 0.5 0.151 0.122 0.262 0.286 0.322 0.47 0.231 1.35 0.442 2.74 0.632 4.19 0.189 1.415 0.222 2.846 0.101 4.269 0.574-0.293 1.068-0.626 1.518-1.009l-0.011 0.009c0.522-0.42 1.005-0.851 1.528-1.28s1.005-0.84 1.437-1.22c0.368-0.316 0.784-0.595 1.23-0.823l0.036-0.017c0.171-0.079 0.423-0.181 0.679-0.274l0.084-0.027c0.265-0.088 0.514-0.22 0.733-0.39v-0.010z"></path>
</symbol>
<symbol id="icon-architecture" viewBox="0 0 32 32">
<path  d="M30.827 2.639c0.725 0.725 1.173 1.727 1.173 2.833s-0.448 2.108-1.173 2.833l-3.527 3.528-7.134-7.131 3.529-3.529c0.726-0.725 1.727-1.173 2.834-1.173s2.109 0.448 2.834 1.173l-0-0 1.464 1.466zM2.809 22.064l15.941-15.946 7.134 7.13-15.95 15.942c-0.41 0.409-0.92 0.718-1.489 0.888l-0.025 0.006-6.506 1.859c-0.119 0.036-0.256 0.057-0.397 0.057-0.43 0-0.815-0.191-1.075-0.493l-0.002-0.002c-0.273-0.252-0.444-0.612-0.444-1.012 0-0.146 0.023-0.286 0.064-0.418l-0.003 0.010 1.86-6.507c0.172-0.595 0.481-1.106 0.891-1.514l0-0zM15.605 6.434l-9.135 9.135-5.47-5.475c-0.544-0.543-0.88-1.293-0.88-2.122s0.336-1.579 0.88-2.122l4.885-4.885c0.543-0.543 1.293-0.88 2.122-0.88s1.579 0.336 2.122 0.879l0 0 1.239 1.236c-0.019 0.018-0.044 0.038-0.063 0.058l-4.006 4.006c-0.181 0.181-0.293 0.431-0.293 0.707 0 0.552 0.448 1 1 1 0.276 0 0.526-0.112 0.707-0.293l4.006-4.003c0.019-0.020-0.013-0.041 0.056-0.063l2.828 2.822zM28.387 19.224c-0.023 0.018-0.043 0.036-0.062 0.056l-0 0-4.005 4.004c-0.176 0.18-0.285 0.427-0.285 0.699 0 0.552 0.448 1 1 1 0.272 0 0.519-0.109 0.699-0.285l4.005-4.005c0.019-0.075-0.013-0.044 0.056-0.062l1.239 1.239c0.543 0.543 0.878 1.293 0.878 2.121s-0.336 1.578-0.878 2.121l-4.887 4.886c-0.543 0.543-1.293 0.878-2.121 0.878s-1.578-0.336-2.121-0.878l-5.475-5.469 9.135-9.134 2.821 2.828z"></path>
</symbol>
<symbol id="icon-construction" viewBox="0 0 28 32">
<path  d="M14.118 20c2.042-0.002 3.906-0.762 5.328-2.013l-0.009 0.008c1.423-1.252 2.391-2.991 2.644-4.955l0.004-0.040h-15.933c0.239 1.929 1.181 3.705 2.648 4.994 1.412 1.243 3.276 2.003 5.318 2.006h0.001zM5.546 11h17.144c0.134-0.001 0.261-0.054 0.355-0.147s0.148-0.22 0.149-0.353v-2c-0.001-0.138-0.058-0.262-0.149-0.352l-0-0c-0.091-0.090-0.217-0.146-0.356-0.147h-0.505c0-0 0-0.001 0-0.002 0-1.442-0.438-2.781-1.189-3.892l0.016 0.025c-0.77-1.14-1.836-2.028-3.089-2.564l-0.046-0.017-1.742 3.45v-4c0-0.001 0-0.002 0-0.003 0-0.276-0.113-0.525-0.295-0.705l-0-0c-0.182-0.181-0.432-0.292-0.709-0.292-0.002 0-0.003 0-0.004 0h-2.017c-0.001 0-0.002 0-0.003 0-0.277 0-0.528 0.111-0.711 0.292l0-0c-0.182 0.181-0.295 0.431-0.295 0.707 0 0 0 0.001 0 0.001v-0 4l-1.739-3.454c-1.298 0.554-2.364 1.443-3.119 2.559l-0.016 0.025c-0.736 1.087-1.175 2.427-1.176 3.87v0h-0.504c-0.139 0.001-0.264 0.057-0.356 0.147l0-0c-0.094 0.094-0.148 0.22-0.149 0.353v1.944c-0.001 0.012-0.002 0.026-0.002 0.040 0 0.207 0.123 0.386 0.299 0.467l0.003 0.001c0.064 0.030 0.133 0.046 0.203 0.048zM19.836 22h-11.434c-0.001 0-0.003 0-0.004 0-2.315 0-4.413 0.932-5.938 2.442l0.001-0.001c-1.518 1.503-2.459 3.587-2.461 5.891v0c0 0.442 0.177 0.866 0.492 1.178 0.305 0.302 0.725 0.488 1.188 0.488h24.875c0.446 0 0.873-0.176 1.189-0.488 0.304-0.301 0.492-0.718 0.492-1.179v-0c0-0.001 0-0.001 0-0.002 0-1.15-0.235-2.245-0.659-3.241l0.020 0.054c-0.446-1.052-1.061-1.95-1.82-2.703l-0.001-0.001c-0.761-0.755-1.666-1.365-2.67-1.786l-0.055-0.021c-0.95-0.401-2.054-0.634-3.213-0.634-0.001 0-0.002 0-0.002 0h0z"></path>
</symbol>
<symbol id="icon-design" viewBox="0 0 32 32">
<path d="M0 2c0-1.105 0.895-2 2-2v0h8c1.105 0 2 0.895 2 2v0 24c0 3.314-2.686 6-6 6s-6-2.686-6-6v0-24zM8 4h-4v4h4v-4zM4 16h4v-4h-4v4zM6 27.5c0.828-0 1.499-0.672 1.499-1.5s-0.671-1.5-1.5-1.5c-0.828 0-1.5 0.671-1.5 1.499v0c0 0.001 0 0.002 0 0.004 0 0.826 0.67 1.496 1.496 1.496 0.001 0 0.003 0 0.004 0h-0zM14 26v-16.375l4.712-4.711c0.362-0.362 0.863-0.586 1.416-0.586s1.053 0.224 1.416 0.586l5.656 5.655c0.362 0.362 0.586 0.863 0.586 1.416s-0.224 1.053-0.586 1.416l-13.225 13.219c0.019-0.2 0.025-0.413 0.025-0.619zM23.425 20h6.575c1.105 0 2 0.895 2 2v0 8c0 1.105-0.895 2-2 2v0h-18.575l12-12z"></path>
</symbol>
<symbol id="icon-documentation" viewBox="0 0 24 32">
<path d="M20 0h-16c-2.209 0-4 1.791-4 4v0 24c0 2.209 1.791 4 4 4v0h16c2.209 0 4-1.791 4-4v0-24c0-2.209-1.791-4-4-4v0zM13 22h-8c-0.552 0-1-0.448-1-1s0.448-1 1-1v0h8c0.552 0 1 0.448 1 1s-0.448 1-1 1v0zM19 16h-14c-0.552 0-1-0.448-1-1s0.448-1 1-1v0h14c0.552 0 1 0.448 1 1s-0.448 1-1 1v0zM19 10h-14c-0.552 0-1-0.448-1-1s0.448-1 1-1v0h14c0.552 0 1 0.448 1 1s-0.448 1-1 1v0z"></path>
</symbol>
<symbol id="icon-energy" viewBox="0 0 24 32">
<path  d="M15.043 14h6.976c0.008-0 0.018-0 0.028-0 0.83 0 1.535 0.536 1.787 1.281l0.004 0.013c0.102 0.226 0.161 0.49 0.161 0.768 0 0.576-0.255 1.093-0.659 1.442l-0.002 0.002-16.013 14c-0.351 0.309-0.814 0.498-1.321 0.498-0.917 0-1.689-0.616-1.927-1.456l-0.003-0.014c-0.045-0.159-0.071-0.341-0.071-0.529 0-0.286 0.060-0.558 0.168-0.804l-0.005 0.013 4.81-11.213h-7.030c-0.84-0.024-1.549-0.561-1.824-1.308l-0.004-0.014c-0.075-0.201-0.118-0.434-0.118-0.677 0-0.6 0.265-1.138 0.683-1.505l0.002-0.002 16.012-14c0.35-0.308 0.813-0.496 1.319-0.496 0.916 0 1.689 0.615 1.927 1.456l0.003 0.014c0.12 0.437 0.088 0.903-0.091 1.319l-4.812 11.213z"></path>
</symbol>
<symbol id="icon-planing" viewBox="0 0 32 32">
<path  d="M22 6c0 0.004 0 0.008 0 0.013 0 0.907-0.203 1.767-0.566 2.536l0.015-0.036 3.3 5.7c-1.464 1.563-3.333 2.728-5.441 3.329l-0.084 0.021-3.225-5.562h-0.056l-4.2 7.344c1.27 0.416 2.732 0.656 4.251 0.656 0.002 0 0.004 0 0.006 0h-0c0.009 0 0.020 0 0.031 0 4.412 0 8.342-2.063 10.878-5.277l0.022-0.029c0.372-0.438 0.923-0.714 1.539-0.714 1.114 0 2.016 0.903 2.016 2.016 0 0.475-0.164 0.912-0.44 1.257l0.003-0.004c-3.33 4.125-8.383 6.743-14.049 6.75h-0.001c-0.006 0-0.014 0-0.021 0-2.253 0-4.409-0.415-6.396-1.173l0.123 0.041-3.541 6.113c-0.298 0.508-0.726 0.912-1.238 1.173l-0.017 0.008-3.464 1.731c-0.13 0.067-0.284 0.106-0.448 0.106-0.552 0-1-0.448-1-1v0-3.462c0.001-0.555 0.151-1.074 0.412-1.521l-0.008 0.014 3.75-6.475c-0.8-0.706-1.522-1.46-2.176-2.271l-0.027-0.035c-0.284-0.345-0.457-0.792-0.457-1.278 0-1.114 0.903-2.017 2.017-2.017 0.627 0 1.188 0.286 1.558 0.736l0.003 0.003c0.352 0.488 0.726 0.917 1.135 1.309l0.003 0.003 4.34-7.494c-0.347-0.736-0.55-1.599-0.55-2.51 0-3.314 2.686-6 6-6 3.313 0 5.998 2.684 6 5.997v0zM16 8c1.105 0 2-0.895 2-2s-0.895-2-2-2v0c-1.105 0-2 0.895-2 2s0.895 2 2 2v0zM23.256 24.619c2.152-0.834 4.008-1.95 5.634-3.33l-0.028 0.023 2.731 4.719c0.266 0.457 0.406 0.977 0.406 1.506v3.462c0 0 0 0.001 0 0.001 0 0.552-0.448 1-1 1-0.164 0-0.319-0.040-0.456-0.11l0.006 0.003-3.463-1.732c-0.529-0.271-0.956-0.674-1.249-1.167l-0.008-0.014-2.574-4.362z"></path>
</symbol>
</defs>
</svg>
