<?xml version="1.0" standalone="no"?>
<!DOCTYPE svg PUBLIC "-//W3C//DTD SVG 20010904//EN"
 "http://www.w3.org/TR/2001/REC-SVG-20010904/DTD/svg10.dtd">
<svg version="1.0" xmlns="http://www.w3.org/2000/svg"
 width="512.000000pt" height="512.000000pt" viewBox="0 0 512.000000 512.000000"
 preserveAspectRatio="xMidYMid meet">
<metadata>
Created by potrace 1.14, written by Peter Selinger 2001-2017
</metadata>
<g transform="translate(0.000000,512.000000) scale(0.100000,-0.100000)"
fill="#000000" stroke="none">
<path d="M2993 5032 c-18 -3 -23 -12 -28 -57 -7 -50 -9 -54 -38 -61 -28 -6
-35 -2 -67 37 l-37 43 -49 -29 c-27 -15 -50 -29 -52 -30 -1 -1 7 -27 17 -57
19 -55 19 -56 -1 -76 -20 -20 -21 -20 -76 -1 -30 10 -56 18 -57 17 -1 -2 -15
-25 -30 -52 l-28 -48 41 -35 c40 -33 52 -63 34 -89 -4 -6 -29 -15 -57 -20
l-50 -9 -3 -61 -3 -61 60 -13 c54 -11 59 -15 63 -41 3 -16 2 -29 -1 -29 -3 -1
-23 -16 -44 -34 l-38 -34 26 -48 c14 -26 27 -49 29 -52 2 -2 29 4 60 14 54 17
56 17 74 -2 18 -18 18 -20 0 -73 -20 -60 -22 -56 47 -93 l39 -21 38 44 c34 39
39 42 65 33 23 -8 29 -17 37 -59 5 -28 12 -52 17 -55 4 -3 32 -6 61 -5 l53 0
12 54 c18 84 49 93 104 29 l37 -42 34 18 c72 39 73 40 54 89 -20 53 -20 64 0
84 14 15 20 15 70 -1 30 -9 58 -15 62 -12 4 2 18 26 31 52 l24 47 -42 34 c-64
54 -54 88 30 106 l54 12 0 58 c0 50 -2 58 -20 63 -31 8 -58 12 -77 13 -10 1
-19 13 -23 31 -6 26 -1 34 35 68 l42 39 -27 49 c-15 27 -28 50 -29 51 -1 1
-26 -7 -56 -17 -54 -18 -55 -18 -76 1 l-22 20 20 55 c11 31 18 57 16 58 -1 2
-24 15 -51 31 l-47 27 -39 -43 c-36 -40 -41 -43 -67 -34 -25 9 -30 18 -38 63
-5 28 -14 52 -20 53 -51 3 -74 4 -93 1z m66 -79 c6 -21 11 -46 11 -55 0 -10 8
-18 18 -18 9 -1 35 -7 56 -15 l39 -14 37 40 c24 27 42 38 52 34 15 -6 15 -11
-1 -58 l-18 -52 42 -43 43 -43 46 16 c39 13 50 14 63 4 13 -11 10 -18 -27 -49
l-43 -36 14 -55 c15 -62 18 -65 75 -74 41 -6 64 -28 43 -41 -6 -3 -25 -8 -42
-11 -52 -8 -63 -19 -76 -75 l-12 -53 39 -35 c31 -27 38 -40 31 -52 -8 -15 -13
-14 -58 2 l-48 19 -42 -40 c-46 -44 -47 -49 -26 -108 13 -38 13 -42 -2 -48
-11 -4 -28 7 -53 33 l-37 39 -54 -15 c-53 -16 -54 -17 -64 -64 -6 -26 -18 -52
-27 -57 -18 -10 -23 -2 -33 61 -7 42 -9 43 -61 58 -58 17 -61 16 -98 -24 -22
-24 -39 -35 -49 -31 -14 5 -14 11 1 57 l16 50 -43 44 -43 44 -54 -18 c-49 -17
-53 -17 -56 -2 -2 10 13 32 36 53 l39 35 -16 46 c-8 26 -13 49 -10 52 9 9 -49
28 -109 35 -3 1 -5 9 -4 19 2 12 17 20 52 26 27 5 50 10 52 11 1 1 9 28 17 60
l15 57 -40 37 c-29 26 -38 40 -31 50 7 11 17 11 60 -4 l50 -16 44 44 c37 38
42 48 34 68 -24 63 -26 80 -10 86 11 4 28 -7 52 -35 l36 -41 55 17 c51 16 55
20 63 57 13 60 15 65 31 65 9 0 19 -16 25 -37z"/>
<path d="M2945 4782 c-161 -55 -243 -234 -178 -389 62 -148 248 -220 391 -152
177 86 223 313 93 462 -70 79 -204 113 -306 79z"/>
<path d="M1877 4977 c-15 -10 -16 -15 -5 -30 18 -24 48 -12 48 19 0 26 -17 31
-43 11z"/>
<path d="M1971 4957 c-15 -15 -14 -32 2 -45 17 -14 49 10 41 31 -8 21 -29 28
-43 14z"/>
<path d="M1806 4914 c-13 -35 -7 -51 18 -47 34 7 39 29 11 47 -21 14 -24 14
-29 0z"/>
<path d="M1987 4850 c-7 -26 31 -50 44 -29 5 8 9 22 9 32 0 25 -46 23 -53 -3z"/>
<path d="M1830 4815 c-10 -12 -10 -18 0 -30 24 -29 58 -7 44 30 -4 8 -12 15
-19 15 -7 0 -18 -7 -25 -15z"/>
<path d="M1920 4775 c0 -20 5 -25 24 -25 30 0 42 16 26 35 -21 25 -50 19 -50
-10z"/>
<path d="M1066 4765 c-66 -23 -96 -65 -96 -135 0 -103 109 -170 203 -125 45
22 69 60 75 116 10 102 -85 177 -182 144z"/>
<path d="M3973 4722 c-9 -5 -9 -12 0 -28 16 -29 58 -16 50 15 -5 21 -28 27
-50 13z"/>
<path d="M4075 4700 c-12 -38 20 -55 46 -24 11 14 10 18 -6 30 -25 19 -32 18
-40 -6z"/>
<path d="M3885 4670 c-10 -11 -16 -21 -14 -23 2 -1 11 -8 20 -15 13 -10 19 -8
33 6 15 18 15 20 -2 35 -18 16 -20 16 -37 -3z"/>
<path d="M4150 4635 c-18 -21 -4 -54 21 -48 27 7 32 19 19 43 -13 24 -23 25
-40 5z"/>
<path d="M3836 4577 c-9 -34 -8 -37 19 -37 16 0 25 6 25 15 0 8 0 18 1 22 0 4
-8 10 -19 14 -15 6 -21 3 -26 -14z"/>
<path d="M4160 4515 c0 -14 4 -25 9 -25 5 0 16 -2 23 -5 9 -4 14 4 16 25 2 26
-1 30 -23 30 -20 0 -25 -5 -25 -25z"/>
<path d="M1889 4498 c-1 -7 -1 -16 0 -21 1 -4 -10 -13 -24 -19 -20 -9 -28 -8
-44 6 -26 24 -54 11 -46 -22 8 -34 -20 -65 -46 -51 -37 19 -56 -22 -22 -46 14
-11 15 -17 5 -39 -7 -16 -17 -24 -26 -20 -19 7 -29 -11 -21 -37 4 -12 12 -18
21 -15 9 4 19 -4 26 -20 10 -22 9 -28 -6 -39 -12 -10 -16 -20 -11 -35 5 -17
12 -20 32 -15 36 9 67 -20 52 -48 -8 -15 -8 -22 2 -28 20 -13 30 -11 44 8 11
15 17 15 39 5 17 -7 26 -19 24 -29 -2 -10 5 -19 16 -21 20 -4 38 16 32 34 -7
19 47 25 61 7 7 -9 19 -12 32 -8 22 7 28 29 10 40 -7 5 -4 14 8 27 13 14 25
18 46 14 35 -7 47 16 23 43 -23 26 -12 68 17 67 16 -1 22 5 22 22 0 12 -2 21
-5 20 -3 -1 -15 4 -27 11 -28 14 -30 45 -4 63 17 12 17 16 5 33 -12 16 -18 17
-32 8 -24 -14 -65 16 -51 38 22 34 -10 62 -41 34 -20 -18 -44 -19 -58 -2 -10
12 -12 18 -12 37 0 15 -40 12 -41 -2z m82 -102 c72 -30 109 -129 75 -200 -68
-143 -286 -94 -286 64 0 108 110 178 211 136z"/>
<path d="M1870 4338 c-33 -18 -51 -56 -44 -93 8 -41 33 -65 77 -72 31 -5 40
-1 67 26 27 26 31 37 27 67 -3 20 -13 45 -24 55 -24 25 -72 32 -103 17z"/>
<path d="M3863 4490 c-20 -8 -22 -12 -11 -35 13 -29 16 -30 41 -11 15 12 16
18 7 35 -6 12 -12 21 -13 20 -1 0 -12 -4 -24 -9z"/>
<path d="M4121 4447 c-15 -15 -14 -32 4 -47 11 -10 18 -9 30 3 20 20 19 30 -4
44 -14 9 -21 9 -30 0z"/>
<path d="M3925 4408 c-14 -21 -13 -23 8 -35 18 -10 24 -9 35 4 16 22 15 26 -8
40 -16 11 -21 9 -35 -9z"/>
<path d="M4038 4399 c-10 -5 -18 -19 -18 -29 0 -21 24 -26 49 -11 10 7 11 13
2 30 -7 11 -13 21 -14 21 -1 0 -10 -5 -19 -11z"/>
<path d="M1275 4345 c-30 -29 -22 -65 19 -80 22 -7 30 -5 48 13 18 18 20 26
13 48 -15 41 -51 49 -80 19z"/>
<path d="M3362 3751 l-443 -444 -159 158 c-88 88 -162 157 -164 155 -3 -3 -81
-81 -174 -173 l-169 -168 -46 48 c-149 155 -536 533 -546 533 -5 0 -89 39
-187 86 -288 139 -366 175 -369 172 -1 -2 36 -82 82 -178 47 -96 109 -225 138
-287 l54 -112 198 -200 c109 -109 211 -215 226 -235 16 -20 32 -36 37 -36 5 0
31 -22 58 -49 l49 -49 -61 -60 c-34 -33 -112 -111 -174 -174 l-112 -114 155
-154 c85 -85 155 -159 155 -164 0 -5 -198 -207 -441 -449 l-440 -440 181 -182
182 -182 445 444 446 445 151 -151 c83 -83 155 -154 159 -158 4 -4 85 71 180
165 l173 173 50 -52 c27 -29 66 -68 88 -88 21 -20 204 -201 406 -403 396 -396
400 -399 466 -365 16 8 71 58 122 111 81 84 92 99 92 131 0 20 -5 46 -12 58
-6 12 -171 182 -367 378 -196 195 -371 374 -390 397 -18 23 -37 42 -42 42 -9
0 -99 89 -99 99 0 3 77 82 170 176 l170 170 -155 155 c-85 85 -155 158 -155
162 0 5 192 201 428 436 235 236 432 435 439 443 10 13 -19 46 -170 195 l-182
180 -443 -445z m-2115 251 c10 -7 10 -12 0 -26 -12 -17 -14 -16 -25 8 -12 27
-1 35 25 18z m297 -146 c43 -20 77 -39 75 -41 -2 -2 -51 -52 -108 -109 l-104
-105 -22 47 c-12 26 -46 96 -74 156 l-52 109 27 28 27 28 76 -39 c42 -21 112
-54 155 -74z m2214 -2393 l-116 -116 -46 49 -46 48 116 117 116 116 46 -49 46
-49 -116 -116z m204 31 l47 -46 -114 -116 -115 -115 -22 19 c-12 10 -34 32
-49 49 l-27 29 112 113 c61 62 113 113 116 113 3 0 27 -21 52 -46z"/>
<path d="M4545 4051 c-185 -86 -249 -313 -134 -481 112 -164 340 -191 488 -58
172 154 130 439 -79 537 -82 39 -193 40 -275 2z"/>
<path d="M2532 3937 c-34 -34 -62 -66 -62 -70 0 -11 119 -127 130 -127 12 0
130 115 130 127 0 9 -122 133 -131 133 -2 0 -33 -28 -67 -63z m101 -37 l32
-30 -33 -32 -32 -33 -32 32 -32 33 29 30 c16 16 30 30 32 30 2 0 18 -13 36
-30z"/>
<path d="M790 3920 c-33 -31 -47 -69 -29 -80 14 -9 39 -2 39 11 0 18 41 49 65
49 13 0 34 -10 45 -22 28 -30 20 -60 -31 -115 -29 -32 -39 -51 -39 -76 0 -29
3 -34 23 -33 16 1 23 8 25 27 2 16 20 42 43 63 21 20 39 42 40 49 0 7 2 23 5
35 6 34 -24 90 -57 108 -42 21 -96 15 -129 -16z"/>
<path d="M392 3828 c-16 -16 -15 -26 2 -44 18 -18 24 -18 42 1 17 16 12 30
-15 44 -12 7 -22 6 -29 -1z"/>
<path d="M485 3820 c-18 -19 -18 -22 -2 -37 16 -16 18 -16 37 3 20 20 20 21 2
37 -18 16 -20 16 -37 -3z"/>
<path d="M2457 3762 c-15 -17 -15 -19 2 -34 18 -15 21 -15 36 2 16 17 16 21 2
35 -19 19 -20 19 -40 -3z"/>
<path d="M2702 3764 c-12 -13 -11 -18 4 -35 16 -18 18 -18 36 -2 17 15 17 17
2 35 -20 22 -25 22 -42 2z"/>
<path d="M397 3732 c-22 -24 -21 -38 0 -46 10 -4 24 1 36 13 18 18 19 21 4 35
-20 20 -20 20 -40 -2z"/>
<path d="M482 3738 c-18 -18 -15 -36 10 -49 18 -10 24 -8 35 7 11 15 10 20 -7
36 -23 21 -23 21 -38 6z"/>
<path d="M2387 3692 c-16 -18 -16 -20 1 -35 18 -16 20 -16 35 1 16 18 16 20
-1 35 -18 16 -20 16 -35 -1z"/>
<path d="M2777 3692 c-16 -18 -16 -20 1 -35 18 -16 20 -16 35 1 16 18 16 20
-1 35 -18 16 -20 16 -35 -1z"/>
<path d="M2317 3622 c-16 -18 -16 -20 1 -35 18 -16 20 -16 35 1 16 18 16 20
-1 35 -18 16 -20 16 -35 -1z"/>
<path d="M2847 3622 c-16 -18 -16 -20 1 -35 18 -16 20 -16 35 1 16 18 16 20
-1 35 -18 16 -20 16 -35 -1z"/>
<path d="M841 3591 c-13 -23 0 -41 24 -37 13 2 20 11 20 26 0 28 -31 36 -44
11z"/>
<path d="M2244 3549 c-18 -20 -18 -21 1 -35 24 -18 28 -18 42 5 10 15 9 22 -6
35 -16 15 -19 15 -37 -5z"/>
<path d="M2917 3552 c-16 -18 -16 -20 2 -37 18 -16 21 -16 36 -1 15 14 15 17
-3 36 -18 20 -19 20 -35 2z"/>
<path d="M153 3483 c-24 -5 -63 -47 -63 -69 0 -20 37 -17 59 5 24 24 61 17 61
-11 0 -11 -13 -36 -30 -55 -38 -43 -41 -83 -5 -83 17 0 25 5 25 18 0 9 14 30
30 45 68 64 14 167 -77 150z"/>
<path d="M2170 3474 c-11 -12 -10 -18 3 -31 15 -15 18 -15 36 1 17 16 18 20 6
32 -18 18 -30 18 -45 -2z"/>
<path d="M2986 3473 c-4 -9 0 -23 9 -32 13 -14 17 -14 32 1 13 14 14 20 3 32
-16 21 -36 20 -44 -1z"/>
<path d="M677 3425 c-46 -16 -64 -30 -83 -67 -14 -26 -19 -29 -47 -22 -51 12
-89 5 -129 -21 -54 -36 -72 -76 -65 -147 5 -55 3 -60 -18 -68 -30 -11 -63 -54
-75 -99 -11 -43 0 -96 30 -133 37 -48 71 -56 243 -58 182 -1 218 -10 257 -67
23 -34 25 -47 28 -173 l3 -136 32 1 32 1 5 134 c4 111 9 141 25 168 22 36 86
72 128 72 38 0 88 23 114 51 59 66 44 184 -30 229 -30 19 -31 22 -32 89 0 77
-17 112 -71 143 -30 18 -94 24 -130 13 -17 -5 -25 1 -42 29 -35 58 -108 84
-175 61z"/>
<path d="M4265 3280 c-27 -28 -29 -29 -58 -14 -37 20 -106 20 -143 1 -82 -43
-118 -142 -78 -219 15 -30 15 -31 -15 -62 -35 -36 -39 -51 -14 -60 11 -4 28 4
49 25 29 28 35 30 50 18 10 -8 41 -14 79 -14 53 0 67 4 99 29 63 48 86 139 52
203 -14 27 -13 29 16 60 19 19 28 38 25 47 -9 24 -30 19 -62 -14z m-85 -60
c12 -8 0 -24 -62 -87 -43 -42 -80 -74 -83 -71 -15 15 -15 70 0 102 25 52 104
83 145 56z"/>
<path d="M150 3200 c0 -22 4 -27 23 -26 17 1 22 7 22 26 0 19 -5 25 -22 26
-19 1 -23 -4 -23 -26z"/>
<path d="M1746 3051 c-16 -17 -16 -20 0 -35 15 -16 18 -16 35 0 18 16 18 18 3
36 -21 22 -17 22 -38 -1z"/>
<path d="M3417 3052 c-16 -18 -16 -20 3 -37 11 -10 21 -16 23 -14 1 2 8 11 15
20 10 13 8 19 -6 33 -18 15 -20 15 -35 -2z"/>
<path d="M5013 3053 c-7 -3 -13 -20 -13 -38 0 -19 -5 -37 -12 -41 -7 -4 -96
-8 -198 -9 -202 -1 -221 -5 -239 -55 -24 -70 22 -111 128 -111 61 0 73 -3 86
-22 21 -30 6 -40 -64 -43 -72 -2 -115 -25 -140 -76 -17 -34 -18 -64 -17 -355
1 -299 2 -320 21 -352 36 -61 67 -70 239 -68 168 2 189 9 226 70 19 30 20 52
20 357 0 305 -1 327 -20 357 -27 44 -73 66 -145 67 -40 1 -60 5 -61 14 -1 6
-2 21 -3 32 0 12 -13 32 -27 45 -24 22 -36 25 -105 25 -65 0 -80 3 -88 18 -21
40 -3 44 202 45 190 2 196 3 220 25 30 29 42 108 17 115 -8 2 -21 2 -27 0z
m-59 -382 c33 -18 48 -58 44 -117 l-3 -49 -190 0 c-104 -1 -196 1 -202 3 -19
6 -8 119 13 143 25 28 60 34 194 33 79 0 128 -5 144 -13z m41 -222 c5 -6 8
-157 6 -387 -1 -69 -3 -76 -31 -102 -30 -28 -31 -28 -163 -28 -72 1 -143 5
-157 10 -51 17 -55 35 -56 278 -1 124 0 227 1 230 4 7 392 6 400 -1z"/>
<path d="M4770 2595 c0 -20 5 -25 24 -25 25 0 36 15 29 38 -3 6 -16 12 -29 12
-19 0 -24 -5 -24 -25z"/>
<path d="M1670 2975 c-10 -12 -10 -18 0 -30 16 -19 25 -19 45 2 16 16 16 17
-1 30 -23 17 -29 16 -44 -2z"/>
<path d="M3493 2983 c-18 -7 -16 -28 3 -43 12 -11 18 -10 31 3 13 13 14 19 3
31 -13 17 -17 18 -37 9z"/>
<path d="M1600 2904 c-11 -12 -10 -18 3 -32 16 -15 18 -15 34 0 13 14 14 20 3
32 -7 9 -16 16 -20 16 -4 0 -13 -7 -20 -16z"/>
<path d="M3560 2904 c-11 -12 -10 -18 3 -32 16 -15 18 -15 34 0 13 14 14 20 3
32 -7 9 -16 16 -20 16 -4 0 -13 -7 -20 -16z"/>
<path d="M1531 2836 c-13 -16 -4 -46 14 -46 7 0 18 7 25 15 10 12 10 18 0 30
-15 19 -24 19 -39 1z"/>
<path d="M3630 2835 c-9 -11 -9 -18 3 -35 14 -20 14 -20 32 0 15 16 15 22 5
35 -16 19 -24 19 -40 0z"/>
<path d="M1462 2768 c-16 -16 -15 -33 1 -47 21 -17 55 23 37 44 -15 18 -22 19
-38 3z"/>
<path d="M3700 2765 c-10 -13 -9 -19 5 -35 17 -19 19 -19 35 -3 16 16 16 20 2
36 -19 21 -26 21 -42 2z"/>
<path d="M1287 2692 l-67 -67 67 -68 66 -68 30 28 c17 15 48 46 69 67 l39 39
-23 26 c-21 23 -110 111 -112 111 -1 0 -32 -30 -69 -68z m101 -99 l-32 -33
-33 32 -33 32 32 33 32 33 33 -32 33 -32 -32 -33z"/>
<path d="M3777 2694 l-68 -66 23 -26 c13 -14 43 -44 66 -68 51 -50 49 -50 129
36 l52 56 -67 67 -68 67 -67 -66z m101 -101 l-32 -33 -33 32 -33 32 32 33 32
33 33 -32 33 -32 -32 -33z"/>
<path d="M13 2616 c-10 -11 -7 -19 10 -40 13 -14 30 -26 39 -26 27 0 31 31 7
57 -25 26 -39 28 -56 9z"/>
<path d="M152 2605 c-22 -22 -23 -26 -9 -45 l15 -21 31 30 c28 28 30 33 17 46
-19 19 -26 18 -54 -10z"/>
<path d="M3705 2520 c-16 -18 -16 -20 0 -36 15 -16 18 -16 36 2 19 19 19 20 0
36 -18 15 -21 15 -36 -2z"/>
<path d="M1453 2516 c-9 -11 -8 -18 8 -32 18 -16 21 -16 36 -1 13 13 14 19 3
31 -15 19 -31 20 -47 2z"/>
<path d="M34 2486 c-34 -34 -36 -44 -13 -57 18 -9 25 -7 45 14 39 42 8 82 -32
43z"/>
<path d="M145 2490 c-17 -19 -17 -21 9 -45 31 -29 39 -30 55 -11 10 12 7 21
-17 45 -29 31 -29 31 -47 11z"/>
<path d="M3634 2449 c-17 -18 -17 -21 -1 -36 16 -16 18 -16 37 3 20 19 20 20
1 36 -18 15 -21 15 -37 -3z"/>
<path d="M1526 2443 c-4 -9 0 -23 9 -32 13 -14 17 -14 32 1 13 14 14 20 3 32
-16 21 -36 20 -44 -1z"/>
<path d="M1600 2374 c-11 -12 -10 -18 3 -32 16 -15 18 -15 34 0 13 14 14 20 3
32 -7 9 -16 16 -20 16 -4 0 -13 -7 -20 -16z"/>
<path d="M3562 2378 c-7 -7 -12 -17 -12 -24 0 -19 32 -26 48 -10 13 12 13 18
2 30 -15 19 -22 20 -38 4z"/>
<path d="M1670 2304 c-11 -12 -11 -18 2 -30 13 -13 20 -14 38 -4 21 11 21 12
4 31 -21 23 -28 24 -44 3z"/>
<path d="M3487 2303 c-13 -15 -13 -20 -1 -30 17 -17 29 -16 44 2 10 12 10 18
0 30 -16 19 -23 19 -43 -2z"/>
<path d="M4015 2264 c-67 -23 -105 -77 -105 -149 0 -35 21 -87 44 -111 42 -42
124 -56 175 -30 27 15 28 14 111 -69 70 -70 86 -82 102 -74 10 5 18 13 18 17
0 4 -37 45 -81 90 l-82 84 13 38 c15 45 9 111 -14 145 -36 55 -117 81 -181 59z
m121 -78 c26 -26 34 -42 34 -71 0 -52 -53 -105 -104 -105 -52 0 -97 43 -103
98 -4 38 -1 46 30 77 48 48 95 49 143 1z"/>
<path d="M1745 2234 c-15 -15 -15 -18 1 -35 16 -18 18 -18 36 -2 17 15 17 17
2 35 -21 22 -19 22 -39 2z"/>
<path d="M3416 2232 c-15 -18 -15 -20 2 -35 18 -16 20 -16 37 3 10 11 16 21
14 23 -2 1 -11 8 -20 15 -13 10 -19 8 -33 -6z"/>
<path d="M794 2154 c-59 -21 -119 -76 -149 -138 -85 -173 37 -381 231 -392
156 -9 289 116 287 271 -3 193 -188 323 -369 259z"/>
<path d="M206 2099 c-27 -40 13 -81 52 -53 26 18 28 37 6 58 -21 22 -40 20
-58 -5z"/>
<path d="M2170 1805 c-10 -13 -10 -19 5 -35 15 -16 19 -17 31 -5 19 18 18 41
-2 49 -21 8 -20 8 -34 -9z"/>
<path d="M2992 1808 c-16 -16 -15 -26 2 -43 12 -12 16 -11 31 5 15 16 15 22 5
35 -15 18 -22 19 -38 3z"/>
<path d="M2245 1734 c-15 -15 -15 -18 1 -35 16 -18 18 -18 36 -2 17 15 17 17
2 35 -21 22 -19 22 -39 2z"/>
<path d="M2916 1732 c-15 -18 -15 -20 2 -35 18 -16 20 -16 35 0 13 15 13 21 3
36 -16 21 -19 21 -40 -1z"/>
<path d="M2317 1662 c-16 -18 -16 -20 1 -35 18 -16 20 -16 35 1 16 18 16 20
-1 35 -18 16 -20 16 -35 -1z"/>
<path d="M2847 1662 c-16 -18 -16 -20 1 -35 18 -16 20 -16 35 1 16 18 16 20
-1 35 -18 16 -20 16 -35 -1z"/>
<path d="M2386 1592 c-15 -18 -15 -20 3 -36 17 -16 20 -16 35 0 16 15 16 18 0
35 -21 23 -17 23 -38 1z"/>
<path d="M2777 1592 c-22 -24 -21 -29 2 -41 14 -8 22 -6 34 7 13 15 13 19 -3
35 -16 16 -18 16 -33 -1z"/>
<path d="M2458 1521 c-15 -18 -15 -21 2 -36 18 -16 20 -16 36 0 16 15 16 18
-2 36 -19 19 -20 19 -36 0z"/>
<path d="M4380 1532 c-15 -2 -16 -21 -10 -337 l0 -31 131 1 c82 0 133 -3 139
-10 5 -6 41 -87 80 -180 39 -93 74 -173 78 -177 4 -4 23 34 41 85 19 50 36 94
38 96 2 3 28 -19 58 -49 51 -50 54 -52 71 -36 16 17 14 20 -35 70 -28 28 -51
54 -51 57 0 3 43 20 95 39 52 19 95 36 95 39 0 3 -80 39 -178 80 -97 41 -181
78 -186 82 -6 5 -10 67 -10 139 0 71 -2 131 -5 131 -14 3 -337 4 -351 1z m504
-387 l98 -42 -62 -24 c-67 -26 -69 -28 -100 -103 -11 -27 -23 -47 -26 -44 -7
7 -94 219 -94 229 0 5 6 6 14 3 9 -3 17 3 21 16 8 25 9 24 149 -35z"/>
<path d="M2701 1517 c-8 -10 -7 -19 4 -33 13 -18 15 -18 31 -2 18 18 13 48 -9
48 -8 0 -20 -6 -26 -13z"/>
<path d="M2535 1452 c-36 -35 -65 -67 -65 -71 0 -9 120 -131 128 -131 4 0 36
29 72 65 l64 65 -25 27 c-13 15 -43 46 -67 69 l-42 41 -65 -65z m100 -42 l29
-30 -32 -33 -32 -32 -32 32 -32 33 29 30 c16 16 32 30 35 30 3 0 19 -14 35
-30z"/>
<path d="M369 1455 c-39 -21 -53 -69 -33 -111 15 -31 38 -45 79 -49 19 -2 63
24 70 42 18 41 16 71 -7 97 -28 32 -74 41 -109 21z m75 -61 c8 -20 -3 -41 -24
-47 -36 -9 -56 43 -23 61 20 12 39 6 47 -14z"/>
<path d="M747 1241 c-17 -9 -42 -31 -54 -50 -74 -111 51 -249 172 -191 106 51
101 205 -8 244 -51 18 -69 17 -110 -3z"/>
<path d="M3183 1241 c-10 -16 -7 -23 15 -44 23 -22 30 -24 45 -13 23 17 22 21
-10 51 -33 30 -35 30 -50 6z"/>
<path d="M3338 1249 c-30 -17 -41 -47 -23 -65 14 -14 18 -13 45 15 27 27 29
31 14 45 -8 9 -16 16 -17 16 -1 0 -10 -5 -19 -11z"/>
<path d="M3196 1109 c-22 -24 -25 -33 -15 -45 15 -19 31 -18 50 4 27 32 29 39
10 56 -16 15 -19 14 -45 -15z"/>
<path d="M3311 1119 c-11 -18 -9 -24 10 -45 26 -27 35 -29 53 -11 15 14 8 27
-30 59 -19 16 -20 16 -33 -3z"/>
<path d="M2741 1076 c-24 -29 19 -70 46 -44 11 11 10 17 -3 36 -18 26 -27 27
-43 8z"/>
<path d="M2835 1070 c-17 -19 -18 -22 -2 -37 15 -16 18 -15 36 1 16 15 18 21
8 37 -15 24 -20 24 -42 -1z"/>
<path d="M1880 1010 c0 -22 4 -27 18 -25 9 2 20 4 25 4 4 1 7 12 7 25 0 18 -5
24 -25 24 -21 0 -25 -5 -25 -28z"/>
<path d="M1980 1012 c0 -23 4 -29 18 -27 9 2 21 4 25 4 5 1 7 11 5 24 -2 14
-11 23 -25 25 -20 3 -23 -1 -23 -26z"/>
<path d="M2082 1014 c4 -40 42 -39 50 1 2 16 -3 20 -24 21 -23 1 -27 -3 -26
-22z"/>
<path d="M2744 979 c-16 -18 -17 -21 -1 -36 15 -16 18 -15 36 1 11 10 17 24
15 31 -9 23 -31 25 -50 4z"/>
<path d="M2831 986 c-9 -11 -10 -20 -1 -35 13 -24 33 -27 49 -7 10 12 8 19 -8
35 -25 25 -25 25 -40 7z"/>
<path d="M3663 939 c-28 -10 -36 -25 -29 -54 9 -35 54 -45 77 -17 30 38 -3 88
-48 71z"/>
<path d="M1948 935 c-2 -1 -26 -5 -53 -9 -108 -12 -248 -77 -338 -155 -57 -49
-147 -159 -147 -180 0 -19 52 -90 106 -144 181 -183 458 -249 709 -169 100 32
189 88 273 171 34 34 62 63 62 67 0 3 11 20 25 38 l25 33 -41 59 c-122 173
-318 278 -537 288 -45 2 -82 3 -84 1z m146 -60 c156 -15 329 -118 434 -259
l22 -28 -32 -41 c-131 -165 -304 -250 -508 -250 -199 -1 -372 78 -497 227 -24
27 -43 55 -43 62 0 22 79 113 138 159 62 49 140 89 216 112 53 16 162 32 186
27 8 -1 46 -5 84 -9z"/>
<path d="M1915 814 c-88 -32 -154 -135 -150 -233 7 -178 188 -286 348 -207 90
44 138 126 133 228 -8 162 -174 269 -331 212z"/>
<path d="M3153 889 c-156 -29 -249 -182 -203 -336 7 -23 38 -73 70 -111 59
-73 79 -117 61 -135 -6 -6 -11 -19 -11 -29 0 -14 8 -18 43 -19 23 0 79 -1 124
-2 71 -2 83 0 87 16 2 9 -1 23 -8 30 -19 19 -2 68 42 118 60 70 78 100 92 156
42 180 -116 346 -297 312z"/>
<path d="M3853 724 c-36 -18 -56 -58 -49 -99 5 -27 19 -45 115 -141 l44 -44
78 81 c71 72 79 85 79 119 0 70 -71 117 -130 87 -21 -11 -31 -11 -55 -1 -39
17 -44 17 -82 -2z"/>
<path d="M3098 220 c-14 -4 -23 -13 -23 -25 0 -19 9 -20 121 -23 96 -2 123 0
127 11 12 31 -10 40 -106 41 -53 0 -106 -1 -119 -4z"/>
<path d="M1880 168 c0 -23 4 -27 25 -26 20 2 25 8 25 28 0 20 -5 25 -25 25
-21 0 -25 -5 -25 -27z"/>
<path d="M1993 193 c-7 -3 -13 -16 -13 -29 0 -19 5 -24 25 -24 20 0 25 5 25
24 0 25 -15 36 -37 29z"/>
<path d="M2091 190 c-20 -12 -8 -45 17 -48 18 -3 22 1 22 21 0 27 -19 40 -39
27z"/>
<path d="M3142 110 c3 -23 6 -25 56 -23 30 1 56 3 58 5 2 2 1 14 -2 25 -5 19
-12 22 -60 20 -52 -2 -55 -3 -52 -27z"/>
</g>
</svg>
